<?xml version="1.0" standalone="no"?>
<!DOCTYPE svg PUBLIC "-//W3C//DTD SVG 1.1//EN" "http://www.w3.org/Graphics/SVG/1.1/DTD/svg11.dtd" >
<svg>
<metadata>
Created by FontForge 20090622 at Tue Apr 16 10:25:38 2019
 By deploy user
Copyright Ray Meadows 2009
</metadata>
<defs>
<font id="RM-Typerighter" horiz-adv-x="312" >
  <font-face 
    font-family="RM Typerighter"
    font-weight="400"
    font-stretch="normal"
    units-per-em="1024"
    panose-1="0 0 4 0 0 0 0 0 0 0"
    ascent="819"
    descent="-205"
    x-height="232"
    cap-height="336"
    bbox="-104 -136 528 448"
    underline-thickness="51"
    underline-position="127"
    unicode-range="U+000D-U+FB02"
  />
<missing-glyph horiz-adv-x="680" 
d="M224 63v71h-72v-71h72zM295 146v72h-143v-72h143zM224 229v72h-72v-72h72zM295 313v70h-71q-30 0 -51 -20q-21 -21 -21 -50h143zM0 0v448h448v-448h-448z" />
    <glyph glyph-name=".notdef" horiz-adv-x="680" 
d="M224 63v71h-72v-71h72zM295 146v72h-143v-72h143zM224 229v72h-72v-72h72zM295 313v70h-71q-30 0 -51 -20q-21 -21 -21 -50h143zM0 0v448h448v-448h-448z" />
    <glyph glyph-name="glyph1" horiz-adv-x="48" 
 />
    <glyph glyph-name="glyph1" horiz-adv-x="48" 
 />
    <glyph glyph-name="uni000D" unicode="&#xd;" horiz-adv-x="0" 
 />
    <glyph glyph-name="space" unicode=" " horiz-adv-x="216" 
 />
    <glyph glyph-name="exclam" unicode="!" horiz-adv-x="112" 
d="M24 0l-8 4l-8 4l-4 8l-4 8v8l4 8l4 8l8 4l8 4h8l8 -4l8 -4l4 -8l4 -8v-8l-4 -8l-4 -8l-8 -4l-8 -4h-8zM20 80l-4 8v240q0 3 2 5q2 3 6 3h8q3 0 5 -3q3 -2 3 -5v-240l-4 -8h-16z" />
    <glyph glyph-name="quotedbl" unicode="&#x22;" horiz-adv-x="176" 
d="M24 264l-4 8l-4 8v24l-4 8l-4 8l-4 8l-4 8v8l4 8l4 8l8 4l8 4h8l8 -4l8 -4l4 -8l4 -8v-8l-4 -8l-4 -8l-4 -8l-4 -8v-24l-4 -8l-4 -8h-8zM88 264l-4 8l-4 8v24l-4 8l-4 8l-4 8l-4 8v8l4 8l4 8l8 4l8 4h8l8 -4l8 -4l4 -8l4 -8v-8l-4 -8l-4 -8l-4 -8l-4 -8v-24l-4 -8l-4 -8
h-8z" />
    <glyph glyph-name="numbersign" unicode="#" horiz-adv-x="288" 
d="M142 148l2 4l4 8l4 8l4 8l4 8l2 4h-56l-2 -4l-4 -8l-4 -8l-4 -8l-4 -8l-2 -4h56zM24 56l-4 8l4 8l4 8l4 8l4 8l4 8l4 8l4 8l4 8h-28l-8 4v12l8 4h38l2 4l4 8l4 8l4 8l4 8l2 4h-26l-8 4v12l8 4h36l4 8l4 8l4 8l4 8l4 8l4 8l4 8l4 8l4 4l4 4h12l4 -8l-4 -8l-4 -8l-4 -8
l-4 -8l-4 -8l-4 -8l-4 -8l-4 -8h56l4 8l4 8l4 8l4 8l4 8l4 8l4 8l4 8l4 4l4 4h12l4 -8l-4 -8l-4 -8l-4 -8l-4 -8l-4 -8l-4 -8l-4 -8l-4 -8h28l8 -4v-12l-8 -4h-38l-2 -4l-4 -8l-4 -8l-4 -8l-4 -8l-2 -4h26l8 -4v-12l-8 -4h-36l-4 -8l-4 -8l-4 -8l-4 -8l-4 -8l-4 -8l-4 -8
l-4 -8h-1l-3 -4l-4 -4h-12l-4 8l4 8l4 8l4 8l4 8l4 8l4 8l4 8l4 8h-56l-4 -8l-4 -8l-4 -8l-4 -8l-4 -8l-4 -8l-4 -8l-4 -8h-1l-3 -4l-4 -4h-12z" />
    <glyph glyph-name="dollar" unicode="$" horiz-adv-x="248" 
d="M120 40l8 4l8 4l8 4l4 4l4 4l4 4l4 8l4 8l4 8v24l-4 8l-4 8l-4 8l-4 4v0l-4 4l-4 4l-8 4l-8 4l-8 4l-8 4h-8v-124h16zM80 184v112h-16l-8 -4l-8 -4l-8 -4l-4 -4h-1l-3 -4l-4 -4l-4 -8l-4 -8l-4 -8v-16l4 -8l4 -8l4 -8l4 -4v-1l4 -3l4 -4l8 -4l8 -4l8 -4h16zM84 0l-4 8v12
h-8l-8 4l-8 4l-8 4l-8 8l-8 8h-4v-24l-4 -8h-16l-4 8v88l4 8h16l4 -8v-16l4 -8l4 -8l4 -8l4 -8l4 -4v-1l4 -3l4 -4l8 -4l8 -4l8 -4v124h-24l-8 4l-8 4l-8 4l-8 8l-8 8l-8 8l-4 8l-4 8l-4 8l-4 8v16l4 8l4 8l4 8l4 8l8 8l8 8l8 8l8 4l8 4l8 4h24v12l4 8h16l4 -8v-12h8l8 -4
l8 -4l8 -4l8 -8h4v16l4 8h16l4 -8v-72l-4 -8h-16l-4 8v16l-4 8l-4 8l-4 4v0l-4 4l-4 4l-8 4l-8 4l-8 4v-112h16l8 -4l8 -4l8 -4l8 -4l8 -8l8 -8l8 -8l4 -8l4 -8l4 -8l4 -8v-24l-4 -8l-4 -8l-4 -8l-4 -8l-8 -8l-8 -8l-8 -8l-8 -4l-8 -4l-8 -4h-24v-12l-4 -8h-16z" />
    <glyph glyph-name="percent" unicode="%" horiz-adv-x="264" 
d="M152 40l8 4l8 4l4 8l4 8l4 8l4 8v40l-4 8l-4 4l-8 4h-8l-8 -4l-8 -4l-4 -8l-4 -8l-4 -8l-4 -8v-40l4 -8l4 -4l8 -4h8zM136 24l-8 4l-8 4l-8 8l-4 8l-4 8v40l4 8l4 8l4 8l4 8l8 8l8 8l8 4l8 4h24l8 -4l8 -4l8 -8l4 -8l4 -8v-40l-4 -8l-4 -8l-4 -8l-4 -8l-8 -8l-8 -8l-8 -4
l-8 -4h-24zM48 168l8 4l8 4l4 8l4 8l4 8l4 8v40l-4 8l-4 4l-8 4h-8l-8 -4l-8 -4l-4 -8l-4 -8l-4 -8l-4 -8v-40l4 -8l4 -4l8 -4h8zM16 0l4 8l4 8l4 8l4 8l4 8l4 8l4 8l4 8l4 8l4 8l4 8l4 8l4 8l4 8l4 8l4 8l4 8l4 8l4 8l4 8l4 8l4 8l4 8l4 8l4 8l4 8l4 8l4 8l4 8l4 8l4 8l1 2
l-5 -2l-8 -4h-16l-8 4v-40l-4 -8l-4 -8l-4 -8l-4 -8l-8 -8l-8 -8l-8 -4l-8 -4h-24l-8 4l-8 4l-8 8l-4 8l-4 8v40l4 8l4 8l4 8l4 8l8 8l8 8l8 4l8 4h24l8 -4l8 -4l8 -4l8 -4h24l8 4l8 4l8 8l8 8l4 8l4 8h24l-4 -8l-4 -8l-4 -8l-4 -8l-4 -8l-4 -8l-4 -8l-4 -8l-4 -8l-4 -8
l-4 -8l-4 -8l-4 -8l-4 -8l-4 -8l-4 -8l-4 -8l-4 -8l-4 -8l-4 -8l-4 -8l-4 -8l-4 -8l-4 -8l-4 -8l-4 -8l-4 -8l-4 -8l-4 -8l-4 -8l-4 -8l-4 -8l-4 -8l-4 -8l-4 -8l-4 -8l-4 -8l-4 -8h-24z" />
    <glyph glyph-name="ampersand" unicode="&#x26;" horiz-adv-x="324" 
d="M100 24l8 4l8 4l8 8l8 8l8 8l4 8l4 8l-8 8l-8 8l-8 8l-8 8l-8 8l-8 8l-8 8l-8 8l-8 8l-8 8l-6 5l-2 -1l-8 -4l-8 -8l-8 -8l-4 -8l-4 -8l-4 -8v-40l4 -8l4 -8l4 -8l8 -8l8 -8l8 -4l8 -4h32zM68 184l8 4l8 4l8 4l8 4l4 8l4 8v16l-4 8l-4 8l-8 8l-8 4h-16l-8 -4l-8 -8l-4 -8
l-4 -8v-16l4 -8l4 -8l8 -8l8 -8v0zM60 4l-8 4l-8 4v0l-4 4l-4 4v0l-4 4l-4 4v0l-4 4l-4 4v0l-4 4l-4 8l-4 8l-4 8l-4 8v40l4 8l4 8l4 8l4 8l4 4l4 4l4 4l4 4l4 4l4 4l4 4l2 1l-2 3l-8 8l-4 8l-4 8l-4 8l-4 8v24l4 8l4 8l8 8l8 8l8 4l8 4h32l8 -4l8 -4l8 -8l8 -8l4 -8l4 -8
v-32l-4 -8h-1l-3 -4l-4 -4h-1l-3 -4l-4 -4h-1l-3 -4l-8 -4l-8 -4l-8 -4l8 -8l8 -8l8 -8l8 -8l8 -8l8 -8l8 -8l8 -8l8 -8l2 -3l2 3l4 8l4 8l4 8l4 8l4 4l4 4l4 4l4 4l4 4l8 4h8l8 -4v-1l4 -3l4 -8v-8l-4 -8h-1l-3 -4l-8 -4h-8l-8 4l-4 -4l-4 -8l-4 -8l-4 -8l-4 -8l-2 -3l6 -5
l8 -8l8 -8l8 -8l8 -8l8 -8h16l8 8l4 8l4 4l8 4h4l4 -8v-8l-4 -8l-4 -8l-8 -8l-8 -4l-8 -4h-16l-8 4l-8 4l-8 8l-8 8l-8 8l-8 8l-8 8l-4 -8h-1l-3 -4l-4 -4h-1l-3 -4l-4 -4h-1l-3 -4l-4 -4h-1l-3 -4l-4 -4h-1l-3 -4l-8 -4l-8 -4h-48z" />
    <glyph glyph-name="quotesingle" unicode="'" horiz-adv-x="108" 
d="M0 260v8l8 4l8 8l4 8l4 8v16l-8 4l-8 4l-4 8l-4 8v8l4 8l4 8l8 4l8 4h8l8 -4l8 -4l4 -8l4 -8l4 -8v-16l-4 -8l-4 -8l-4 -8l-8 -8l-8 -8l-8 -8l-8 -4l-8 -4l-8 -4v0z" />
    <glyph glyph-name="parenleft" unicode="(" horiz-adv-x="168" 
d="M104 -68v1l-4 3l-4 4v1l-4 3l-4 4v1l-4 3l-4 4v1l-4 3l-4 4v1l-4 3l-4 4v1l-4 3l-4 4v1l-4 3l-4 4v1l-4 3l-4 8l-4 8l-4 8l-4 8l-4 8l-4 8l-4 8l-4 8l-4 8l-4 8l-4 8v176l4 8l4 8l4 8l4 8l4 8l4 8l4 8l4 8l4 8l4 8l4 8l4 4l4 4l4 4l4 4l4 4l4 4l4 4l4 4l4 4l4 4l4 4l4 4
l4 4l4 4l4 4l8 -4v-8l-4 -8l-4 -8l-8 -8l-8 -8l-8 -8l-8 -8l-8 -8l-4 -8l-4 -8l-4 -8l-4 -8l-4 -8l-4 -8l-4 -8l-4 -8l-4 -8l-4 -8v-176l4 -8l4 -8l4 -8l4 -8l4 -8l4 -8l4 -8l4 -8l4 -8l4 -8l8 -8l8 -8l8 -8l8 -8l8 -8l4 -8l4 -8v-8l-8 -4v0z" />
    <glyph glyph-name="parenright" unicode=")" horiz-adv-x="168" 
d="M8 -68l-8 4v8l4 8l4 8l8 8l8 8l8 8l8 8l8 8l4 8l4 8l4 8l4 8l4 8l4 8l4 8l4 8l4 8l4 8v176l-4 8l-4 8l-4 8l-4 8l-4 8l-4 8l-4 8l-4 8l-4 8l-4 8l-8 8l-8 8l-8 8l-8 8l-8 8l-4 8l-4 8v8l7 3v1h1v-1l4 -3l4 -4v-1l4 -3l4 -4v-1l4 -3l4 -4v-1l4 -3l4 -4v-1l4 -3l4 -4v-1
l4 -3l4 -4v-1l4 -3l4 -4v-1l4 -3l4 -8l4 -8l4 -8l4 -8l4 -8l4 -8l4 -8l4 -8l4 -8l4 -8l4 -8v-176l-4 -8l-4 -8l-4 -8l-4 -8l-4 -8l-4 -8l-4 -8l-4 -8l-4 -8l-4 -8l-4 -8h-1l-3 -4l-4 -4h-1l-3 -4l-4 -4h-1l-3 -4l-4 -4h-1l-3 -4l-4 -4h-1l-3 -4l-4 -4h-1l-3 -4l-4 -4h-1
l-3 -4l-4 -4h-1l-3 -4v0z" />
    <glyph glyph-name="asterisk" unicode="*" horiz-adv-x="176" 
d="M32 264l-8 8l4 8l4 8l4 8l4 8l2 4h-34l-8 4v16l8 4h34l-2 4l-4 8l-4 8l-4 8l-4 8l8 8h12l4 -8l4 -8l4 -8l4 -8l4 8l4 8l4 8l4 8h12l8 -8l-4 -8l-4 -8l-4 -8l-4 -8l-2 -4h34l8 -4v-16l-8 -4h-34l2 -4l4 -8l4 -8l4 -8l4 -8l-8 -8h-12l-4 8l-4 8l-4 8l-4 8l-4 -8l-4 -8
l-4 -8l-4 -8h-12z" />
    <glyph glyph-name="plus" unicode="+" horiz-adv-x="224" 
d="M76 88l-4 8v60h-64l-8 4v12l8 4h64v64l4 8h16l4 -8v-64h64l8 -4v-12l-8 -4h-64v-60l-4 -8h-16z" />
    <glyph glyph-name="comma" unicode="," horiz-adv-x="108" 
d="M0 -52v8l8 4l8 8l4 8l4 8v16l-8 4l-8 4l-4 8l-4 8v8l4 8l4 8l8 4l8 4h8l8 -4l8 -4l4 -8l4 -8l4 -8v-16l-4 -8l-4 -8l-4 -8l-8 -8l-8 -8l-8 -8l-8 -4l-8 -4l-8 -4v0z" />
    <glyph glyph-name="hyphen" unicode="-" horiz-adv-x="224" 
d="M8 156l-8 4v12l8 4h152l8 -4v-12l-8 -4h-152z" />
    <glyph glyph-name="period" unicode="." horiz-adv-x="112" 
d="M24 0l-8 4l-8 4l-4 8l-4 8v8l4 8l4 8l8 4l8 4h8l8 -4l8 -4l4 -8l4 -8v-8l-4 -8l-4 -8l-8 -4l-8 -4h-8z" />
    <glyph glyph-name="slash" unicode="/" horiz-adv-x="232" 
d="M4 0l-4 8l4 8l4 8l4 8l4 8l4 8l4 8l4 8l4 8l4 8l4 8l4 8l4 8l4 8l4 8l4 8l4 8l4 8l4 8l4 8l4 8l4 8l4 8l4 8l4 8l4 8l4 8l4 8l4 8l4 8l4 8l4 8l4 8l4 8l4 8l4 8l4 8l4 8l4 8l4 8l4 8l4 4l4 4h12l4 -8l-4 -8l-4 -8l-4 -8l-4 -8l-4 -8l-4 -8l-4 -8l-4 -8l-4 -8l-4 -8l-4 -8
l-4 -8l-4 -8l-4 -8l-4 -8l-4 -8l-4 -8l-4 -8l-4 -8l-4 -8l-4 -8l-4 -8l-4 -8l-4 -8l-4 -8l-4 -8l-4 -8l-4 -8l-4 -8l-4 -8l-4 -8l-4 -8l-4 -8l-4 -8l-4 -8l-4 -8l-4 -8l-4 -8l-4 -8l-4 -8h-1l-3 -4l-4 -4h-12z" />
    <glyph glyph-name="zero" unicode="0" horiz-adv-x="288" 
d="M132 16l8 4l8 4l8 4l8 4l8 4l4 4l4 4l4 4l4 4l4 4l4 8l4 8l4 8l4 8l4 8l4 8v128l-4 8l-4 8l-4 8l-4 8l-4 8l-4 8l-4 4v0l-4 4l-4 4v0l-4 4l-4 4l-8 4l-8 4l-8 4l-8 4l-8 4h-32l-8 -4l-8 -4l-8 -4l-8 -4l-8 -4l-4 -4h-1l-3 -4l-4 -4h-1l-3 -4l-4 -4l-4 -8l-4 -8l-4 -8
l-4 -8l-4 -8l-4 -8v-128l4 -8l4 -8l4 -8l4 -8l4 -8l4 -8l4 -4v-1l4 -3l4 -4v-1l4 -3l4 -4l8 -4l8 -4l8 -4l8 -4l8 -4h32zM92 -4l-8 4l-8 4l-8 4l-8 4l-8 4l-8 8l-8 8l-8 8l-8 8l-4 8l-4 8l-4 8l-4 8l-4 8l-4 8l-4 8v128l4 8l4 8l4 8l4 8l4 8l4 8l4 8l8 8l8 8l8 8l8 8l8 4
l8 4l8 4l8 4l8 4h48l8 -4l8 -4l8 -4l8 -4l8 -4l8 -8l8 -8l8 -8l8 -8l4 -8l4 -8l4 -8l4 -8l4 -8l4 -8l4 -8v-128l-4 -8l-4 -8l-4 -8l-4 -8l-4 -8l-4 -8l-4 -8l-8 -8l-8 -8l-8 -8l-8 -8l-8 -4l-8 -4l-8 -4l-8 -4l-8 -4h-48z" />
    <glyph glyph-name="one" unicode="1" horiz-adv-x="240" 
d="M8 0l-8 4v12l8 4h72v292l-8 -4l-8 -4l-8 -4l-8 -4l-8 -4l-8 -4l-8 -4l-8 -4h-12l-4 8l4 8l4 4l8 4l8 4l8 4l8 4l8 4l8 4l8 4l8 4l8 4h16q3 0 5 -3q3 -2 3 -5v-308h72l8 -4v-12l-8 -4h-168z" />
    <glyph glyph-name="two" unicode="2" horiz-adv-x="296" 
d="M0 0v48l4 8l4 8l4 8l4 8l8 8l8 8l8 8l8 8l8 8l8 4l8 4l8 4l8 4l8 4l8 4l8 4l8 4l8 4l8 4l8 4l8 4l8 4l8 4l8 4l4 4l4 4l4 4l4 4l4 4l4 8l4 8l4 8v32l-4 8l-4 8l-4 8l-4 4v0l-4 4l-4 4v0l-4 4l-4 4l-8 4l-8 4l-8 4l-8 4l-8 4h-32l-8 -4l-8 -4l-8 -4l-8 -4l-8 -4l-4 -4h-1
l-3 -4l-4 -4h-1l-3 -4l-4 -4l-4 -8l-4 -8l-4 -8l-4 -8l-4 -8l-8 -8h-8l-4 8v8l4 8l4 8l4 8l4 8l4 8l8 8l8 8l8 8l8 8l8 4l8 4l8 4l8 4l8 4h48l8 -4l8 -4l8 -4l8 -4l8 -4l8 -8l8 -8l8 -8l8 -8l4 -8l4 -8l4 -8l4 -8v-32l-4 -8l-4 -8l-4 -8l-4 -8l-4 -8h-1l-3 -4l-4 -4h-1
l-3 -4l-4 -4h-1l-3 -4l-8 -4l-8 -4l-8 -4l-8 -4l-8 -4l-8 -4l-8 -4l-8 -4l-8 -4l-8 -4l-8 -4l-8 -4l-8 -4l-8 -4l-8 -4l-8 -8l-8 -8l-8 -8l-8 -8l-4 -8l-4 -8l-4 -8l-4 -8v-20h208l8 -4v-12l-8 -4h-232z" />
    <glyph glyph-name="three" unicode="3" horiz-adv-x="284" 
d="M52 -48l-8 4l-8 4l-8 4l-8 4l-8 4v1l-4 3l-4 4v12l8 4h8v0l4 -4l4 -4l8 -4l8 -4l8 -4l8 -4h72l8 4l8 4l8 4l8 4l4 4l4 4l4 4l4 4l4 4l4 8l4 8l4 8l4 8l4 8v40l-4 8l-4 8l-4 8l-4 4v0l-4 4l-4 4v0l-4 4l-4 4l-8 4l-8 4l-8 4l-8 4l-8 4l-8 4h-32l-8 4v12l8 4h40l8 4l8 4
l8 4l8 4l8 4l4 4l4 4l4 4l4 8l4 8l4 8v24l-4 8l-4 8l-4 8l-4 4v0l-4 4l-4 4v0l-4 4l-4 4l-8 4l-8 4l-8 4l-8 4l-8 4h-40l-8 -4l-8 -4l-8 -4l-8 -4l-8 -4l-4 -4h-1l-3 -4l-4 -4h-1l-3 -4l-4 -4l-4 -8l-8 -4l-8 4l-4 8l4 8l8 8l8 8l8 8l8 8l8 4l8 4l8 4l8 4l8 4h56l8 -4l8 -4
l8 -4l8 -4l8 -4l8 -8l8 -8l8 -8l8 -8l4 -8l4 -8l4 -8l4 -8v-24l-4 -8l-4 -8l-4 -8l-4 -8l-4 -8h-1l-3 -4l-4 -4h-1l-3 -4l-8 -4l-8 -4l-8 -4l-8 -4l8 -4l8 -4l8 -4l8 -8l8 -8l8 -8l8 -8l4 -8l4 -8l4 -8l4 -8v-40l-4 -8l-4 -8l-4 -8l-4 -8l-4 -8l-4 -8l-4 -8h-1l-3 -4l-4 -4
h-1l-3 -4l-4 -4h-1l-3 -4l-8 -4l-8 -4l-8 -4l-8 -4l-8 -4h-88z" />
    <glyph glyph-name="four" unicode="4" horiz-adv-x="284" 
d="M156 0q-4 0 -6 2t-2 6v56h-144l-4 8l4 8l4 8l4 8l4 8l4 8l4 8l4 8l4 8l4 8l4 8l4 8v144l-4 8l-4 8l-4 8l-4 8l-4 8l-4 8l-4 8l-4 8l-4 8l4 4l4 4h4l8 -4v-1l4 -3l4 -8l4 -8l4 -8l4 -8l4 -8l4 -8l4 -8l4 -8l4 -8v-144l-4 -8l-4 -8l-4 -8l-4 -8l-4 -8l-4 -8l-4 -8l-4 -8
l-4 -8l-2 -4h118v156q0 3 2 5q2 3 6 3h8q3 0 5 -3q3 -2 3 -5v-156h48l8 -4v-12l-8 -4h-48v-56q0 -4 -3 -6q-2 -2 -5 -2h-8z" />
    <glyph glyph-name="five" unicode="5" horiz-adv-x="264" 
d="M16 -48l-8 4v16l8 4h32l8 4l8 4l8 4l8 4l8 4l8 4l8 4l4 4l4 4l4 4l4 4l4 4l4 4l4 4l4 4l4 4l4 4l4 4l4 4l4 4l4 8l4 8l4 8l4 8l4 8l4 8l4 8v24l-4 8l-4 8l-4 8l-4 4v0l-4 4l-4 4v0l-4 4l-4 4l-8 4l-8 4l-8 4l-8 4l-8 4h-56l-8 -4l-8 -4l-8 -4l-8 -4h-16q-4 0 -6 2t-2 6
v136q0 3 2 5q2 3 6 3h192l8 -4v-12l-8 -4h-176v-108l8 4l8 4l8 4h72l8 -4l8 -4l8 -4l8 -4l8 -4l8 -8l8 -8l8 -8l8 -8l4 -8l4 -8l4 -8l4 -8v-24l-4 -8l-4 -8l-4 -8l-4 -8l-4 -8l-4 -8l-4 -8l-4 -8l-4 -8h-1l-3 -4l-4 -4h-1l-3 -4l-4 -4h-1l-3 -4l-4 -4h-1l-3 -4l-4 -4h-1
l-3 -4l-4 -4h-1l-3 -4l-4 -4h-1l-3 -4l-8 -4l-8 -4l-8 -4l-8 -4l-8 -4l-8 -4l-8 -4l-8 -4l-8 -4h-32z" />
    <glyph glyph-name="six" unicode="6" horiz-adv-x="280" 
d="M132 16l8 4l8 4l8 4l8 4l8 8l8 8l8 8l8 8l4 8l4 8l4 8v56l-4 8l-4 8l-4 8l-8 8l-8 8l-8 8l-8 8l-8 4l-8 4l-8 4l-8 4h-40l-8 -4l-8 -4l-8 -4l-8 -4l-8 -8l-8 -8l-8 -8l-8 -8l-4 -8l-4 -8l-4 -8v-56l4 -8l4 -8l4 -8l8 -8l8 -8l8 -8l8 -8l8 -4l8 -4l8 -4l8 -4h40zM84 -4
l-8 4l-8 4l-8 4l-8 4l-8 4l-8 8l-8 8l-8 8l-8 8l-4 8l-4 8l-4 8l-4 8l-4 8v112l4 8l4 8l4 8l4 8l4 8l4 8l4 8l4 8l4 8l4 8l4 8l8 8l8 8l8 8l8 8l8 8l8 8l8 8l8 4l8 4l8 4l8 4l8 4l8 4l8 4l8 4l8 4l8 4h8q3 0 5 -3q3 -2 3 -5v-8q0 -4 -3 -6q-2 -2 -5 -2h-8l-8 -4l-8 -4l-8 -4
l-8 -4l-8 -4l-8 -4l-8 -4l-8 -4l-8 -8l-8 -8l-8 -8l-8 -8l-8 -8l-8 -8l-8 -8l-4 -8l-4 -8l-4 -8l-4 -8l-4 -8l-4 -8l-4 -8l-4 -8l-4 -8v-12l4 4l8 8l8 8l8 8l8 4l8 4l8 4l8 4l8 4h56l8 -4l8 -4l8 -4l8 -4l8 -4l8 -8l8 -8l8 -8l8 -8l4 -8l4 -8l4 -8l4 -8l4 -8v-56l-4 -8
l-4 -8l-4 -8l-4 -8l-4 -8l-8 -8l-8 -8l-8 -8l-8 -8l-8 -4l-8 -4l-8 -4l-8 -4l-8 -4h-56z" />
    <glyph glyph-name="seven" unicode="7" horiz-adv-x="288" 
d="M104 -48q-4 0 -6 3q-2 2 -2 5v192l4 8l4 8l4 8l4 8l4 8l4 8l4 8l4 8l4 8l4 8l4 8l4 8l4 8l4 8l4 8l4 4l4 4l4 4l4 4l4 4l4 4l4 4l4 4l4 4l4 4l4 4h-192l-8 4v12l8 4h216q3 0 5 -3q3 -2 3 -5v-8l-8 -8l-8 -8l-8 -8l-8 -8l-8 -8l-8 -8l-8 -8l-4 -8l-4 -8l-4 -8l-4 -8l-4 -8
l-4 -8l-4 -8l-4 -8l-4 -8l-4 -8l-4 -8l-4 -8l-4 -8l-4 -8v-192q0 -3 -3 -5q-2 -3 -5 -3h-8z" />
    <glyph glyph-name="eight" unicode="8" horiz-adv-x="284" 
d="M136 16l8 4l8 4l8 4l8 4l8 8l8 8l8 8l8 8l4 8l4 8l4 8v64l-4 8l-4 8l-4 8l-8 8l-8 8l-8 8l-8 8l-8 4l-8 4l-8 4l-8 4h-40l-8 -4l-8 -4l-8 -4l-8 -4l-8 -8l-8 -8l-8 -8l-8 -8l-4 -8l-4 -8l-4 -8v-64l4 -8l4 -8l4 -8l8 -8l8 -8l8 -8l8 -8l8 -4l8 -4l8 -4l8 -4h40zM136 244
l8 4l8 8l8 8l8 8l4 8v48l-4 8l-8 8l-8 8l-8 8l-8 4l-8 4h-24l-8 -4l-8 -4l-8 -8l-8 -8l-8 -8l-4 -8v-48l4 -8l8 -8l8 -8l8 -8l8 -4h40zM-44 376q-1 0 -2 1q-2 1 -2 3q0 1 2 2q1 2 2 2q2 0 3 -2q1 -1 1 -2q0 -2 -1 -3t-3 -1v0zM88 -4l-8 4l-8 4l-8 4l-8 4l-8 4l-8 8l-8 8
l-8 8l-8 8l-4 8l-4 8l-4 8l-4 8l-4 8v64l4 8l4 8l4 8l4 8l4 8l8 8l8 8l8 8l8 8l8 4l8 4l5 2l-5 6l-8 8l-8 8l-4 8l-4 8l-4 8v48l4 8l4 8l4 8l8 8l8 8l8 8l8 4l8 4l8 4h40l8 -4l8 -4l8 -4l8 -8l8 -8l8 -8l4 -8l4 -8l4 -8v-48l-4 -8l-4 -8l-4 -8l-8 -8l-8 -8l-6 -6l6 -2l8 -4
l8 -4l8 -8l8 -8l8 -8l8 -8l4 -8l4 -8l4 -8l4 -8l4 -8v-64l-4 -8l-4 -8l-4 -8l-4 -8l-4 -8l-8 -8l-8 -8l-8 -8l-8 -8l-8 -4l-8 -4l-8 -4l-8 -4l-8 -4h-56z" />
    <glyph glyph-name="nine" unicode="9" horiz-adv-x="280" 
d="M132 120l8 4l8 4l8 4l8 4l8 8l8 8l8 8l8 8l4 8l4 8l4 8v56l-4 8l-4 8l-4 8l-8 8l-8 8l-8 8l-8 8l-8 4l-8 4l-8 4l-8 4h-40l-8 -4l-8 -4l-8 -4l-8 -4l-8 -8l-8 -8l-8 -8l-8 -8l-4 -8l-4 -8l-4 -8v-56l4 -8l4 -8l4 -8l8 -8l8 -8l8 -8l8 -8l8 -4l8 -4l8 -4l8 -4h40zM36 -48
l-8 4v16l8 4h32l8 4l8 4l8 4l8 4l8 4l8 4l8 4l4 4l4 4l4 4l4 4l4 4l4 4l4 4l4 4l4 4l4 4l4 4l4 4l4 4l4 8l4 8l4 8l4 8l4 8l4 8l4 8l4 8v28l-4 -4l-8 -8l-8 -8l-8 -8l-8 -4l-8 -4l-8 -4l-8 -4l-8 -4h-56l-8 4l-8 4l-8 4l-8 4l-8 4l-8 8l-8 8l-8 8l-8 8l-4 8l-4 8l-4 8l-4 8
l-4 8v56l4 8l4 8l4 8l4 8l4 8l8 8l8 8l8 8l8 8l8 4l8 4l8 4l8 4l8 4h56l8 -4l8 -4l8 -4l8 -4l8 -4l8 -8l8 -8l8 -8l8 -8l4 -8l4 -8l4 -8l4 -8l4 -8v-128l-4 -8l-4 -8l-4 -8l-4 -8l-4 -8l-4 -8l-4 -8l-4 -8l-4 -8l-4 -8h-1l-3 -4l-4 -4h-1l-3 -4l-4 -4h-1l-3 -4l-4 -4h-1
l-3 -4l-4 -4h-1l-3 -4l-4 -4h-1l-3 -4l-4 -4h-1l-3 -4l-8 -4l-8 -4l-8 -4l-8 -4l-8 -4l-8 -4l-8 -4l-8 -4l-8 -4h-32z" />
    <glyph glyph-name="colon" unicode=":" horiz-adv-x="112" 
d="M24 0l-8 4l-8 4l-4 8l-4 8v8l4 8l4 8l8 4l8 4h8l8 -4l8 -4l4 -8l4 -8v-8l-4 -8l-4 -8l-8 -4l-8 -4h-8zM24 144l-8 4l-8 4l-4 8l-4 8v8l4 8l4 8l8 4l8 4h8l8 -4l8 -4l4 -8l4 -8v-8l-4 -8l-4 -8l-8 -4l-8 -4h-8z" />
    <glyph glyph-name="semicolon" unicode=";" horiz-adv-x="108" 
d="M0 -52v8l8 4l8 8l4 8l4 8v16l-8 4l-8 4l-4 8l-4 8v8l4 8l4 8l8 4l8 4h8l8 -4l8 -4l4 -8l4 -8l4 -8v-16l-4 -8l-4 -8l-4 -8l-8 -8l-8 -8l-8 -8l-8 -4l-8 -4l-8 -4v0zM24 144l-8 4l-8 4l-4 8l-4 8v8l4 8l4 8l8 4l8 4h8l8 -4l8 -4l4 -8l4 -8v-8l-4 -8l-4 -8l-8 -4l-8 -4h-8z
" />
    <glyph glyph-name="less" unicode="&#x3c;" horiz-adv-x="228" 
d="M164 84l-8 4l-8 4l-8 4l-8 4l-8 4l-8 4l-8 4l-8 4l-8 4l-8 4l-8 4l-8 4l-8 4l-8 4l-8 4l-8 4l-8 4l-8 4l-8 4l-8 4v0l-4 4l4 4l8 4l8 4l8 4l8 4l8 4l8 4l8 4l8 4l8 4l8 4l8 4l8 4l8 4l8 4l8 4l8 4l8 4l8 4l8 4l8 4l8 -4v-16l-8 -4l-8 -4l-8 -4l-8 -4l-8 -4l-8 -4l-8 -4
l-8 -4l-8 -4l-8 -4l-8 -4l-8 -4l-8 -4l-8 -4l-8 -4l-8 -4l8 -4l8 -4l8 -4l8 -4l8 -4l8 -4l8 -4l8 -4l8 -4l8 -4l8 -4l8 -4l8 -4l8 -4l8 -4l8 -4v-16l-8 -4v0z" />
    <glyph glyph-name="equal" unicode="=" horiz-adv-x="224" 
d="M8 132l-8 4v12l8 4h152l8 -4v-12l-8 -4h-152zM8 188l-8 4v12l8 4h152l8 -4v-12l-8 -4h-152z" />
    <glyph glyph-name="greater" unicode="&#x3e;" horiz-adv-x="220" 
d="M8 84l-8 4v16l8 4l8 4l8 4l8 4l8 4l8 4l8 4l8 4l8 4l8 4l8 4l8 4l8 4l8 4l8 4l8 4l-8 4l-8 4l-8 4l-8 4l-8 4l-8 4l-8 4l-8 4l-8 4l-8 4l-8 4l-8 4l-8 4l-8 4l-8 4l-8 4v16l8 4l8 -4l8 -4l8 -4l8 -4l8 -4l8 -4l8 -4l8 -4l8 -4l8 -4l8 -4l8 -4l8 -4l8 -4l8 -4l8 -4l8 -4
l8 -4l8 -4l8 -4v-1l3 -3h1h-1l-3 -4l-8 -4l-8 -4l-8 -4l-8 -4l-8 -4l-8 -4l-8 -4l-8 -4l-8 -4l-8 -4l-8 -4l-8 -4l-8 -4l-8 -4l-8 -4l-8 -4l-8 -4l-8 -4l-8 -4l-8 -4v0z" />
    <glyph glyph-name="question" unicode="?" horiz-adv-x="240" 
d="M88 0l-8 4l-8 4l-4 8l-4 8v8l4 8l4 8l8 4l8 4h8l8 -4l8 -4l4 -8l4 -8v-8l-4 -8l-4 -8l-8 -4l-8 -4h-8zM84 80l-4 8v64l4 8l4 8l8 8l8 4l8 4l8 4l8 4l8 8l8 8l8 8l4 8l4 8v40l-4 8l-4 8l-8 8l-8 8l-8 8l-8 4l-8 4h-48l-8 -4l-8 -4l-8 -4l8 -4l4 -8l4 -8v-8l-4 -8l-4 -8
l-8 -4l-8 -4h-8l-8 4l-8 4l-4 8l-4 8v8l4 8l4 8l8 8l8 8l8 4l8 4l8 4l8 4l8 4h48l8 -4l8 -4l8 -4l8 -4l8 -4l8 -8l8 -8l4 -8l4 -8l4 -8l4 -8v-40l-4 -8l-4 -8l-4 -8l-4 -8l-8 -8l-8 -8l-8 -4l-8 -4l-8 -4l-8 -4l-8 -8l-4 -8l-4 -8v-56l-4 -8h-16z" />
    <glyph glyph-name="at" unicode="@" horiz-adv-x="288" 
d="M112 104l8 4l8 4l4 8l4 8l4 8l4 8v48l-4 8l-4 4l-8 4h-8l-8 -4l-8 -4l-4 -8l-4 -8l-4 -8l-4 -8v-48l4 -8l4 -4l8 -4h8zM80 0l-8 4l-8 4l-8 4l-8 4l-8 8l-8 8l-8 8l-8 8l-4 8l-4 8l-4 8l-4 8v104l4 8l4 8l4 8l4 8l4 8l4 8l4 8l4 8l8 8l8 8l8 8l8 8l8 4l8 4l8 4l8 4l8 4
l8 4h40l8 -4l8 -4l8 -4l8 -4l8 -8l8 -8l8 -8l8 -8l4 -8l4 -8l4 -8l4 -8v-112l-4 -8h-1l-3 -4l-4 -4h-1l-3 -4l-8 -4l-8 -4h-16l-8 4l-8 4v0l-4 4l-4 4v0l-4 4l-4 8l-8 -8l-8 -8l-8 -4l-8 -4h-24l-8 4l-8 4l-8 8l-4 8l-4 8v48l4 8l4 8l4 8l4 8l8 8l8 8l8 4l8 4h24l8 -4l8 -4
l8 -8l4 -8l4 -8v-64l4 -8l4 -8l8 -8h8l8 4l4 4l4 8v104l-4 8l-4 8l-4 8l-4 8l-8 8l-8 8l-8 4l-8 4l-8 4h-40l-8 -4l-8 -4l-8 -4l-8 -4l-4 -4h-1l-3 -4l-4 -4h-1l-3 -4l-4 -4h-1l-3 -4l-4 -4l-4 -8l-4 -8l-4 -8l-4 -8l-4 -8l-4 -8l-4 -8v-104l4 -8l4 -8l4 -8l4 -8l8 -8l8 -8
l8 -4l8 -4l8 -4h80l8 4l8 4l8 4l8 4l8 4l8 4l8 4l8 4l8 -4v-8l-8 -8l-8 -4l-8 -4l-8 -4l-8 -4l-8 -4l-8 -4l-8 -4l-8 -4h-80z" />
    <glyph glyph-name="A" unicode="A" horiz-adv-x="456" 
d="M302 100l-2 4l-4 8l-4 8l-4 8l-4 8l-4 8l-4 8l-4 8l-4 8l-4 8l-4 8l-4 8l-4 8l-4 8l-4 8l-4 8l-4 8l-4 8l-4 8l-4 8l-4 8l-4 8l-4 8l-4 8l-4 8l-4 8l-4 -8l-4 -8l-4 -8l-4 -8l-4 -8l-4 -8l-4 -8l-4 -8l-4 -8l-4 -8l-4 -8l-4 -8l-4 -8l-4 -8l-4 -8l-4 -8l-4 -8l-4 -8
l-4 -8l-4 -8l-4 -8l-4 -8l-4 -8l-4 -8l-4 -8l-2 -4h204zM8 0l-8 4v12l8 4h24l4 4l4 8l4 8l4 8l4 8l4 8l4 8l4 8l4 8l4 8l4 8l4 8l4 8l4 8l4 8l4 8l4 8l4 8l4 8l4 8l4 8l4 8l4 8l4 8l4 8l4 8l4 8l4 8l4 8l4 8l4 8l4 8l4 8l4 8l4 8l4 8l4 8l4 8l4 8l4 4l8 4l8 -4v-1l4 -3l4 -8
l4 -8l4 -8l4 -8l4 -8l4 -8l4 -8l4 -8l4 -8l4 -8l4 -8l4 -8l4 -8l4 -8l4 -8l4 -8l4 -8l4 -8l4 -8l4 -8l4 -8l4 -8l4 -8l4 -8l4 -8l4 -8l4 -8l4 -8l4 -8l4 -8l4 -8l4 -8l4 -8l4 -8l4 -8l4 -8l4 -8l4 -8l4 -4h24l8 -4v-12l-8 -4h-80l-8 4v12l8 4h30l-2 4l-4 8l-4 8l-4 8l-4 8
l-4 8l-4 8l-4 8h-224l-4 -8l-4 -8l-4 -8l-4 -8l-4 -8l-4 -8l-4 -8l-2 -4h30l8 -4v-12l-8 -4h-80z" />
    <glyph glyph-name="B" unicode="B" horiz-adv-x="324" 
d="M208 20l8 4l8 4l4 4l4 4l4 4l4 4l4 4l4 8l4 8v48l-4 8l-4 8l-4 4v0l-4 4l-4 4v0l-4 4l-4 4l-8 4l-8 4l-8 4l-8 4l-8 4h-112v-148h136zM192 188l8 4l8 4l4 4l4 4l4 4l4 4l4 4l4 8l4 8v40l-4 8l-4 8l-4 4v0l-4 4l-4 4v0l-4 4l-4 4l-8 4l-8 4h-120v-128h120zM8 0l-8 4v12
l8 4h40v296h-40l-8 4v12l8 4h184l8 -4l8 -4l8 -4l8 -4l8 -8l8 -8l8 -8l4 -8l4 -8l4 -8v-40l-4 -8l-4 -8l-4 -8l-8 -8l-8 -8l-8 -8l-8 -4l-8 -4l8 -4l8 -4l8 -4l8 -4l8 -8l8 -8l8 -8l4 -8l4 -8l4 -8v-48l-4 -8l-4 -8l-4 -8l-8 -8l-8 -8l-8 -8l-8 -4l-8 -4l-8 -4l-8 -4h-200z
" />
    <glyph glyph-name="C" unicode="C" horiz-adv-x="320" 
d="M100 -4l-8 4l-8 4l-8 4l-8 4l-8 4l-8 8l-8 8l-8 8l-8 8l-4 8l-4 8l-4 8l-4 8l-4 8l-4 8l-4 8v128l4 8l4 8l4 8l4 8l4 8l4 8l4 8l8 8l8 8l8 8l8 8l8 4l8 4l8 4l8 4l8 4h72l8 -4l8 -4l8 -4l8 -4l8 -4l8 -8l8 -8l8 -8h4v32l4 8h16l4 -8v-112l-4 -8h-16l-4 8v32l-4 8l-4 8
l-4 8l-4 8l-4 4v0l-4 4l-4 4v0l-4 4l-4 4l-8 4l-8 4l-8 4l-8 4l-8 4h-56l-8 -4l-8 -4l-8 -4l-8 -4l-8 -4l-4 -4h-1l-3 -4l-4 -4h-1l-3 -4l-4 -4l-4 -8l-4 -8l-4 -8l-4 -8l-4 -8l-4 -8v-128l4 -8l4 -8l4 -8l4 -8l4 -8l4 -8l4 -4v-1l4 -3l4 -4v-1l4 -3l4 -4l8 -4l8 -4l8 -4
l8 -4l8 -4h56l8 4l8 4l8 4l8 4l8 4l4 4l4 4l4 4l4 4l4 4l4 8l4 8l4 8v8l8 4h8l8 -4v-8l-4 -8l-4 -8l-4 -8l-4 -8l-8 -8l-8 -8l-8 -8l-8 -8l-8 -4l-8 -4l-8 -4l-8 -4l-8 -4h-72z" />
    <glyph glyph-name="D" unicode="D" horiz-adv-x="332" 
d="M176 20l8 4l8 4l8 4l8 4l4 4l4 4l4 4l4 4l4 4l4 8l4 8l4 8l4 8l4 8l4 8v128l-4 8l-4 8l-4 8l-4 8l-4 8l-4 8l-4 4v0l-4 4l-4 4v0l-4 4l-4 4l-8 4l-8 4l-8 4l-8 4h-104v-296h104zM8 0l-8 4v12l8 4h40v296h-40l-8 4v12l8 4h176l8 -4l8 -4l8 -4l8 -4l8 -8l8 -8l8 -8l8 -8
l4 -8l4 -8l4 -8l4 -8l4 -8l4 -8l4 -8v-128l-4 -8l-4 -8l-4 -8l-4 -8l-4 -8l-4 -8l-4 -8l-8 -8l-8 -8l-8 -8l-8 -8l-8 -4l-8 -4l-8 -4l-8 -4h-176z" />
    <glyph glyph-name="E" unicode="E" horiz-adv-x="328" 
d="M8 0l-8 4v12l8 4h40v296h-40l-8 4v12l8 4h256q3 0 5 -3q3 -2 3 -5v-112l-4 -8h-16l-4 8v100h-176v-128h76v36l4 8h16l4 -8v-96l-4 -8h-16l-4 8v40h-76v-148h176v100l4 8h16l4 -8v-112q0 -4 -3 -6q-2 -2 -5 -2h-256z" />
    <glyph glyph-name="F" unicode="F" horiz-adv-x="328" 
d="M8 0l-8 4v12l8 4h40v296h-40l-8 4v12l8 4h256q3 0 5 -3q3 -2 3 -5v-112l-4 -8h-16l-4 8v100h-176v-128h76v36l4 8h16l4 -8v-96l-4 -8h-16l-4 8v40h-76v-148h40l8 -4v-12l-8 -4h-104z" />
    <glyph glyph-name="G" unicode="G" horiz-adv-x="364" 
d="M100 -4l-8 4l-8 4l-8 4l-8 4l-8 4l-8 8l-8 8l-8 8l-8 8l-4 8l-4 8l-4 8l-4 8l-4 8l-4 8l-4 8v128l4 8l4 8l4 8l4 8l4 8l4 8l4 8l8 8l8 8l8 8l8 8l8 4l8 4l8 4l8 4l8 4h72l8 -4l8 -4l8 -4l8 -4l8 -4l8 -8l8 -8l8 -8h4v32l4 8h16l4 -8v-112l-4 -8h-12l-4 8v24l-4 8l-4 8
l-4 8l-4 8l-4 8l-4 4v0l-4 4l-4 4v0l-4 4l-4 4l-8 4l-8 4l-8 4l-8 4l-8 4h-56l-8 -4l-8 -4l-8 -4l-8 -4l-8 -4l-4 -4h-1l-3 -4l-4 -4h-1l-3 -4l-4 -4l-4 -8l-4 -8l-4 -8l-4 -8l-4 -8l-4 -8v-128l4 -8l4 -8l4 -8l4 -8l4 -8l4 -8l4 -4v-1l4 -3l4 -4v-1l4 -3l4 -4l8 -4l8 -4
l8 -4l8 -4l8 -4h56l8 4l8 4l8 4l8 4l8 4l4 4l4 4l4 4l4 4l4 4l4 8l4 8l4 8l4 8v24h-36l-8 4v12l8 4h96l8 -4v-12l-8 -4h-36v-104l-4 -8h-16l-4 8v32h-4l-8 -8l-8 -8l-8 -8l-8 -4l-8 -4l-8 -4l-8 -4l-8 -4h-72z" />
    <glyph glyph-name="H" unicode="H" horiz-adv-x="352" 
d="M8 0l-8 4v12l8 4h40v296h-40l-8 4v12l8 4h104l8 -4v-12l-8 -4h-40v-128h152v128h-40l-8 4v12l8 4h104l8 -4v-12l-8 -4h-40v-296h40l8 -4v-12l-8 -4h-104l-8 4v12l8 4h40v148h-152v-148h40l8 -4v-12l-8 -4h-104z" />
    <glyph glyph-name="I" unicode="I" horiz-adv-x="272" 
d="M8 0l-8 4v12l8 4h88v296h-88l-8 4v12l8 4h200l8 -4v-12l-8 -4h-88v-296h88l8 -4v-12l-8 -4h-200z" />
    <glyph glyph-name="J" unicode="J" horiz-adv-x="336" 
d="M72 -4l-8 4l-8 4l-8 4l-8 8l-8 8l-8 8l-8 8l-4 8l-4 8l-4 8l-4 8v24l4 8l4 8l8 4l8 4h8l8 -4l8 -4l4 -8l4 -8v-8l-4 -8l-4 -8l-8 -4l-8 -4v-8l4 -8l4 -4v-1l4 -3l4 -4v-1l4 -3l4 -4l8 -4l8 -4l8 -4h48l8 4l8 4l8 4l4 4l4 4l4 4l4 4l4 4l4 8l4 8l4 8l4 8v236h-60l-8 4v12
l8 4h144l8 -4v-12l-8 -4h-60v-236l-4 -8l-4 -8l-4 -8l-4 -8l-4 -8l-8 -8l-8 -8l-8 -8l-8 -8l-8 -4l-8 -4l-8 -4h-64z" />
    <glyph glyph-name="K" unicode="K" horiz-adv-x="344" 
d="M8 0l-8 4v12l8 4h40v296h-40l-8 4v12l8 4h104l8 -4v-12l-8 -4h-40v-128l4 4l4 4l4 4l4 4l4 4l4 4l4 4l4 4l4 4l4 4l4 4l4 4l4 4l4 4l4 4l4 4l4 4l4 4l4 4l4 4l4 4l4 4l4 4l4 4l4 4l4 4l4 4l4 4l4 4l4 4l4 4l4 4h-40l-8 4v12l8 4h104l8 -4v-12l-8 -4h-36l-4 -4l-8 -8
l-8 -8l-8 -8l-8 -8l-8 -8l-8 -8l-8 -8l-8 -8l-8 -8l-8 -8l-8 -8l4 -8l4 -8l4 -8l4 -8l4 -8l4 -8l4 -8l4 -8l4 -8l4 -8l4 -8l4 -8l4 -8l4 -8l4 -8l4 -8l4 -8l4 -8l4 -8l4 -8l4 -8l4 -8l4 -8l4 -8l4 -8l2 -4h42l8 -4v-12l-8 -4h-112l-8 4v12l8 4h46l-2 4l-4 8l-4 8l-4 8l-4 8
l-4 8l-4 8l-4 8l-4 8l-4 8l-4 8l-4 8l-4 8l-4 8l-4 8l-4 8l-4 8l-4 8l-4 8l-4 8l-4 8l-4 8l-4 8l-4 8l-8 -8l-8 -8l-8 -8l-8 -8l-8 -8l-8 -8v-140h40l8 -4v-12l-8 -4h-104z" />
    <glyph glyph-name="L" unicode="L" horiz-adv-x="328" 
d="M8 0l-8 4v12l8 4h40v296h-40l-8 4v12l8 4h104l8 -4v-12l-8 -4h-40v-296h180v100l4 8h12l4 -8v-112q0 -4 -3 -6q-2 -2 -5 -2h-256z" />
    <glyph glyph-name="M" unicode="M" horiz-adv-x="392" 
d="M8 0l-8 4v12l8 4h40v296h-40l-8 4v12l8 4h72l4 -8l4 -8l4 -8l4 -8l4 -8l4 -8l4 -8l4 -8l4 -8l4 -8l4 -8l4 -8l4 -8l4 -8l4 -8l4 -8l4 -8l4 -8l4 -8l4 -8l4 -8l4 -8l4 8l4 8l4 8l4 8l4 8l4 8l4 8l4 8l4 8l4 8l4 8l4 8l4 8l4 8l4 8l4 8l4 8l4 8l4 8l4 8l4 8l4 8h72l8 -4
v-12l-8 -4h-40v-296h40l8 -4v-12l-8 -4h-104l-8 4v12l8 4h40v284l-4 -8l-4 -8l-4 -8l-4 -8l-4 -8l-4 -8l-4 -8l-4 -8l-4 -8l-4 -8l-4 -8l-4 -8l-4 -8l-4 -8l-4 -8l-4 -8l-4 -8l-4 -8l-4 -8l-4 -8l-4 -8l-4 -8h-16l-4 8l-4 8l-4 8l-4 8l-4 8l-4 8l-4 8l-4 8l-4 8l-4 8l-4 8
l-4 8l-4 8l-4 8l-4 8l-4 8l-4 8l-4 8l-4 8l-4 8l-4 8l-4 8v-284h40l8 -4v-12l-8 -4h-104z" />
    <glyph glyph-name="N" unicode="N" horiz-adv-x="352" 
d="M8 0l-8 4v12l8 4h40v296h-40l-8 4v12l8 4h72l4 -8l4 -8l4 -8l4 -8l4 -8l4 -8l4 -8l4 -8l4 -8l4 -8l4 -8l4 -8l4 -8l4 -8l4 -8l4 -8l4 -8l4 -8l4 -8l4 -8l4 -8l4 -8l4 -8l4 -8l4 -8l4 -8l4 -8l4 -8l4 -8l4 -8l4 -8l4 -8l4 -8l4 -8l4 -8l4 -8v268h-40l-8 4v12l8 4h104l8 -4
v-12l-8 -4h-40v-308l-4 -8h-20l-4 8l-4 8l-4 8l-4 8l-4 8l-4 8l-4 8l-4 8l-4 8l-4 8l-4 8l-4 8l-4 8l-4 8l-4 8l-4 8l-4 8l-4 8l-4 8l-4 8l-4 8l-4 8l-4 8l-4 8l-4 8l-4 8l-4 8l-4 8l-4 8l-4 8l-4 8l-4 8l-4 8l-4 8l-4 8l-4 8l-4 8l-4 8v-284h40l8 -4v-12l-8 -4h-104z" />
    <glyph glyph-name="O" unicode="O" horiz-adv-x="328" 
d="M164 16l8 4l8 4l8 4l8 4l8 4l4 4l4 4l4 4l4 4l4 4l4 8l4 8l4 8l4 8l4 8l4 8v128l-4 8l-4 8l-4 8l-4 8l-4 8l-4 8l-4 4v0l-4 4l-4 4v0l-4 4l-4 4l-8 4l-8 4l-8 4l-8 4l-8 4h-56l-8 -4l-8 -4l-8 -4l-8 -4l-8 -4l-4 -4h-1l-3 -4l-4 -4h-1l-3 -4l-4 -4l-4 -8l-4 -8l-4 -8
l-4 -8l-4 -8l-4 -8v-128l4 -8l4 -8l4 -8l4 -8l4 -8l4 -8l4 -4v-1l4 -3l4 -4v-1l4 -3l4 -4l8 -4l8 -4l8 -4l8 -4l8 -4h56zM100 -4l-8 4l-8 4l-8 4l-8 4l-8 4l-8 8l-8 8l-8 8l-8 8l-4 8l-4 8l-4 8l-4 8l-4 8l-4 8l-4 8v128l4 8l4 8l4 8l4 8l4 8l4 8l4 8l8 8l8 8l8 8l8 8l8 4
l8 4l8 4l8 4l8 4h72l8 -4l8 -4l8 -4l8 -4l8 -4l8 -8l8 -8l8 -8l8 -8l4 -8l4 -8l4 -8l4 -8l4 -8l4 -8l4 -8v-128l-4 -8l-4 -8l-4 -8l-4 -8l-4 -8l-4 -8l-4 -8l-8 -8l-8 -8l-8 -8l-8 -8l-8 -4l-8 -4l-8 -4l-8 -4l-8 -4h-72z" />
    <glyph glyph-name="P" unicode="P" horiz-adv-x="316" 
d="M192 188l8 4l8 4l4 4l4 4l4 4l4 4l4 4l4 8l4 8v40l-4 8l-4 8l-4 4v0l-4 4l-4 4v0l-4 4l-4 4l-8 4l-8 4h-120v-128h120zM8 0l-8 4v12l8 4h40v296h-40l-8 4v12l8 4h184l8 -4l8 -4l8 -4l8 -4l8 -8l8 -8l8 -8l4 -8l4 -8l4 -8v-40l-4 -8l-4 -8l-4 -8l-8 -8l-8 -8l-8 -8l-8 -4
l-8 -4l-8 -4l-8 -4h-120v-148h40l8 -4v-12l-8 -4h-104z" />
    <glyph glyph-name="Q" unicode="Q" horiz-adv-x="356" 
d="M164 16l8 4l8 4l8 4l8 4l8 4l4 2v18l-4 8l-4 8l-4 8l-4 8l-4 4v0l-4 4l-4 4l-8 4l-8 4l-8 4l-8 4h-24l-8 -4l-8 -4l-8 -4l-8 -4l-4 -4h-1l-3 -4l-4 -4l-4 -8l-4 -8l-4 -8l-4 -8v-16l4 -4l8 -4l8 -4l8 -4l8 -4l8 -4h56zM228 64l4 8l4 8l4 8l4 8l4 8v128l-4 8l-4 8l-4 8
l-4 8l-4 8l-4 8l-4 4v0l-4 4l-4 4v0l-4 4l-4 4l-8 4l-8 4l-8 4l-8 4l-8 4h-56l-8 -4l-8 -4l-8 -4l-8 -4l-8 -4l-4 -4h-1l-3 -4l-4 -4h-1l-3 -4l-4 -4l-4 -8l-4 -8l-4 -8l-4 -8l-4 -8l-4 -8v-128l4 -8l4 -8l4 -8l4 -8l4 -8l4 8l4 8l4 8l4 8l8 8l8 8l8 8l8 4l8 4l8 4l8 4h40
l8 -4l8 -4l8 -4l8 -4l8 -8l8 -8l8 -8l4 -8l4 -8l4 -8l4 -8v0zM252 -56l-8 4l-8 4l-8 8l-8 8l-4 8l-4 8l-4 8v22l-4 -2l-8 -4l-8 -4l-8 -4l-8 -4h-72l-8 4l-8 4l-8 4l-8 4l-8 4l-8 8l-8 8l-8 8l-8 8l-4 8l-4 8l-4 8l-4 8l-4 8l-4 8l-4 8v128l4 8l4 8l4 8l4 8l4 8l4 8l4 8l8 8
l8 8l8 8l8 8l8 4l8 4l8 4l8 4l8 4h72l8 -4l8 -4l8 -4l8 -4l8 -4l8 -8l8 -8l8 -8l8 -8l4 -8l4 -8l4 -8l4 -8l4 -8l4 -8l4 -8v-128l-4 -8l-4 -8l-4 -8l-4 -8l-4 -8l-4 -8l-4 -8l-8 -8l-4 -4v-52l4 -8l8 -8l8 -4h16l8 4l8 8l4 8v16l4 8h12l4 -8v-16l-4 -8l-4 -8l-8 -8l-8 -8
l-8 -4l-8 -4h-16z" />
    <glyph glyph-name="R" unicode="R" horiz-adv-x="344" 
d="M192 188l8 4l8 4l4 4l4 4l4 4l4 4l4 4l4 8l4 8v40l-4 8l-4 8l-4 4v0l-4 4l-4 4v0l-4 4l-4 4l-8 4l-8 4h-124v-128h124zM8 0l-8 4v12l8 4h36v296h-36l-8 4v12l8 4h184l8 -4l8 -4l8 -4l8 -4l8 -8l8 -8l8 -8l4 -8l4 -8l4 -8v-40l-4 -8l-4 -8l-4 -8l-8 -8l-8 -8l-8 -8l-8 -4
l-8 -4l-8 -4l-8 -4h-8l8 -8l8 -8l8 -8l4 -8l4 -8l4 -8l4 -8l4 -8l4 -8l4 -8l4 -8v-60h40l8 -4v-12l-8 -4h-56q-4 0 -6 2t-2 6v72l-4 8l-4 8l-4 8l-4 8l-4 8l-4 8l-4 8l-4 4v0l-4 4l-4 4v0l-4 4l-4 4v0l-4 4l-4 4v0l-4 4h-88v-148h44l8 -4v-12l-8 -4h-104z" />
    <glyph glyph-name="S" unicode="S" horiz-adv-x="296" 
d="M88 -4l-8 4l-8 4l-8 4l-8 8l-8 8h-4v-16l-4 -8h-16l-4 8v96l4 8h16l4 -8v-32l4 -8l4 -8l4 -8l4 -8l4 -4v-1l4 -3l4 -4l8 -4l8 -4l8 -4h72l8 4l8 4l8 4l4 4l4 4l4 4l4 8l4 8l4 8v48l-4 8l-4 8l-4 8l-4 4v0l-4 4l-4 4l-8 4l-8 4l-8 4l-8 4h-96l-8 4l-8 4l-8 4l-8 8l-8 8
l-8 8l-4 8l-4 8l-4 8l-4 8v40l4 8l4 8l4 8l4 8l8 8l8 8l8 8l8 4l8 4l8 4h88l8 -4l8 -4l8 -4l8 -8l8 -8h4v16l4 8h16l4 -8v-96l-4 -8h-16l-4 8v32l-4 8l-4 8l-4 8l-4 8l-4 4v0l-4 4l-4 4l-8 4l-8 4l-8 4h-72l-8 -4l-8 -4l-8 -4l-4 -4h-1l-3 -4l-4 -4l-4 -8l-4 -8l-4 -8v-40
l4 -8l4 -8l4 -8l4 -4v-1l4 -3l4 -4l8 -4l8 -4l8 -4h96l8 -4l8 -4l8 -4l8 -4l8 -8l8 -8l8 -8l4 -8l4 -8l4 -8l4 -8v-48l-4 -8l-4 -8l-4 -8l-4 -8l-8 -8l-8 -8l-8 -8l-8 -4l-8 -4l-8 -4h-88z" />
    <glyph glyph-name="T" unicode="T" horiz-adv-x="336" 
d="M40 0l-8 4v12l8 4h88v296h-104v-100l-4 -8h-16l-4 8v112q0 3 2 5q2 3 6 3h264q3 0 5 -3q3 -2 3 -5v-112l-4 -8h-16l-4 8v100h-104v-296h88l8 -4v-12l-8 -4h-200z" />
    <glyph glyph-name="U" unicode="U" horiz-adv-x="376" 
d="M120 -4l-8 4l-8 4l-8 4l-8 8l-8 8l-8 8l-8 8l-4 8l-4 8l-4 8l-4 8v244h-40l-8 4v12l8 4h104l8 -4v-12l-8 -4h-40v-244l4 -8l4 -8l4 -8l4 -4v-1l4 -3l4 -4v-1l4 -3l4 -4l8 -4l8 -4l8 -4h64l8 4l8 4l8 4l4 4l4 4l4 4l4 4l4 4l4 8l4 8l4 8v244h-40l-8 4v12l8 4h104l8 -4v-12
l-8 -4h-40v-244l-4 -8l-4 -8l-4 -8l-4 -8l-8 -8l-8 -8l-8 -8l-8 -8l-8 -4l-8 -4l-8 -4h-80z" />
    <glyph glyph-name="V" unicode="V" horiz-adv-x="456" 
d="M192 0l-4 8l-4 8l-4 8l-4 8l-4 8l-4 8l-4 8l-4 8l-4 8l-4 8l-4 8l-4 8l-4 8l-4 8l-4 8l-4 8l-4 8l-4 8l-4 8l-4 8l-4 8l-4 8l-4 8l-4 8l-4 8l-4 8l-4 8l-4 8l-4 8l-4 8l-4 8l-4 8l-4 8l-4 8l-4 8l-4 8l-4 8l-4 8l-4 8l-2 4h-26l-8 4v12l8 4h88l8 -4v-12l-8 -4h-38l2 -4
l4 -8l4 -8l4 -8l4 -8l4 -8l4 -8l4 -8l4 -8l4 -8l4 -8l4 -8l4 -8l4 -8l4 -8l4 -8l4 -8l4 -8l4 -8l4 -8l4 -8l4 -8l4 -8l4 -8l4 -8l4 -8l4 -8l4 -8l4 -8l4 -8l4 -8l4 -8l4 -8l4 -8l4 -8l4 -8l4 8l4 8l4 8l4 8l4 8l4 8l4 8l4 8l4 8l4 8l4 8l4 8l4 8l4 8l4 8l4 8l4 8l4 8l4 8
l4 8l4 8l4 8l4 8l4 8l4 8l4 8l4 8l4 8l4 8l4 8l4 8l4 8l4 8l4 8l4 8l2 4h-30l-8 4v12l8 4h80l8 -4v-12l-8 -4h-26l-2 -4l-4 -8l-4 -8l-4 -8l-4 -8l-4 -8l-4 -8l-4 -8l-4 -8l-4 -8l-4 -8l-4 -8l-4 -8l-4 -8l-4 -8l-4 -8l-4 -8l-4 -8l-4 -8l-4 -8l-4 -8l-4 -8l-4 -8l-4 -8
l-4 -8l-4 -8l-4 -8l-4 -8l-4 -8l-4 -8l-4 -8l-4 -8l-4 -8l-4 -8l-4 -8l-4 -8l-4 -8l-4 -8l-4 -8l-4 -8h-16z" />
    <glyph glyph-name="W" unicode="W" horiz-adv-x="584" 
d="M192 0l-4 8l-4 8l-4 8l-4 8l-4 8l-4 8l-4 8l-4 8l-4 8l-4 8l-4 8l-4 8l-4 8l-4 8l-4 8l-4 8l-4 8l-4 8l-4 8l-4 8l-4 8l-4 8l-4 8l-4 8l-4 8l-4 8l-4 8l-4 8l-4 8l-4 8l-4 8l-4 8l-4 8l-4 8l-4 8l-4 8l-4 8l-4 8l-4 8l-2 4h-26l-8 4v12l8 4h80l8 -4v-12l-8 -4h-30l2 -4
l4 -8l4 -8l4 -8l4 -8l4 -8l4 -8l4 -8l4 -8l4 -8l4 -8l4 -8l4 -8l4 -8l4 -8l4 -8l4 -8l4 -8l4 -8l4 -8l4 -8l4 -8l4 -8l4 -8l4 -8l4 -8l4 -8l4 -8l4 -8l4 -8l4 -8l4 -8l4 -8l4 -8l4 8l4 8l4 8l4 8l4 8l4 8l4 8l4 8l4 8l4 8l4 8l4 8l4 8l4 8l4 8l4 8h16l4 -8l4 -8l4 -8l4 -8
l4 -8l4 -8l4 -8l4 -8l4 -8l4 -8l4 -8l4 -8l4 -8l4 -8l4 -8l4 -8l4 8l4 8l4 8l4 8l4 8l4 8l4 8l4 8l4 8l4 8l4 8l4 8l4 8l4 8l4 8l4 8l4 8l4 8l4 8l4 8l4 8l4 8l4 8l4 8l4 8l4 8l4 8l4 8l4 8l4 8l4 8l4 8l4 8l2 4h-30l-8 4v12l8 4h80l8 -4v-12l-8 -4h-26l-2 -4l-4 -8l-4 -8
l-4 -8l-4 -8l-4 -8l-4 -8l-4 -8l-4 -8l-4 -8l-4 -8l-4 -8l-4 -8l-4 -8l-4 -8l-4 -8l-4 -8l-4 -8l-4 -8l-4 -8l-4 -8l-4 -8l-4 -8l-4 -8l-4 -8l-4 -8l-4 -8l-4 -8l-4 -8l-4 -8l-4 -8l-4 -8l-4 -8l-4 -8l-4 -8l-4 -8l-4 -8l-4 -8l-4 -8l-4 -8l-4 8l-4 8l-4 8l-4 8l-4 8l-4 8
l-4 8l-4 8l-4 8l-4 8l-4 8l-4 8l-4 8l-4 8l-4 8l-4 8l-4 8l-4 8l-4 -8l-4 -8l-4 -8l-4 -8l-4 -8l-4 -8l-4 -8l-4 -8l-4 -8l-4 -8l-4 -8l-4 -8l-4 -8l-4 -8l-4 -8l-4 -8l-4 -8l-4 -8v0z" />
    <glyph glyph-name="X" unicode="X" horiz-adv-x="328" 
d="M8 0l-8 4v12l8 4h34l2 4l4 8l4 8l4 8l4 8l4 8l4 8l4 8l4 8l4 8l4 8l4 8l4 8l4 8l4 8l4 8l4 8l4 8l4 8l4 8l-4 8l-4 8l-4 8l-4 8l-4 8l-4 8l-4 8l-4 8l-4 8l-4 8l-4 8l-4 8l-4 8l-4 8l-4 8l-4 8l-4 8l-2 4h-34l-8 4v12l8 4h96l8 -4v-12l-8 -4h-38l2 -4l4 -8l4 -8l4 -8
l4 -8l4 -8l4 -8l4 -8l4 -8l4 -8l4 -8l4 -8l4 -8l4 -8l4 -8l4 8l4 8l4 8l4 8l4 8l4 8l4 8l4 8l4 8l4 8l4 8l4 8l4 8l4 8l2 4h-38l-8 4v12l8 4h96l8 -4v-12l-8 -4h-34l-2 -4l-4 -8l-4 -8l-4 -8l-4 -8l-4 -8l-4 -8l-4 -8l-4 -8l-4 -8l-4 -8l-4 -8l-4 -8l-4 -8l-4 -8l-4 -8
l-4 -8l-4 -8l4 -8l4 -8l4 -8l4 -8l4 -8l4 -8l4 -8l4 -8l4 -8l4 -8l4 -8l4 -8l4 -8l4 -8l4 -8l4 -8l4 -8l4 -8l4 -8l2 -4h42l8 -4v-12l-8 -4h-104l-8 4v12l8 4h38l-2 4l-4 8l-4 8l-4 8l-4 8l-4 8l-4 8l-4 8l-4 8l-4 8l-4 8l-4 8l-4 8l-4 8l-4 8l-4 8l-4 8l-4 -8l-4 -8l-4 -8
l-4 -8l-4 -8l-4 -8l-4 -8l-4 -8l-4 -8l-4 -8l-4 -8l-4 -8l-4 -8l-4 -8l-4 -8l-4 -8l-2 -4h46l8 -4v-12l-8 -4h-104z" />
    <glyph glyph-name="Y" unicode="Y" horiz-adv-x="304" 
d="M24 0l-8 4v12l8 4h88v156l-4 8l-4 8l-4 8l-4 8l-4 8l-4 8l-4 8l-4 8l-4 8l-4 8l-4 8l-4 8l-4 8l-4 8l-4 8l-4 8l-4 8l-2 4h-34l-8 4v12l8 4h96l8 -4v-12l-8 -4h-38l2 -4l4 -8l4 -8l4 -8l4 -8l4 -8l4 -8l4 -8l4 -8l4 -8l4 -8l4 -8l4 -8l4 -8l4 -8l4 8l4 8l4 8l4 8l4 8l4 8
l4 8l4 8l4 8l4 8l4 8l4 8l4 8l4 8l2 4h-38l-8 4v12l8 4h96l8 -4v-12l-8 -4h-34l-2 -4l-4 -8l-4 -8l-4 -8l-4 -8l-4 -8l-4 -8l-4 -8l-4 -8l-4 -8l-4 -8l-4 -8l-4 -8l-4 -8l-4 -8l-4 -8l-4 -8l-4 -8v-156h88l8 -4v-12l-8 -4h-200z" />
    <glyph glyph-name="Z" unicode="Z" horiz-adv-x="240" 
d="M8 0q-4 0 -6 2t-2 6v8l4 8l4 8l4 8l4 8l4 8l4 8l4 8l4 8l4 8l4 8l4 8l4 8l4 8l4 8l4 8l4 8l4 8l4 8l4 8l4 8l4 8l4 8l4 8l4 8l4 8l4 8l4 8l4 8l4 8l4 8l4 8l4 8l4 8l4 8l4 8l4 8l4 8l2 4h-126v-84l-4 -8h-16l-4 8v96q0 3 2 5q2 3 6 3h160q3 0 5 -3q3 -2 3 -5v-8l-4 -8
l-4 -8l-4 -8l-4 -8l-4 -8l-4 -8l-4 -8l-4 -8l-4 -8l-4 -8l-4 -8l-4 -8l-4 -8l-4 -8l-4 -8l-4 -8l-4 -8l-4 -8l-4 -8l-4 -8l-4 -8l-4 -8l-4 -8l-4 -8l-4 -8l-4 -8l-4 -8l-4 -8l-4 -8l-4 -8l-4 -8l-4 -8l-4 -8l-4 -8l-4 -8l-4 -8l-4 -8l-2 -4h134v84l4 8h16l4 -8v-96
q0 -4 -3 -6q-2 -2 -5 -2h-168z" />
    <glyph glyph-name="bracketleft" unicode="[" horiz-adv-x="152" 
d="M8 -64q-4 0 -6 3q-2 2 -2 5v448q0 3 2 5q2 3 6 3h80l8 -4v-12l-8 -4h-64v-424h64l8 -4v-12l-8 -4h-80z" />
    <glyph glyph-name="backslash" unicode="\" horiz-adv-x="232" 
d="M168 0l-4 4v0l-4 4l-4 8l-4 8l-4 8l-4 8l-4 8l-4 8l-4 8l-4 8l-4 8l-4 8l-4 8l-4 8l-4 8l-4 8l-4 8l-4 8l-4 8l-4 8l-4 8l-4 8l-4 8l-4 8l-4 8l-4 8l-4 8l-4 8l-4 8l-4 8l-4 8l-4 8l-4 8l-4 8l-4 8l-4 8l-4 8l-4 8l-4 8l-4 8l-4 8l-4 8l4 8h12l4 -4v-1l4 -3l4 -8l4 -8
l4 -8l4 -8l4 -8l4 -8l4 -8l4 -8l4 -8l4 -8l4 -8l4 -8l4 -8l4 -8l4 -8l4 -8l4 -8l4 -8l4 -8l4 -8l4 -8l4 -8l4 -8l4 -8l4 -8l4 -8l4 -8l4 -8l4 -8l4 -8l4 -8l4 -8l4 -8l4 -8l4 -8l4 -8l4 -8l4 -8l4 -8l4 -8l-4 -8h-12z" />
    <glyph glyph-name="bracketright" unicode="]" horiz-adv-x="152" 
d="M8 -64l-8 4v12l8 4h64v424h-64l-8 4v12l8 4h80q3 0 5 -3q3 -2 3 -5v-448q0 -3 -3 -5q-2 -3 -5 -3h-80z" />
    <glyph glyph-name="asciicircum" unicode="^" horiz-adv-x="248" 
d="M0 344v4l4 4l4 4l4 4l4 4l4 4l4 4l4 4l4 4l4 4l4 4l4 4l4 4l4 4l4 4l4 4l4 4l4 4l4 4l4 4l4 4l4 4l4 4l4 4h8l4 -4v-1l4 -3l4 -4v-1l4 -3l4 -4v-1l4 -3l4 -4v-1l4 -3l4 -4v-1l4 -3l4 -4v-1l4 -3l4 -4v-1l4 -3l4 -4v-1l4 -3l4 -4v-1l4 -3l4 -4v-1l4 -3l4 -4v-1l4 -3l4 -4
v-4h-24l-8 8l-8 8l-8 8l-8 8l-8 8l-8 8l-8 8l-8 8l-8 8l-8 -8l-8 -8l-8 -8l-8 -8l-8 -8l-8 -8l-8 -8l-8 -8l-8 -8h-24z" />
    <glyph glyph-name="underscore" unicode="_" horiz-adv-x="288" 
d="M8 -28l-8 4v12l8 4h216l8 -4v-12l-8 -4h-216z" />
    <glyph glyph-name="grave" unicode="`" horiz-adv-x="156" 
d="M84 344l-8 8l-8 8l-8 8l-8 8l-8 8l-8 8l-8 8l-8 8l-8 8l-8 8l-4 8l4 8l7 3v1h1v-1l4 -3l4 -4v-1l4 -3l4 -4v-1l4 -3l4 -4v-1l4 -3l4 -4v-1l4 -3l4 -4v-1l4 -3l4 -4v-1l4 -3l4 -4v-1l4 -3l4 -4v-1l4 -3l4 -4v-1l4 -3l4 -4v-1l4 -3l4 -4v-4l-8 -8h-8z" />
    <glyph glyph-name="a" unicode="a" horiz-adv-x="296" 
d="M112 16l8 4l8 4l8 8l8 8l4 8l4 8l4 8l4 8v36l-8 4l-8 4l-8 4h-56l-8 -4l-8 -4l-8 -4l-8 -4l-8 -8l-8 -8l-4 -8l-4 -8v-16l4 -8l4 -8l8 -8l8 -8l8 -4l8 -4h48zM64 -4l-8 4l-8 4l-8 4l-8 4l-8 4l-8 8l-8 8l-4 8l-4 8v32l4 8l4 8l8 8l8 8l8 8l8 4l8 4l8 4l8 4l8 4h72l8 4
l4 8l4 8v24l-4 8l-4 8l-8 8l-8 4l-8 4l-8 4h-48l-8 -4l-8 -4v-4l4 -8l4 -8v-8l-4 -8l-4 -8l-8 -4l-8 -4h-8l-8 4l-8 4l-4 8l-4 8v8l4 8l4 8l8 8l8 8l8 4l8 4l8 4l8 4h64l8 -4l8 -4l8 -4l8 -4l8 -8l8 -8l4 -8l4 -8v-152l4 -8l4 -8l8 -8h8l8 8v8l4 8h16l4 -8v-8l-4 -8l-4 -8
l-8 -4l-8 -4h-32l-8 4l-8 4l-4 8l-4 8l-8 -8l-8 -8l-8 -4l-8 -4l-8 -4h-56z" />
    <glyph glyph-name="b" unicode="b" horiz-adv-x="260" 
d="M128 16l8 4l8 4l8 8l8 8l8 8l8 8l4 8l4 8l4 8v72l-4 8l-4 8l-4 8l-8 8l-8 8l-8 8l-8 8l-8 4l-8 4h-40l-8 -4l-8 -4l-8 -8l-8 -8l-8 -8l-8 -8l-4 -8l-4 -8l-4 -8l-4 -8v-56l4 -8l4 -8l4 -8l4 -8l8 -8l8 -8l8 -8l8 -8l8 -4l8 -4h40zM80 -4l-8 4l-8 4l-8 4l-8 8l-8 8l-8 8
l-8 8v-32l-4 -8h-16l-4 8v308h-40l-8 4v12l8 4h56q3 0 5 -3q3 -2 3 -5v-136l8 8l8 8l8 8l8 8l8 4l8 4l8 4h56l8 -4l8 -4l8 -4l8 -8l8 -8l8 -8l8 -8l4 -8l4 -8l4 -8l4 -8l4 -8v-72l-4 -8l-4 -8l-4 -8l-4 -8l-4 -8l-8 -8l-8 -8l-8 -8l-8 -8l-8 -4l-8 -4l-8 -4h-56z" />
    <glyph glyph-name="c" unicode="c" horiz-adv-x="268" 
d="M92 -4l-8 4l-8 4l-8 4l-8 4l-8 4l-8 8l-8 8l-8 8l-8 8l-4 8l-4 8l-4 8l-4 8l-4 8v56l4 8l4 8l4 8l4 8l4 8l8 8l8 8l8 8l8 8l8 4l8 4l8 4l8 4l8 4h56l8 -4l8 -4l8 -4l8 -4l8 -4l8 -8l8 -8l4 -8l4 -8v-8l-4 -8l-4 -8l-8 -4l-8 -4h-8l-8 4l-8 4l-4 8l-4 8v8l4 8l4 8v4l-8 4
l-8 4l-8 4h-40l-8 -4l-8 -4l-8 -4l-8 -4l-8 -8l-8 -8l-8 -8l-8 -8l-4 -8l-4 -8l-4 -8v-56l4 -8l4 -8l4 -8l8 -8l8 -8l8 -8l8 -8l8 -4l8 -4l8 -4l8 -4h56l8 4l8 4l8 4l8 4l8 8h8l8 -8v-8l-8 -8l-8 -4l-8 -4l-8 -4l-8 -4l-8 -4h-72z" />
    <glyph glyph-name="d" unicode="d" horiz-adv-x="316" 
d="M124 16l8 4l8 4l8 8l8 8l8 8l8 8l4 8l4 8l4 8l4 8v56l-4 8l-4 8l-4 8l-4 8l-8 8l-8 8l-8 8l-8 8l-8 4l-8 4h-40l-8 -4l-8 -4l-8 -8l-8 -8l-8 -8l-8 -8l-4 -8l-4 -8l-4 -8v-72l4 -8l4 -8l4 -8l8 -8l8 -8l8 -8l8 -8l8 -4l8 -4h40zM76 -4l-8 4l-8 4l-8 4l-8 8l-8 8l-8 8
l-8 8l-4 8l-4 8l-4 8l-4 8l-4 8v72l4 8l4 8l4 8l4 8l4 8l8 8l8 8l8 8l8 8l8 4l8 4l8 4h56l8 -4l8 -4l8 -4l8 -8l8 -8l8 -8l8 -8v124h-40l-8 4v12l8 4h56q3 0 5 -3q3 -2 3 -5v-308h40l8 -4v-12l-8 -4h-60l-4 8v32l-8 -8l-8 -8l-8 -8l-8 -8l-8 -4l-8 -4l-8 -4h-56z" />
    <glyph glyph-name="e" unicode="e" horiz-adv-x="280" 
d="M200 136v8l-4 8l-4 8l-4 8l-8 8l-8 8l-8 8l-8 8l-8 4l-8 4l-8 4l-8 4h-24l-8 -4l-8 -4l-8 -4l-8 -4l-8 -8l-8 -8l-8 -8l-8 -8l-4 -8l-4 -8l-4 -8v-8h176zM92 -4l-8 4l-8 4l-8 4l-8 4l-8 4l-8 8l-8 8l-8 8l-8 8l-4 8l-4 8l-4 8l-4 8l-4 8v56l4 8l4 8l4 8l4 8l4 8l8 8l8 8
l8 8l8 8l8 4l8 4l8 4l8 4l8 4h40l8 -4l8 -4l8 -4l8 -4l8 -4l8 -8l8 -8l8 -8l8 -8l4 -8l4 -8l4 -8l4 -8l4 -8v-24h-1l-3 -4h-196v-28l4 -8l4 -8l4 -8l8 -8l8 -8l8 -8l8 -8l8 -4l8 -4l8 -4l8 -4h56l8 4l8 4l8 4l8 4l8 8h8l8 -8v-8l-8 -8l-8 -4l-8 -4l-8 -4l-8 -4l-8 -4h-72z
" />
    <glyph glyph-name="f" unicode="f" horiz-adv-x="224" 
d="M8 0l-8 4v12l8 4h40v192h-40l-8 4v12l8 4h40v40l4 8l4 8l4 8l4 8l8 8l8 8l8 4l8 4l8 4l8 4h48l8 -4l8 -4l8 -4l8 -4l8 -8l8 -8l4 -8l4 -8v-8l-4 -8l-4 -8l-8 -4l-8 -4h-8l-8 4l-8 4l-4 8l-4 8v8l4 8l4 8v4l-8 4l-8 4h-32l-8 -4l-8 -4l-8 -4l-8 -8l-4 -8l-4 -8l-4 -8
l-4 -8v-32h40l8 -4v-12l-8 -4h-40v-192h40l8 -4v-12l-8 -4h-104z" />
    <glyph glyph-name="g" unicode="g" horiz-adv-x="288" 
d="M160 -116l8 4l8 4l8 4l8 8l8 8l4 8l4 8v24l-4 8l-4 8l-8 8l-8 8l-8 4l-8 4l-8 4h-88l-8 -4l-8 -4l-8 -4l-8 -8l-8 -8l-4 -8l-4 -8v-24l4 -8l4 -8l8 -8l8 -8l8 -4l8 -4l8 -4h88zM112 80l8 4l8 4l8 8l8 8l8 8l4 8l4 8v40l-4 8l-4 8l-8 8l-8 8l-8 8l-8 4l-8 4h-24l-8 -4
l-8 -4l-8 -8l-8 -8l-8 -8l-4 -8l-4 -8v-40l4 -8l4 -8l8 -8l8 -8l8 -8l8 -4l8 -4h24zM64 -136l-8 4l-8 4l-8 4l-8 4l-8 8l-8 8l-4 8l-4 8l-4 8l-4 8v24l4 8l4 8l4 8l4 8l8 8l8 8l8 4l-8 4l-8 8l-8 8l-4 8l-4 8v16l4 8l4 8l8 8l8 8v0l4 4l-4 3v1l-4 8l-4 8l-4 8l-4 8v40l4 8
l4 8l4 8l4 8l8 8l8 8l8 4l8 4l8 4l8 4l8 4h24l8 -4l8 -4l8 -4l8 -4l8 -4v-1l4 -3l3 4h1l8 8l8 4l8 4h24l8 -4l8 -4l4 -8l4 -8v-8l-4 -8l-4 -8l-8 -4l-8 -4h-8l-8 4l-8 4l-4 8l-4 8l-6 -6l2 -2l4 -8l4 -8l4 -8v-40l-4 -8l-4 -8l-4 -8l-4 -8l-8 -8l-8 -8l-8 -4l-8 -4l-8 -4
l-8 -4l-8 -4h-24l-8 4l-8 4l-8 4l-8 4l-3 1l-5 -5l-8 -8l-4 -8l-4 -8v-8l4 -8l4 -8l8 -8l2 -3l6 3h112l8 -4l8 -4l8 -4l8 -4l8 -8l8 -8l4 -8l4 -8l4 -8l4 -8v-24l-4 -8l-4 -8l-4 -8l-4 -8l-8 -8l-8 -8l-8 -4l-8 -4l-8 -4l-8 -4h-104z" />
    <glyph glyph-name="h" unicode="h" 
d="M8 0l-8 4v12l8 4h24v296h-24l-8 4v12l8 4h40q3 0 5 -3q3 -2 3 -5v-140l4 4l4 4l4 4l4 4l4 4l4 4l8 4l8 4l8 4l8 4l8 4l8 4h40l8 -4l8 -4l8 -4l8 -8l8 -8l4 -8l4 -8l4 -8l4 -8v-156h24l8 -4v-12l-8 -4h-72l-8 4v12l8 4h24v156l-4 8l-4 8l-8 8l-8 8l-8 4l-8 4h-32l-8 -4
l-8 -4l-8 -4l-4 -4h-1l-3 -4l-4 -4h-1l-3 -4l-4 -4h-1l-3 -4l-4 -4h-1l-3 -4l-4 -4l-4 -8l-4 -8l-4 -8v-124h24l8 -4v-12l-8 -4h-72z" />
    <glyph glyph-name="i" unicode="i" horiz-adv-x="208" 
d="M8 0l-8 4v12l8 4h56v192h-56l-8 4v12l8 4h72q3 0 5 -3q3 -2 3 -5v-204h56l8 -4v-12l-8 -4h-136zM72 256l-8 4l-8 4l-4 8l-4 8v8l4 8l4 8l8 4l8 4h8l8 -4l8 -4l4 -8l4 -8v-8l-4 -8l-4 -8l-8 -4l-8 -4h-8z" />
    <glyph glyph-name="j" unicode="j" horiz-adv-x="152" 
d="M-40 -128l-8 4l-8 4l-8 4l-8 4l-8 8l-8 8l-4 8l-4 8l-4 8l-4 8v24l4 8l4 8l8 4l8 4h8l8 -4l8 -4l4 -8l4 -8v-8l-4 -8l-4 -8l-8 -4l-8 -4h-4l4 -8l8 -8l8 -8l8 -4l8 -4l8 -4h40l8 4l8 4l8 4l8 8l8 8l4 8l4 8l4 8l4 8v260h-56l-8 4v12l8 4h72q3 0 5 -3q3 -2 3 -5v-272
l-4 -8l-4 -8l-4 -8l-4 -8l-4 -8l-4 -8l-8 -8l-8 -8l-8 -4l-8 -4l-8 -4l-8 -4h-56zM64 256l-8 4l-8 4l-4 8l-4 8v8l4 8l4 8l8 4l8 4h8l8 -4l8 -4l4 -8l4 -8v-8l-4 -8l-4 -8l-8 -4l-8 -4h-8z" />
    <glyph glyph-name="k" unicode="k" horiz-adv-x="272" 
d="M0 0l-8 4v12l8 4h24v296h-24l-8 4v12l8 4h40q3 0 5 -3q3 -2 3 -5v-196l4 4l4 4l4 4l4 4l4 4l4 4l4 4l4 4l4 4l4 4l4 4l4 4l4 4l4 4l4 4l4 4l4 4l4 4l4 4l4 4h-24l-8 4v12l8 4h80l8 -4v-12l-8 -4h-28l-4 -4l-8 -8l-8 -8l-8 -8l-8 -8l-8 -8l4 -8l4 -8l4 -8l4 -8l4 -8l4 -8
l4 -8l4 -8l4 -8l4 -8l4 -8l4 -8l4 -8l4 -8l4 -8l4 -8l4 -8l4 -8l2 -4h22l8 -4v-12l-8 -4h-72l-8 4v12l8 4h24v4l-4 8l-4 8l-4 8l-4 8l-4 8l-4 8l-4 8l-4 8l-4 8l-4 8l-4 8l-4 8l-4 8l-4 8l-4 8l-4 8l-8 -8l-8 -8l-8 -8l-8 -8l-8 -8l-8 -8v-84h24l8 -4v-12l-8 -4h-72z" />
    <glyph glyph-name="l" unicode="l" horiz-adv-x="224" 
d="M-8 0l-8 4v12l8 4h72v296h-72l-8 4v12l8 4h88q3 0 5 -3q3 -2 3 -5v-308h72l8 -4v-12l-8 -4h-168z" />
    <glyph glyph-name="m" unicode="m" horiz-adv-x="400" 
d="M8 0l-8 4v12l8 4h24v192h-24l-8 4v12l8 4h40q3 0 5 -3q3 -2 3 -5v-20l4 4l4 4l4 4l4 4l8 4l8 4l8 4l8 4h24l8 -4l8 -4l8 -4l8 -8l8 -8l4 -8l4 -8l4 8l4 4l4 4l4 4l4 4l4 4l8 4l8 4l8 4l8 4h24l8 -4l8 -4l8 -4l8 -8l8 -8l4 -8l4 -8l4 -8l4 -8v-156h24l8 -4v-12l-8 -4h-72
l-8 4v12l8 4h24v156l-4 8l-4 8l-8 8l-8 8l-8 4l-8 4h-16l-8 -4l-4 -4h-1l-3 -4l-4 -4h-1l-3 -4l-4 -4h-1l-3 -4l-4 -4l-4 -8l-4 -8l-4 -8v-140h24l8 -4v-12l-8 -4h-72l-8 4v12l8 4h24v156l-4 8l-4 8l-8 8l-8 8l-8 4l-8 4h-16l-8 -4l-4 -4h-1l-3 -4l-4 -4h-1l-3 -4l-4 -4h-1
l-3 -4l-4 -4l-4 -8l-4 -8l-4 -8v-140h24l8 -4v-12l-8 -4h-72z" />
    <glyph glyph-name="n" unicode="n" 
d="M8 0l-8 4v12l8 4h24v192h-24l-8 4v12l8 4h40q3 0 5 -3q3 -2 3 -5v-36l4 4l4 4l4 4l4 4l4 4l4 4l8 4l8 4l8 4l8 4l8 4l8 4h40l8 -4l8 -4l8 -4l8 -8l8 -8l4 -8l4 -8l4 -8l4 -8v-156h24l8 -4v-12l-8 -4h-72l-8 4v12l8 4h24v156l-4 8l-4 8l-8 8l-8 8l-8 4l-8 4h-32l-8 -4
l-8 -4l-8 -4l-4 -4h-1l-3 -4l-4 -4h-1l-3 -4l-4 -4h-1l-3 -4l-4 -4h-1l-3 -4l-4 -4l-4 -8l-4 -8l-4 -8v-124h24l8 -4v-12l-8 -4h-72z" />
    <glyph glyph-name="o" unicode="o" horiz-adv-x="296" 
d="M140 16l8 4l8 4l8 4l8 4l8 8l8 8l8 8l8 8l4 8l4 8l4 8v56l-4 8l-4 8l-4 8l-8 8l-8 8l-8 8l-8 8l-8 4l-8 4l-8 4l-8 4h-40l-8 -4l-8 -4l-8 -4l-8 -4l-8 -8l-8 -8l-8 -8l-8 -8l-4 -8l-4 -8l-4 -8v-56l4 -8l4 -8l4 -8l8 -8l8 -8l8 -8l8 -8l8 -4l8 -4l8 -4l8 -4h40zM92 -4
l-8 4l-8 4l-8 4l-8 4l-8 4l-8 8l-8 8l-8 8l-8 8l-4 8l-4 8l-4 8l-4 8l-4 8v56l4 8l4 8l4 8l4 8l4 8l8 8l8 8l8 8l8 8l8 4l8 4l8 4l8 4l8 4h56l8 -4l8 -4l8 -4l8 -4l8 -4l8 -8l8 -8l8 -8l8 -8l4 -8l4 -8l4 -8l4 -8l4 -8v-56l-4 -8l-4 -8l-4 -8l-4 -8l-4 -8l-8 -8l-8 -8l-8 -8
l-8 -8l-8 -4l-8 -4l-8 -4l-8 -4l-8 -4h-56z" />
    <glyph glyph-name="p" unicode="p" horiz-adv-x="284" 
d="M144 16l8 4l8 4l8 8l8 8l8 8l8 8l4 8l4 8l4 8v72l-4 8l-4 8l-4 8l-8 8l-8 8l-8 8l-8 8l-8 4l-8 4h-40l-8 -4l-8 -4l-8 -8l-8 -8l-8 -8l-8 -8l-4 -8l-4 -8l-4 -8l-4 -8v-56l4 -8l4 -8l4 -8l4 -8l8 -8l8 -8l8 -8l8 -8l8 -4l8 -4h40zM-24 -120l-8 4v12l8 4h40v312h-40l-8 4
v12l8 4h56q3 0 5 -3q3 -2 3 -5v-32l8 8l8 8l8 8l8 8l8 4l8 4l8 4h56l8 -4l8 -4l8 -4l8 -8l8 -8l8 -8l8 -8l4 -8l4 -8l4 -8l4 -8l4 -8v-72l-4 -8l-4 -8l-4 -8l-4 -8l-4 -8l-8 -8l-8 -8l-8 -8l-8 -8l-8 -4l-8 -4l-8 -4h-56l-8 4l-8 4l-8 4l-8 8l-8 8l-8 8l-8 8v-140h40l8 -4
v-12l-8 -4h-104z" />
    <glyph glyph-name="q" unicode="q" horiz-adv-x="284" 
d="M124 16l8 4l8 4l8 8l8 8l8 8l8 8l4 8l4 8l4 8l4 8v56l-4 8l-4 8l-4 8l-4 8l-8 8l-8 8l-8 8l-8 8l-8 4l-8 4h-40l-8 -4l-8 -4l-8 -8l-8 -8l-8 -8l-8 -8l-4 -8l-4 -8l-4 -8v-72l4 -8l4 -8l4 -8l8 -8l8 -8l8 -8l8 -8l8 -4l8 -4h40zM148 -120l-8 4v12l8 4h40v140l-8 -8l-8 -8
l-8 -8l-8 -8l-8 -4l-8 -4l-8 -4h-56l-8 4l-8 4l-8 4l-8 8l-8 8l-8 8l-8 8l-4 8l-4 8l-4 8l-4 8l-4 8v72l4 8l4 8l4 8l4 8l4 8l8 8l8 8l8 8l8 8l8 4l8 4l8 4h56l8 -4l8 -4l8 -4l8 -8l8 -8l8 -8l8 -8v32l4 8h16l4 -8v-324h40l8 -4v-12l-8 -4h-104z" />
    <glyph glyph-name="r" unicode="r" horiz-adv-x="288" 
d="M8 0l-8 4v12l8 4h40v192h-40l-8 4v12l8 4h56q3 0 5 -3q3 -2 3 -5v-36l4 4l4 4l4 4l4 4l4 4l4 4l8 4l8 4l8 4l8 4l8 4l8 4h56l8 -4l8 -4l8 -4l4 -8l4 -8v-8l-4 -8l-4 -8l-8 -4l-8 -4h-8l-8 4l-8 4l-4 8l-4 8v8l4 8h-36l-8 -4l-8 -4l-8 -4l-4 -4h-1l-3 -4l-4 -4h-1l-3 -4
l-4 -4h-1l-3 -4l-4 -4h-1l-3 -4l-4 -4l-4 -8l-4 -8l-4 -8v-124h40l8 -4v-12l-8 -4h-104z" />
    <glyph glyph-name="s" unicode="s" horiz-adv-x="240" 
d="M52 -4l-8 4l-8 4l-8 4l-4 -8h-16l-4 8v40l4 8h16l4 -8l4 -8l4 -8l8 -8l8 -4l8 -4h64l8 4l8 4l8 8l4 8l4 8l4 8v16l-4 8l-4 8l-4 8l-8 8l-8 4h-80l-8 4l-8 4l-8 4l-8 8l-8 8l-4 8l-4 8l-4 8v24l4 8l4 8l4 8l8 8l8 8l8 4l8 4l8 4h72l8 -4l8 -4l8 -4l4 8h16l4 -8v-40l-4 -8
h-16l-4 8l-4 8l-4 8l-8 8l-8 4l-8 4h-56l-8 -4l-8 -4l-8 -8l-4 -8l-4 -8l-4 -8v-8l4 -8l4 -8l4 -8l8 -8l8 -4h80l8 -4l8 -4l8 -4l8 -8l8 -8l4 -8l4 -8l4 -8v-32l-4 -8l-4 -8l-4 -8l-8 -8l-8 -8l-8 -4l-8 -4l-8 -4h-80z" />
    <glyph glyph-name="t" unicode="t" horiz-adv-x="264" 
d="M112 -4l-8 4l-8 4l-8 4l-8 8l-8 8l-8 8l-4 8l-4 8v164h-48l-8 4v12l8 4h48v96q0 3 2 5q2 3 6 3h8q3 0 5 -3q3 -2 3 -5v-96h64l8 -4v-12l-8 -4h-64v-156l4 -8l4 -8l8 -8l8 -8l8 -4l8 -4h24l8 4l8 4l8 8l8 8l4 8l4 8v24q0 3 2 5q2 3 6 3h8q3 0 5 -3q3 -2 3 -5v-32l-4 -8
l-4 -8l-8 -8l-8 -8l-8 -8l-8 -4l-8 -4l-8 -4h-40z" />
    <glyph glyph-name="u" unicode="u" 
d="M88 -4l-8 4l-8 4l-8 4l-8 8l-8 8l-4 8l-4 8l-4 8l-4 8v156h-24l-8 4v12l8 4h72l8 -4v-12l-8 -4h-24v-156l4 -8l4 -8l8 -8l8 -8l8 -4l8 -4h32l8 4l8 4l8 4l4 4l4 4l4 4l4 4l4 4l4 4l4 4l4 4l4 4l4 8l4 8l4 8v124h-24l-8 4v12l8 4h72l8 -4v-12l-8 -4h-24v-192h24l8 -4v-12
l-8 -4h-40q-4 0 -6 2t-2 6v36l-4 -4h-1l-3 -4l-4 -4h-1l-3 -4l-4 -4h-1l-3 -4l-8 -4l-8 -4l-8 -4l-8 -4l-8 -4l-8 -4h-40z" />
    <glyph glyph-name="v" unicode="v" horiz-adv-x="336" 
d="M128 0l-4 8l-4 8l-4 8l-4 8l-4 8l-4 8l-4 8l-4 8l-4 8l-4 8l-4 8l-4 8l-4 8l-4 8l-4 8l-4 8l-4 8l-4 8l-4 8l-4 8l-4 8l-4 8l-4 8l-4 8l-4 8l-4 8l-2 4h-22l-8 4v12l8 4h64l8 -4v-12l-8 -4h-18l2 -4l4 -8l4 -8l4 -8l4 -8l4 -8l4 -8l4 -8l4 -8l4 -8l4 -8l4 -8l4 -8l4 -8
l4 -8l4 -8l4 -8l4 -8l4 -8l4 -8l4 -8l4 -8l4 -8l4 8l4 8l4 8l4 8l4 8l4 8l4 8l4 8l4 8l4 8l4 8l4 8l4 8l4 8l4 8l4 8l4 8l4 8l4 8l4 8l4 8l4 8l2 4h-18l-8 4v12l8 4h64l8 -4v-12l-8 -4h-22l-2 -4l-4 -8l-4 -8l-4 -8l-4 -8l-4 -8l-4 -8l-4 -8l-4 -8l-4 -8l-4 -8l-4 -8l-4 -8
l-4 -8l-4 -8l-4 -8l-4 -8l-4 -8l-4 -8l-4 -8l-4 -8l-4 -8l-4 -8l-4 -8l-4 -8l-4 -8l-4 -8h-16z" />
    <glyph glyph-name="w" unicode="w" horiz-adv-x="416" 
d="M128 0l-4 8l-4 8l-4 8l-4 8l-4 8l-4 8l-4 8l-4 8l-4 8l-4 8l-4 8l-4 8l-4 8l-4 8l-4 8l-4 8l-4 8l-4 8l-4 8l-4 8l-4 8l-4 8l-4 8l-4 8l-4 8l-4 8l-2 4h-22l-8 4v12l8 4h64l8 -4v-12l-8 -4h-18l2 -4l4 -8l4 -8l4 -8l4 -8l4 -8l4 -8l4 -8l4 -8l4 -8l4 -8l4 -8l4 -8l4 -8
l4 -8l4 -8l4 -8l4 -8l4 -8l4 -8l4 -8l4 8l4 8l4 8l4 8l4 8l4 8l4 8l4 8l4 8l4 8l4 8h8l4 -8l4 -8l4 -8l4 -8l4 -8l4 -8l4 -8l4 -8l4 -8l4 -8l4 -8l4 8l4 8l4 8l4 8l4 8l4 8l4 8l4 8l4 8l4 8l4 8l4 8l4 8l4 8l4 8l4 8l4 8l4 8l4 8l4 8l2 4h-18l-8 4v12l8 4h64l8 -4v-12l-8 -4
h-22l-2 -4l-4 -8l-4 -8l-4 -8l-4 -8l-4 -8l-4 -8l-4 -8l-4 -8l-4 -8l-4 -8l-4 -8l-4 -8l-4 -8l-4 -8l-4 -8l-4 -8l-4 -8l-4 -8l-4 -8l-4 -8l-4 -8l-4 -8l-4 -8l-4 -8l-4 -8l-4 -8l-4 8l-4 8l-4 8l-4 8l-4 8l-4 8l-4 8l-4 8l-4 8l-4 8l-4 8l-4 8l-4 -8l-4 -8l-4 -8l-4 -8
l-4 -8l-4 -8l-4 -8l-4 -8l-4 -8l-4 -8l-4 -8l-4 -8v0z" />
    <glyph glyph-name="x" unicode="x" horiz-adv-x="240" 
d="M8 0l-8 4v12l8 4h22l2 4l4 8l4 8l4 8l4 8l4 8l4 8l4 8l4 8l4 8l4 8l4 8l4 8l-4 8l-4 8l-4 8l-4 8l-4 8l-4 8l-4 8l-4 8l-4 8l-4 8l-4 8l-2 4h-18l-8 4v12l8 4h64l8 -4v-12l-8 -4h-22l2 -4l4 -8l4 -8l4 -8l4 -8l4 -8l4 -8l4 -8l4 -8l4 8l4 8l4 8l4 8l4 8l4 8l4 8l4 8l2 4
h-22l-8 4v12l8 4h64l8 -4v-12l-8 -4h-18l-2 -4l-4 -8l-4 -8l-4 -8l-4 -8l-4 -8l-4 -8l-4 -8l-4 -8l-4 -8l-4 -8l-4 -8l4 -8l4 -8l4 -8l4 -8l4 -8l4 -8l4 -8l4 -8l4 -8l4 -8l4 -8l4 -8l2 -4h22l8 -4v-12l-8 -4h-64l-8 4v12l8 4h18l-2 4l-4 8l-4 8l-4 8l-4 8l-4 8l-4 8l-4 8
l-4 8l-4 8l-4 -8l-4 -8l-4 -8l-4 -8l-4 -8l-4 -8l-4 -8l-4 -8l-4 -8l-2 -4h26l8 -4v-12l-8 -4h-72z" />
    <glyph glyph-name="y" unicode="y" horiz-adv-x="344" 
d="M24 -128l-8 4l-8 4l-8 4l-8 4l-8 8l-4 8l-4 8v8l4 8l4 8l8 4l8 4h8l8 -4l8 -4l4 -8l4 -8v-8l-4 -8l-4 -8l8 -4h16l8 4l8 4l4 4l4 4l4 4l4 8l4 8l4 8l4 8l4 8l4 8l4 8l4 8l4 8l4 8l4 8l4 8l-4 8l-4 8l-4 8l-4 8l-4 8l-4 8l-4 8l-4 8l-4 8l-4 8l-4 8l-4 8l-4 8l-4 8l-4 8
l-4 8l-4 8l-4 8l-4 8l-4 8l-4 8l-4 8l-4 8l-4 8l-4 8l-2 4h-30l-8 4v12l8 4h80l8 -4v-12l-8 -4h-26l2 -4l4 -8l4 -8l4 -8l4 -8l4 -8l4 -8l4 -8l4 -8l4 -8l4 -8l4 -8l4 -8l4 -8l4 -8l4 -8l4 -8l4 -8l4 -8l4 -8l4 -8l4 -8l4 -8l4 8l4 8l4 8l4 8l4 8l4 8l4 8l4 8l4 8l4 8l4 8
l4 8l4 8l4 8l4 8l4 8l4 8l4 8l4 8l4 8l4 8l4 8l2 4h-26l-8 4v12l8 4h80l8 -4v-12l-8 -4h-30l-2 -4l-4 -8l-4 -8l-4 -8l-4 -8l-4 -8l-4 -8l-4 -8l-4 -8l-4 -8l-4 -8l-4 -8l-4 -8l-4 -8l-4 -8l-4 -8l-4 -8l-4 -8l-4 -8l-4 -8l-4 -8l-4 -8l-4 -8l-4 -8l-4 -8l-4 -8l-4 -8l-4 -8
l-4 -8l-4 -8l-4 -8l-4 -8l-4 -8l-4 -8l-4 -8l-4 -8l-4 -8l-4 -8l-4 -8l-8 -8l-8 -8l-8 -4l-8 -4l-8 -4l-8 -4h-24z" />
    <glyph glyph-name="z" unicode="z" horiz-adv-x="196" 
d="M0 0l4 8l4 8l4 8l4 8l4 8l4 8l4 8l4 8l4 8l4 8l4 8l4 8l4 8l4 8l4 8l4 8l4 8l4 8l4 8l4 8l4 8l4 8l4 8l4 8l4 8l4 8l2 4h-78v-36l-4 -8h-16l-4 8v48q0 3 2 5q2 3 6 3h128l-4 -8l-4 -8l-4 -8l-4 -8l-4 -8l-4 -8l-4 -8l-4 -8l-4 -8l-4 -8l-4 -8l-4 -8l-4 -8l-4 -8l-4 -8
l-4 -8l-4 -8l-4 -8l-4 -8l-4 -8l-4 -8l-4 -8l-4 -8l-4 -8l-4 -8l-4 -8l-2 -4h82v36l4 8h16l4 -8v-48q0 -4 -3 -6q-2 -2 -5 -2h-132z" />
    <glyph glyph-name="braceleft" unicode="{" horiz-adv-x="152" 
d="M56 -64l-8 4l-8 4l-8 4v1l-4 3l-4 4v1l-4 3l-4 4v1l-4 3l-4 8l-4 8l-4 8v24l4 8l4 8l4 8l4 8l4 8l4 8v40l-4 8l-4 8l-4 8l-4 8l-8 8l-8 8l-8 4l-8 4l-8 4v8l8 4l8 4l8 4l8 8l8 8l4 8l4 8l4 8l4 8v40l-4 8l-4 8l-4 8l-4 8l-4 8l-4 8v24l4 8l4 8l4 8l4 4l4 4l4 4l4 4l4 4
l8 4l8 4l8 4h32l8 -4v-12l-8 -4h-32l-8 -4l-8 -4l-4 -4l-4 -8l-4 -8l-4 -8v-24l4 -8l4 -8l4 -8l4 -8l4 -8l4 -8v-40l-4 -8l-4 -8l-4 -8l-4 -8l-4 -8h-1l-3 -4l-4 -4h-1l-3 -4l-4 -4h-1l-3 -4l-4 -4l4 -4v-1l4 -3l4 -4v-1l4 -3l4 -4v-1l4 -3l4 -8l4 -8l4 -8l4 -8l4 -8v-40
l-4 -8l-4 -8l-4 -8l-4 -8l-4 -8l-4 -8v-24l4 -8l4 -8l4 -8l4 -4l8 -4l8 -4h32l8 -4v-12l-8 -4h-32z" />
    <glyph glyph-name="bar" unicode="|" horiz-adv-x="80" 
d="M4 -24l-4 8v368l4 8h16l4 -8v-368l-4 -8h-16z" />
    <glyph glyph-name="braceright" unicode="}" horiz-adv-x="184" 
d="M8 -64l-8 4v12l8 4h32l8 4l8 4l4 4l4 8l4 8l4 8v24l-4 8l-4 8l-4 8l-4 8l-4 8l-4 8v40l4 8l4 8l4 8l4 8l4 8l4 4l4 4l4 4l4 4l4 4l4 4l-4 4v0l-4 4l-4 4v0l-4 4l-4 4v0l-4 4l-4 8l-4 8l-4 8l-4 8l-4 8v40l4 8l4 8l4 8l4 8l4 8l4 8v24l-4 8l-4 8l-4 8l-4 4l-8 4l-8 4h-32
l-8 4v12l8 4h32l8 -4l8 -4l8 -4v-1l4 -3l4 -4v-1l4 -3l4 -4v-1l4 -3l4 -8l4 -8l4 -8v-24l-4 -8l-4 -8l-4 -8l-4 -8l-4 -8l-4 -8v-40l4 -8l4 -8l4 -8l4 -8l8 -8l8 -8l8 -4l8 -4l8 -4v-8l-8 -4l-8 -4l-8 -4l-8 -8l-8 -8l-4 -8l-4 -8l-4 -8l-4 -8v-40l4 -8l4 -8l4 -8l4 -8l4 -8
l4 -8v-24l-4 -8l-4 -8l-4 -8h-1l-3 -4l-4 -4h-1l-3 -4l-4 -4h-1l-3 -4l-8 -4l-8 -4l-8 -4h-32z" />
    <glyph glyph-name="asciitilde" unicode="~" horiz-adv-x="264" 
d="M140 344l-8 4l-8 4l-8 4v0l-4 4l-4 4v0l-4 4l-4 4v0l-4 4l-4 4l-8 4l-8 4h-24l-8 -4l-8 -4l-4 -4l-4 -8l-4 -8l-4 -8h-16l-4 8l4 8l4 8l4 8l8 8l8 8l8 4l8 4h40l8 -4l8 -4l8 -8l8 -8l8 -8l8 -8l8 -4h24l8 4l8 4l4 4l4 8l4 8l4 8h16l4 -8l-4 -8l-4 -8l-4 -8l-8 -8l-8 -8
l-8 -4l-8 -4h-32z" />
    <glyph glyph-name="exclamdown" unicode="&#xa1;" horiz-adv-x="112" 
d="M24 -128q-4 0 -6 3q-2 2 -2 5v240l4 8h16l4 -8v-240q0 -3 -3 -5q-2 -3 -5 -3h-8zM24 152l-8 4l-8 4l-4 8l-4 8v8l4 8l4 8l8 4l8 4h8l8 -4l8 -4l4 -8l4 -8v-8l-4 -8l-4 -8l-8 -4l-8 -4h-8z" />
    <glyph glyph-name="cent" unicode="&#xa2;" horiz-adv-x="220" 
d="M44 48l4 8l4 8l4 8l4 8l4 8l4 8l4 8l4 8l4 8l4 8l4 8l4 8l4 8l4 8l4 8l4 8l4 8l4 8l4 8h-32l-8 -4l-8 -4l-8 -4l-4 -4h-1l-3 -4l-4 -4h-1l-3 -4l-4 -4h-1l-3 -4l-4 -4l-4 -8l-4 -8l-4 -8v-56l4 -8l4 -8l4 -8l4 -4v-1l4 -3v0zM28 0l-4 8l4 8l4 8l3 6l-3 2l-8 8l-8 8l-4 8
l-4 8l-4 8l-4 8v56l4 8l4 8l4 8l4 8l8 8l8 8l8 8l8 8l8 4l8 4l8 4l8 4l8 4h40l1 -1l3 5l4 4l8 4h8l4 -8l-4 -8l-4 -7l4 -1l8 -8l4 -8l-4 -8h-16l-4 8l-4 -8l-4 -8l-4 -8l-4 -8l-4 -8l-4 -8l-4 -8l-4 -8l-4 -8l-4 -8l-4 -8l-4 -8l-4 -8l-4 -8l-4 -8l-4 -8l-4 -8l-4 -8l-4 -8
l-2 -4h2l8 -4h32l8 4l8 4l8 8h8q3 0 5 -3q3 -2 3 -5l-8 -8l-8 -8l-8 -4l-8 -4l-8 -4h-32l-8 4l-8 4h-2l-2 -4l-4 -8l-8 -8h-12z" />
    <glyph glyph-name="sterling" unicode="&#xa3;" horiz-adv-x="256" 
d="M0 -4v20l8 8l8 8l8 8l8 8l8 8l4 8l4 8l4 8l4 8v68h-32l-8 4v12l8 4h32v104l4 8l4 8l4 8l4 4l4 4l4 4l4 4l4 4l8 4l8 4l8 4h32l8 -4l8 -4l8 -4l8 -4l4 -8l4 -8v-8l-4 -8l-4 -8l-8 -4l-8 -4h-8l-8 4l-8 4l-4 8l-4 8v8l4 8l2 4h-22l-8 -4l-8 -4l-4 -4l-4 -8l-4 -8l-4 -8
v-104h32l8 -4v-12l-8 -4h-32v-68l-4 -8l-4 -8l-4 -8l-4 -8l-4 -8h-1l-3 -4l-4 -4h-1l-3 -4l-4 -4h-1l-3 -4l-4 -4h-1l-3 -4l-4 -4h-1l-3 -4l8 4l8 4l8 4l8 4l8 4h40l8 -4l8 -4l8 -4l8 -4h32l8 4l8 4l8 4l8 -4v-8l-8 -8l-8 -8l-8 -4h-40l-8 4l-8 4l-8 4l-8 4h-40l-8 -4l-8 -4
l-8 -4l-8 -4h-32z" />
    <glyph glyph-name="currency" unicode="&#xa4;" horiz-adv-x="184" 
d="M72 136l8 4l4 4l4 8v32l-4 8l-4 4l-8 4h-16l-8 -4l-4 -4l-4 -8v-32l4 -8l4 -4l8 -4h16zM8 104l-8 8v8l8 8l8 8l4 8l-4 8v32l4 8l-4 8l-8 8l-8 8v8l8 8h8l8 -8l8 -8l8 -4l8 4h32l8 -4l8 4l8 8l8 8h8l8 -8v-8l-8 -8l-8 -8l-4 -8l4 -8v-32l-4 -8l4 -8l8 -8l8 -8v-8l-8 -8h-8
l-8 8l-8 8l-8 4l-8 -4h-32l-8 4l-8 -4l-8 -8l-8 -8h-8z" />
    <glyph glyph-name="yen" unicode="&#xa5;" horiz-adv-x="304" 
d="M24 0l-8 4v12l8 4h88v80h-32l-8 4v12l8 4h32v28h-32l-8 4v12l8 4h32v8l-4 8l-4 8l-4 8l-4 8l-4 8l-4 8l-4 8l-4 8l-4 8l-4 8l-4 8l-4 8l-4 8l-4 8l-4 8l-4 8l-4 8l-2 4h-34l-8 4v12l8 4h96l8 -4v-12l-8 -4h-38l2 -4l4 -8l4 -8l4 -8l4 -8l4 -8l4 -8l4 -8l4 -8l4 -8l4 -8
l4 -8l4 -8l4 -8l4 -8l4 8l4 8l4 8l4 8l4 8l4 8l4 8l4 8l4 8l4 8l4 8l4 8l4 8l4 8l2 4h-38l-8 4v12l8 4h96l8 -4v-12l-8 -4h-34l-2 -4l-4 -8l-4 -8l-4 -8l-4 -8l-4 -8l-4 -8l-4 -8l-4 -8l-4 -8l-4 -8l-4 -8l-4 -8l-4 -8l-4 -8l-4 -8l-4 -8l-4 -8v-8h32l8 -4v-12l-8 -4h-32
v-28h32l8 -4v-12l-8 -4h-32v-80h88l8 -4v-12l-8 -4h-200z" />
    <glyph glyph-name="brokenbar" unicode="&#xa6;" horiz-adv-x="80" 
d="M4 0l-4 8v144l4 8h16l4 -8v-144l-4 -8h-16zM4 176l-4 8v144l4 8h16l4 -8v-144l-4 -8h-16z" />
    <glyph glyph-name="section" unicode="&#xa7;" horiz-adv-x="224" 
d="M152 116v12l-4 8l-4 8l-4 8l-8 8l-8 4h-80l-8 4l-8 4l-8 4l-4 4v-12l4 -8l4 -8l4 -8l8 -8l8 -4h80l8 -4l8 -4l8 -4l4 -4v0zM44 -4l-8 4l-8 4l-8 4l-4 -8h-16l-4 8v40l4 8h16l4 -8l4 -8l4 -8l8 -8l8 -4l8 -4h64l8 4l8 4l8 8l4 8l4 8l4 8v16l-4 8l-4 8l-4 8l-8 8l-8 4h-80
l-8 4l-8 4l-8 4l-8 8l-8 8l-4 8l-4 8l-4 8v24l4 8l4 8l-4 8l-4 8v24l4 8l4 8l4 8l8 8l8 8l8 4l8 4l8 4h72l8 -4l8 -4l8 -4l4 8h16l4 -8v-40l-4 -8h-16l-4 8l-4 8l-4 8l-8 8l-8 4l-8 4h-56l-8 -4l-8 -4l-8 -8l-4 -8l-4 -8l-4 -8v-8l4 -8l4 -8l4 -8l8 -8l8 -4h80l8 -4l8 -4
l8 -4l8 -8l8 -8l4 -8l4 -8l4 -8v-32l-4 -8l-2 -4l2 -4l4 -8v-32l-4 -8l-4 -8l-4 -8l-8 -8l-8 -8l-8 -4l-8 -4l-8 -4h-80z" />
    <glyph glyph-name="dieresis" unicode="&#xa8;" horiz-adv-x="224" 
d="M24 344l-8 4l-8 4l-4 8l-4 8v8l4 8l4 8l8 4l8 4h8l8 -4l8 -4l4 -8l4 -8v-8l-4 -8l-4 -8l-8 -4l-8 -4h-8zM136 344l-8 4l-8 4l-4 8l-4 8v8l4 8l4 8l8 4l8 4h8l8 -4l8 -4l4 -8l4 -8v-8l-4 -8l-4 -8l-8 -4l-8 -4h-8z" />
    <glyph glyph-name="copyright" unicode="&#xa9;" horiz-adv-x="320" 
d="M116 36l-8 4l-8 4l-8 4l-8 4l-8 4l-8 8l-8 8l-8 8l-4 8l-4 8l-4 8l-4 8l-4 8v48l4 8l4 8l4 8l4 8l4 8l8 8l8 8l8 8l8 4l8 4l8 4l8 4l8 4h32l8 -4l8 -4l8 -4l8 -8l8 -8l4 -8l4 -8v-8l-4 -8l-4 -8l-8 -4l-8 -4h-8l-8 4l-8 4l-4 8l-4 8v8l4 8l4 8v4l-8 4h-16l-8 -4l-8 -4
l-8 -4l-8 -4l-8 -8l-8 -8l-8 -8l-4 -8l-4 -8l-4 -8v-48l4 -8l4 -8l4 -8l8 -8l8 -8l8 -8l8 -4l8 -4l8 -4l8 -4h24l8 4l8 4l8 8h8l8 -8v-8l-8 -8l-8 -4l-8 -4l-8 -4h-40zM156 16l8 4l8 4l8 4l8 4l8 4l4 4l4 4l4 4l4 4l4 4l4 8l4 8l4 8l4 8l4 8l4 8v80l-4 8l-4 8l-4 8l-4 8
l-4 8l-4 8l-4 4v0l-4 4l-4 4v0l-4 4l-4 4l-8 4l-8 4l-8 4l-8 4l-8 4h-56l-8 -4l-8 -4l-8 -4l-8 -4l-8 -4l-4 -4h-1l-3 -4l-4 -4h-1l-3 -4l-4 -4l-4 -8l-4 -8l-4 -8l-4 -8l-4 -8l-4 -8v-80l4 -8l4 -8l4 -8l4 -8l4 -8l4 -8l4 -4v-1l4 -3l4 -4v-1l4 -3l4 -4l8 -4l8 -4l8 -4
l8 -4l8 -4h56zM92 -4l-8 4l-8 4l-8 4l-8 4l-8 4l-8 8l-8 8l-8 8l-8 8l-4 8l-4 8l-4 8l-4 8l-4 8l-4 8l-4 8v80l4 8l4 8l4 8l4 8l4 8l4 8l4 8l8 8l8 8l8 8l8 8l8 4l8 4l8 4l8 4l8 4h72l8 -4l8 -4l8 -4l8 -4l8 -4l8 -8l8 -8l8 -8l8 -8l4 -8l4 -8l4 -8l4 -8l4 -8l4 -8l4 -8v-80
l-4 -8l-4 -8l-4 -8l-4 -8l-4 -8l-4 -8l-4 -8l-8 -8l-8 -8l-8 -8l-8 -8l-8 -4l-8 -4l-8 -4l-8 -4l-8 -4h-72z" />
    <glyph glyph-name="ordfeminine" unicode="&#xaa;" horiz-adv-x="184" 
d="M64 192l8 4l4 4l4 4l4 4l4 8v36l-8 4h-32l-8 -4l-8 -4l-8 -4l-4 -4l-4 -8v-16l4 -8l4 -4v-1l4 -3l4 -4l8 -4h24zM40 176l-8 4l-8 4l-8 4v0l-4 4l-4 4v0l-4 4l-4 8v24l4 8l4 8l8 8l8 4l8 4l8 4l8 4h40v24l-4 8l-4 4l-8 4h-32l-4 -2l4 -6v-8l-4 -8h-1l-3 -4l-8 -4h-8l-8 4
v0l-4 4l-4 8v8l4 8l4 4l8 4l8 4l8 4h40l8 -4l8 -4l8 -8l4 -8l4 -8v-96q0 -4 2 -6t6 -2q3 0 5 2q3 2 3 6h8v-8l-4 -8h-1l-3 -4l-8 -4h-8l-8 4v0l-4 4l-4 8l-8 -8l-8 -4l-8 -4h-24z" />
    <glyph glyph-name="guillemotleft" unicode="&#xab;" horiz-adv-x="212" 
d="M84 84l-8 4l-8 8l-8 8l-8 8l-8 8l-8 8l-8 8l-8 8l-8 8l-8 8l-4 8l4 8l8 8l8 8l8 8l8 8l8 8l8 8l8 8l8 8l8 8l8 4l8 -4v-16l-8 -8l-8 -8l-8 -8l-8 -8l-8 -8l-8 -8l-8 -8l-8 -8l8 -8l8 -8l8 -8l8 -8l8 -8l8 -8l8 -8l8 -8v-16l-8 -4v0zM148 84l-8 4l-8 8l-8 8l-8 8l-8 8
l-8 8l-8 8l-8 8l-8 8l-8 8l-4 8l4 8l8 8l8 8l8 8l8 8l8 8l8 8l8 8l8 8l8 8l8 4l8 -4v-16l-8 -8l-8 -8l-8 -8l-8 -8l-8 -8l-8 -8l-8 -8l-8 -8l8 -8l8 -8l8 -8l8 -8l8 -8l8 -8l8 -8l8 -8v-16l-8 -4v0z" />
    <glyph glyph-name="logicalnot" unicode="&#xac;" horiz-adv-x="248" 
d="M172 112l-4 8v36h-160l-8 4v12l8 4h176q3 0 5 -3q3 -2 3 -5v-48l-4 -8h-16z" />
    <glyph glyph-name="uni00AD" unicode="&#xad;" horiz-adv-x="168" 
d="M8 156l-8 4v12l8 4h96l8 -4v-12l-8 -4h-96z" />
    <glyph glyph-name="registered" unicode="&#xae;" horiz-adv-x="320" 
d="M172 172l4 4l4 8v24l-4 8l-4 4h-72v-48h72zM60 48l-8 4v12l8 4h16v152h-16l-8 4v12l8 4h112l8 -4l8 -4l8 -8l4 -8l4 -8v-24l-4 -8l-4 -8l-8 -8l-8 -4l-8 -4h-8l8 -8l4 -8l4 -8l4 -8l4 -8v-44h8l8 -4v-12l-8 -4h-24q-4 0 -6 2t-2 6v56l-4 8l-4 8l-4 8l-4 4v0l-4 4l-4 4v0
l-4 4h-36v-84h8l8 -4v-12l-8 -4h-48zM156 16l8 4l8 4l8 4l8 4l8 4l4 4l4 4l4 4l4 4l4 4l4 8l4 8l4 8l4 8l4 8l4 8v80l-4 8l-4 8l-4 8l-4 8l-4 8l-4 8l-4 4v0l-4 4l-4 4v0l-4 4l-4 4l-8 4l-8 4l-8 4l-8 4l-8 4h-56l-8 -4l-8 -4l-8 -4l-8 -4l-8 -4l-4 -4h-1l-3 -4l-4 -4h-1
l-3 -4l-4 -4l-4 -8l-4 -8l-4 -8l-4 -8l-4 -8l-4 -8v-80l4 -8l4 -8l4 -8l4 -8l4 -8l4 -8l4 -4v-1l4 -3l4 -4v-1l4 -3l4 -4l8 -4l8 -4l8 -4l8 -4l8 -4h56zM92 -4l-8 4l-8 4l-8 4l-8 4l-8 4l-8 8l-8 8l-8 8l-8 8l-4 8l-4 8l-4 8l-4 8l-4 8l-4 8l-4 8v80l4 8l4 8l4 8l4 8l4 8
l4 8l4 8l8 8l8 8l8 8l8 8l8 4l8 4l8 4l8 4l8 4h72l8 -4l8 -4l8 -4l8 -4l8 -4l8 -8l8 -8l8 -8l8 -8l4 -8l4 -8l4 -8l4 -8l4 -8l4 -8l4 -8v-80l-4 -8l-4 -8l-4 -8l-4 -8l-4 -8l-4 -8l-4 -8l-8 -8l-8 -8l-8 -8l-8 -8l-8 -4l-8 -4l-8 -4l-8 -4l-8 -4h-72z" />
    <glyph glyph-name="macron" unicode="&#xaf;" horiz-adv-x="224" 
d="M8 344l-8 4v12l8 4h152l8 -4v-12l-8 -4h-152z" />
    <glyph glyph-name="degree" unicode="&#xb0;" horiz-adv-x="152" 
d="M56 264l8 4l4 4l4 8v24l-4 8l-4 4l-8 4h-16l-8 -4l-4 -4l-4 -8v-24l4 -8l4 -4l8 -4h16zM32 248l-8 4l-8 4l-8 8l-4 8l-4 8v24l4 8l4 8l8 8l8 4l8 4h32l8 -4l8 -4l8 -8l4 -8l4 -8v-24l-4 -8l-4 -8l-8 -8l-8 -4l-8 -4h-32z" />
    <glyph glyph-name="plusminus" unicode="&#xb1;" horiz-adv-x="224" 
d="M8 68l-8 4v12l8 4h152l8 -4v-12l-8 -4h-152zM76 112l-4 8v60h-64l-8 4v12l8 4h64v64l4 8h16l4 -8v-64h64l8 -4v-12l-8 -4h-64v-60l-4 -8h-16z" />
    <glyph glyph-name="uni00B2" unicode="&#xb2;" horiz-adv-x="164" 
d="M12 176q-4 0 -6 2t-2 6v16l4 8l4 8l4 8l4 4l4 4l4 4l4 4l4 4l8 4l8 4l8 4l8 4l8 4l8 8l4 8v16l-4 8l-8 8l-8 4l-8 4h-16l-8 -4l-8 -4l-8 -8l-4 -8h-1l-3 -4l-4 -4h-4l-4 8l4 8l4 8l4 4l4 4l4 4l8 4l8 4l8 4h16l8 -4l8 -4l8 -4v-1l4 -3l4 -4v-1l4 -3l4 -8l4 -8v-16l-4 -8
l-4 -8h-1l-3 -4l-4 -4h-1l-3 -4l-8 -4l-8 -4l-8 -4l-8 -4l-8 -4l-8 -8l-8 -8l-4 -8l-4 -8v-8h80l8 -4v-8l-8 -4h-88z" />
    <glyph glyph-name="uni00B3" unicode="&#xb3;" horiz-adv-x="152" 
d="M44 176l-8 4l-8 4l-8 4v0l-4 4l-4 4v0l-4 4l-4 8l-4 8l4 8l8 -4v-1l4 -3l4 -8l8 -8l8 -4l8 -4h16l8 4l8 4l8 8l4 8v16l-4 8l-8 4l-8 4l-8 4v8l8 4l8 4l8 4l4 8v16l-4 8l-8 8l-8 4l-8 4h-16l-8 -4l-8 -4l-8 -8l-4 -8h-1l-3 -4l-4 -4h-4l-4 8l4 8l4 8l4 4l4 4l4 4l8 4l8 4
l8 4h16l8 -4l8 -4l8 -4v-1l4 -3l4 -4v-1l4 -3l4 -8l4 -8v-16l-4 -8l-4 -8h-1l-3 -4l-8 -4l8 -4v-1l4 -3l4 -8l4 -8v-16l-4 -8l-4 -8h-1l-3 -4l-4 -4h-1l-3 -4l-8 -4l-8 -4l-8 -4h-16z" />
    <glyph glyph-name="acute" unicode="&#xb4;" horiz-adv-x="156" 
d="M8 344l-8 8v4l4 4l4 4l4 4l4 4l4 4l4 4l4 4l4 4l4 4l4 4l4 4l4 4l4 4l4 4l4 4l4 4l4 4l4 4l4 4l4 4l4 4l4 4l8 -4l4 -8l-4 -8l-8 -8l-8 -8l-8 -8l-8 -8l-8 -8l-8 -8l-8 -8l-8 -8l-8 -8l-8 -8h-8z" />
    <glyph glyph-name="uni00B5" unicode="&#xb5;" 
d="M8 -120l-8 4v12l8 4h24v312h-24l-8 4v12l8 4h72l8 -4v-12l-8 -4h-24v-156l4 -8l4 -8l8 -8l8 -8l8 -4l8 -4h32l8 4l8 4l8 4l4 4l4 4l4 4l4 4l4 4l4 4l4 4l4 4l4 4l4 8l4 8l4 8v124h-24l-8 4v12l8 4h72l8 -4v-12l-8 -4h-24v-192h24l8 -4v-12l-8 -4h-40q-4 0 -6 2t-2 6v36
l-4 -4h-1l-3 -4l-4 -4h-1l-3 -4l-4 -4h-1l-3 -4l-8 -4l-8 -4l-8 -4l-8 -4l-8 -4l-8 -4h-40l-8 4l-8 4l-8 4l-8 8v-116h24l8 -4v-12l-8 -4h-72z" />
    <glyph glyph-name="paragraph" unicode="&#xb6;" horiz-adv-x="208" 
d="M80 212v96h-40l-8 -4l-4 -8l-4 -8v-48l4 -8l4 -8l8 -4l8 -4l8 -4h24zM84 -24l-4 8v208h-24l-8 4l-8 4l-8 4l-8 4l-8 8l-8 8l-4 8l-4 8v56l4 8l4 8l8 8l8 4l8 4h112q3 0 5 -3q3 -2 3 -5v-336l-4 -8h-20v336h-24v-336h-20z" />
    <glyph glyph-name="periodcentered" unicode="&#xb7;" horiz-adv-x="112" 
d="M24 144l-8 4l-8 4l-4 8l-4 8v8l4 8l4 8l8 4l8 4h8l8 -4l8 -4l4 -8l4 -8v-8l-4 -8l-4 -8l-8 -4l-8 -4h-8z" />
    <glyph glyph-name="cedilla" unicode="&#xb8;" horiz-adv-x="148" 
d="M28 -120l-8 4l-8 4l-8 8l-4 8l4 8h8l8 -4v0l4 -4l4 -4l8 -4h16l8 4l4 4l4 8v40l-4 8l-4 4l-8 4h-8q-4 0 -6 3q-2 2 -2 5v24h24v-16l8 -4l8 -4l8 -8l4 -8l4 -8v-40l-4 -8l-4 -8l-8 -8l-8 -4l-8 -4h-32z" />
    <glyph glyph-name="uni00B9" unicode="&#xb9;" horiz-adv-x="168" 
d="M8 176l-8 4v8l8 4h40v128l-8 -4l-8 -4l-8 -4l-8 -4l-8 -4l-8 4l4 8l4 4l8 4l8 4l8 4l8 4l8 4h8q3 0 5 -3q3 -2 3 -5v-136h40l8 -4v-8l-8 -4h-96z" />
    <glyph glyph-name="ordmasculine" unicode="&#xba;" horiz-adv-x="176" 
d="M72 192l8 4l8 4l8 8l4 8l4 8v56l-4 8l-4 8l-8 8l-8 4l-8 4h-24l-8 -4l-8 -4l-8 -8l-4 -8l-4 -8v-56l4 -8l4 -8l8 -8l8 -4l8 -4h24zM40 176l-8 4l-8 4l-8 8l-8 8l-4 8l-4 8v72l4 8l4 8l8 8l8 8l8 4l8 4h40l8 -4l8 -4l8 -8l8 -8l4 -8l4 -8v-72l-4 -8l-4 -8l-8 -8l-8 -8
l-8 -4l-8 -4h-40z" />
    <glyph glyph-name="guillemotright" unicode="&#xbb;" horiz-adv-x="204" 
d="M8 84l-8 4v16l8 8l8 8l8 8l8 8l8 8l8 8l8 8l8 8l-8 8l-8 8l-8 8l-8 8l-8 8l-8 8l-8 8l-8 8v16l8 4l8 -4l8 -8l8 -8l8 -8l8 -8l8 -8l8 -8l8 -8l8 -8l8 -8l4 -8l-4 -8l-8 -8l-8 -8l-8 -8l-8 -8l-8 -8l-8 -8l-8 -8l-8 -8l-8 -8l-8 -4v0zM72 84l-8 4v16l8 8l8 8l8 8l8 8l8 8
l8 8l8 8l8 8l-8 8l-8 8l-8 8l-8 8l-8 8l-8 8l-8 8l-8 8v16l8 4l8 -4l8 -8l8 -8l8 -8l8 -8l8 -8l8 -8l8 -8l8 -8l8 -8l4 -8l-4 -8l-8 -8l-8 -8l-8 -8l-8 -8l-8 -8l-8 -8l-8 -8l-8 -8l-8 -8l-8 -4v0z" />
    <glyph glyph-name="onequarter" unicode="&#xbc;" horiz-adv-x="304" 
d="M212 0l-4 8v16h-56l-4 8l4 8l4 8l4 8l4 8l4 8v56l-4 8l-4 8l-4 8v8h12l4 -8l4 -8l4 -8l4 -8v-56l-4 -8l-4 -8l-4 -8l-4 -8h40v64l4 8h8l4 -8v-64h16l8 -4v-8l-8 -4h-16v-16l-4 -8h-8zM8 176l-8 4v8l8 4h40v128l-8 -4l-8 -4l-8 -4l-8 -4l-8 -4l-8 4l4 8l4 4l8 4l8 4l8 4
l8 4l8 4h8q3 0 5 -3q3 -2 3 -5v-136h40l8 -4v-8l-8 -4h-96zM32 0l4 8l4 8l4 8l4 8l4 8l4 8l4 8l4 8l4 8l4 8l4 8l4 8l4 8l4 8l4 8l4 8l4 8l4 8l4 8l4 8l4 8l4 8l4 8l4 8l4 8l4 8l4 8l4 8l4 8l4 8l4 8l4 8l4 8l4 8l4 8l4 8l4 8l4 8l4 8l4 8l4 8l4 8h16l-4 -8l-4 -8l-4 -8
l-4 -8l-4 -8l-4 -8l-4 -8l-4 -8l-4 -8l-4 -8l-4 -8l-4 -8l-4 -8l-4 -8l-4 -8l-4 -8l-4 -8l-4 -8l-4 -8l-4 -8l-4 -8l-4 -8l-4 -8l-4 -8l-4 -8l-4 -8l-4 -8l-4 -8l-4 -8l-4 -8l-4 -8l-4 -8l-4 -8l-4 -8l-4 -8l-4 -8l-4 -8l-4 -8l-4 -8l-4 -8l-4 -8l-4 -8h-16z" />
    <glyph glyph-name="onehalf" unicode="&#xbd;" horiz-adv-x="304" 
d="M152 0q-4 0 -6 2t-2 6v16l4 8l4 8l4 8l4 4l4 4l4 4l4 4l4 4l8 4l8 4l8 4l8 4l8 4l8 8l4 8v16l-4 8l-8 8l-8 4l-8 4h-16l-8 -4l-8 -4l-8 -8l-4 -8h-1l-3 -4l-4 -4h-4l-4 8l4 8l4 8l4 4l4 4l4 4l8 4l8 4l8 4h16l8 -4l8 -4l8 -4v-1l4 -3l4 -4v-1l4 -3l4 -8l4 -8v-16l-4 -8
l-4 -8h-1l-3 -4l-4 -4h-1l-3 -4l-8 -4l-8 -4l-8 -4l-8 -4l-8 -4l-8 -8l-8 -8l-4 -8l-4 -8v-8h80l8 -4v-8l-8 -4h-88zM8 176l-8 4v8l8 4h40v128l-8 -4l-8 -4l-8 -4l-8 -4l-8 -4l-8 4l4 8l4 4l8 4l8 4l8 4l8 4l8 4h8q3 0 5 -3q3 -2 3 -5v-136h40l8 -4v-8l-8 -4h-96zM32 0l4 8
l4 8l4 8l4 8l4 8l4 8l4 8l4 8l4 8l4 8l4 8l4 8l4 8l4 8l4 8l4 8l4 8l4 8l4 8l4 8l4 8l4 8l4 8l4 8l4 8l4 8l4 8l4 8l4 8l4 8l4 8l4 8l4 8l4 8l4 8l4 8l4 8l4 8l4 8l4 8l4 8l4 8h16l-4 -8l-4 -8l-4 -8l-4 -8l-4 -8l-4 -8l-4 -8l-4 -8l-4 -8l-4 -8l-4 -8l-4 -8l-4 -8l-4 -8
l-4 -8l-4 -8l-4 -8l-4 -8l-4 -8l-4 -8l-4 -8l-4 -8l-4 -8l-4 -8l-4 -8l-4 -8l-4 -8l-4 -8l-4 -8l-4 -8l-4 -8l-4 -8l-4 -8l-4 -8l-4 -8l-4 -8l-4 -8l-4 -8l-4 -8l-4 -8l-4 -8l-4 -8h-16z" />
    <glyph glyph-name="threequarters" unicode="&#xbe;" horiz-adv-x="300" 
d="M208 0l-4 8v16h-56l-4 8l4 8l4 8l4 8l4 8l4 8v56l-4 8l-4 8l-4 8v8h12l4 -8l4 -8l4 -8l4 -8v-56l-4 -8l-4 -8l-4 -8l-4 -8h40v64l4 8h8l4 -8v-64h16l8 -4v-8l-8 -4h-16v-16l-4 -8h-8zM44 176l-8 4l-8 4l-8 4v0l-4 4l-4 4v0l-4 4l-4 8l-4 8l4 8l8 -4v-1l4 -3l4 -8l8 -8
l8 -4l8 -4h16l8 4l8 4l8 8l4 8v16l-4 8l-8 4l-8 4l-8 4v8l8 4l8 4l8 4l4 8v16l-4 8l-8 8l-8 4l-8 4h-16l-8 -4l-8 -4l-8 -8l-4 -8h-1l-3 -4l-4 -4h-4l-4 8l4 8l4 8l4 4l4 4l4 4l8 4l8 4l8 4h16l8 -4l8 -4l8 -4v-1l4 -3l4 -4v-1l4 -3l4 -8l4 -8v-16l-4 -8l-4 -8h-1l-3 -4
l-8 -4l8 -4v-1l4 -3l4 -8l4 -8v-16l-4 -8l-4 -8h-1l-3 -4l-4 -4h-1l-3 -4l-8 -4l-8 -4l-8 -4h-16zM28 0l4 8l4 8l4 8l4 8l4 8l4 8l4 8l4 8l4 8l4 8l4 8l4 8l4 8l4 8l4 8l4 8l4 8l4 8l4 8l4 8l4 8l4 8l4 8l4 8l4 8l4 8l4 8l4 8l4 8l4 8l4 8l4 8l4 8l4 8l4 8l4 8l4 8l4 8l4 8
l4 8l4 8l4 8h16l-4 -8l-4 -8l-4 -8l-4 -8l-4 -8l-4 -8l-4 -8l-4 -8l-4 -8l-4 -8l-4 -8l-4 -8l-4 -8l-4 -8l-4 -8l-4 -8l-4 -8l-4 -8l-4 -8l-4 -8l-4 -8l-4 -8l-4 -8l-4 -8l-4 -8l-4 -8l-4 -8l-4 -8l-4 -8l-4 -8l-4 -8l-4 -8l-4 -8l-4 -8l-4 -8l-4 -8l-4 -8l-4 -8l-4 -8
l-4 -8l-4 -8l-4 -8h-16z" />
    <glyph glyph-name="questiondown" unicode="&#xbf;" horiz-adv-x="256" 
d="M88 -132l-8 4l-8 4l-8 4l-8 4l-8 4l-8 8l-8 8l-4 8l-4 8l-4 8l-4 8v40l4 8l4 8l4 8l4 8l8 8l8 8l8 4l8 4l8 4l8 4l8 8l4 8l4 8v56l4 8h16l4 -8v-64l-4 -8l-4 -8l-8 -8l-8 -4l-8 -4l-8 -4l-8 -4l-8 -8l-8 -8l-8 -8l-4 -8l-4 -8v-40l4 -8l4 -8l8 -8l8 -8l8 -8l8 -4l8 -4h48
l8 4l8 4l8 4l-8 4l-4 8l-4 8v8l4 8l4 8l8 4l8 4h8l8 -4l8 -4l4 -8l4 -8v-8l-4 -8l-4 -8l-8 -8l-8 -8l-8 -4l-8 -4l-8 -4l-8 -4l-8 -4h-48zM104 152l-8 4l-8 4l-4 8l-4 8v8l4 8l4 8l8 4l8 4h8l8 -4l8 -4l4 -8l4 -8v-8l-4 -8l-4 -8l-8 -4l-8 -4h-8z" />
    <glyph glyph-name="Agrave" unicode="&#xc0;" horiz-adv-x="472" 
d="M310 100l-2 4l-4 8l-4 8l-4 8l-4 8l-4 8l-4 8l-4 8l-4 8l-4 8l-4 8l-4 8l-4 8l-4 8l-4 8l-4 8l-4 8l-4 8l-4 8l-4 8l-4 8l-4 8l-4 8l-4 8l-4 8l-4 8l-4 -8l-4 -8l-4 -8l-4 -8l-4 -8l-4 -8l-4 -8l-4 -8l-4 -8l-4 -8l-4 -8l-4 -8l-4 -8l-4 -8l-4 -8l-4 -8l-4 -8l-4 -8
l-4 -8l-4 -8l-4 -8l-4 -8l-4 -8l-4 -8l-4 -8l-2 -4h204zM8 0l-8 4v12l8 4h34l2 4l4 8l4 8l4 8l4 8l4 8l4 8l4 8l4 8l4 8l4 8l4 8l4 8l4 8l4 8l4 8l4 8l4 8l4 8l4 8l4 8l4 8l4 8l4 8l4 8l4 8l4 8l4 8l4 8l4 8l4 8l4 8l4 8l4 8l4 8l4 8l4 8l4 8l4 8l4 4l8 4l8 -4v-1l4 -3l4 -8
l4 -8l4 -8l4 -8l4 -8l4 -8l4 -8l4 -8l4 -8l4 -8l4 -8l4 -8l4 -8l4 -8l4 -8l4 -8l4 -8l4 -8l4 -8l4 -8l4 -8l4 -8l4 -8l4 -8l4 -8l4 -8l4 -8l4 -8l4 -8l4 -8l4 -8l4 -8l4 -8l4 -8l4 -8l4 -8l4 -8l4 -8l2 -4h34l8 -4v-12l-8 -4h-96l-8 4v12l8 4h38l-2 4l-4 8l-4 8l-4 8l-4 8
l-4 8l-4 8l-4 8h-224l-4 -8l-4 -8l-4 -8l-4 -8l-4 -8l-4 -8l-4 -8l-2 -4h38l8 -4v-12l-8 -4h-96zM248 344l-8 8l-8 8l-8 8l-8 8l-8 8l-8 8l-8 8l-8 8l-8 8l-8 8l-4 8l4 8l7 3v1h1v-1l4 -3l4 -4v-1l4 -3l4 -4v-1l4 -3l4 -4v-1l4 -3l4 -4v-1l4 -3l4 -4v-1l4 -3l4 -4v-1l4 -3
l4 -4v-1l4 -3l4 -4v-1l4 -3l4 -4v-1l4 -3l4 -4v-1l4 -3l4 -4v-4l-8 -8h-8z" />
    <glyph glyph-name="Aacute" unicode="&#xc1;" horiz-adv-x="472" 
d="M310 100l-2 4l-4 8l-4 8l-4 8l-4 8l-4 8l-4 8l-4 8l-4 8l-4 8l-4 8l-4 8l-4 8l-4 8l-4 8l-4 8l-4 8l-4 8l-4 8l-4 8l-4 8l-4 8l-4 8l-4 8l-4 8l-4 8l-4 -8l-4 -8l-4 -8l-4 -8l-4 -8l-4 -8l-4 -8l-4 -8l-4 -8l-4 -8l-4 -8l-4 -8l-4 -8l-4 -8l-4 -8l-4 -8l-4 -8l-4 -8
l-4 -8l-4 -8l-4 -8l-4 -8l-4 -8l-4 -8l-4 -8l-2 -4h204zM8 0l-8 4v12l8 4h34l2 4l4 8l4 8l4 8l4 8l4 8l4 8l4 8l4 8l4 8l4 8l4 8l4 8l4 8l4 8l4 8l4 8l4 8l4 8l4 8l4 8l4 8l4 8l4 8l4 8l4 8l4 8l4 8l4 8l4 8l4 8l4 8l4 8l4 8l4 8l4 8l4 8l4 8l4 8l4 4l8 4l8 -4v-1l4 -3l4 -8
l4 -8l4 -8l4 -8l4 -8l4 -8l4 -8l4 -8l4 -8l4 -8l4 -8l4 -8l4 -8l4 -8l4 -8l4 -8l4 -8l4 -8l4 -8l4 -8l4 -8l4 -8l4 -8l4 -8l4 -8l4 -8l4 -8l4 -8l4 -8l4 -8l4 -8l4 -8l4 -8l4 -8l4 -8l4 -8l4 -8l4 -8l2 -4h34l8 -4v-12l-8 -4h-96l-8 4v12l8 4h38l-2 4l-4 8l-4 8l-4 8l-4 8
l-4 8l-4 8l-4 8h-224l-4 -8l-4 -8l-4 -8l-4 -8l-4 -8l-4 -8l-4 -8l-2 -4h38l8 -4v-12l-8 -4h-96zM160 344l-8 8v4l4 4l4 4l4 4l4 4l4 4l4 4l4 4l4 4l4 4l4 4l4 4l4 4l4 4l4 4l4 4l4 4l4 4l4 4l4 4l4 4l4 4l4 4l8 -4l4 -8l-4 -8l-8 -8l-8 -8l-8 -8l-8 -8l-8 -8l-8 -8l-8 -8
l-8 -8l-8 -8l-8 -8h-8z" />
    <glyph glyph-name="Acircumflex" unicode="&#xc2;" horiz-adv-x="472" 
d="M310 100l-2 4l-4 8l-4 8l-4 8l-4 8l-4 8l-4 8l-4 8l-4 8l-4 8l-4 8l-4 8l-4 8l-4 8l-4 8l-4 8l-4 8l-4 8l-4 8l-4 8l-4 8l-4 8l-4 8l-4 8l-4 8l-4 8l-4 -8l-4 -8l-4 -8l-4 -8l-4 -8l-4 -8l-4 -8l-4 -8l-4 -8l-4 -8l-4 -8l-4 -8l-4 -8l-4 -8l-4 -8l-4 -8l-4 -8l-4 -8
l-4 -8l-4 -8l-4 -8l-4 -8l-4 -8l-4 -8l-4 -8l-2 -4h204zM8 0l-8 4v12l8 4h34l2 4l4 8l4 8l4 8l4 8l4 8l4 8l4 8l4 8l4 8l4 8l4 8l4 8l4 8l4 8l4 8l4 8l4 8l4 8l4 8l4 8l4 8l4 8l4 8l4 8l4 8l4 8l4 8l4 8l4 8l4 8l4 8l4 8l4 8l4 8l4 8l4 8l4 8l4 8l4 4l8 4l8 -4v-1l4 -3l4 -8
l4 -8l4 -8l4 -8l4 -8l4 -8l4 -8l4 -8l4 -8l4 -8l4 -8l4 -8l4 -8l4 -8l4 -8l4 -8l4 -8l4 -8l4 -8l4 -8l4 -8l4 -8l4 -8l4 -8l4 -8l4 -8l4 -8l4 -8l4 -8l4 -8l4 -8l4 -8l4 -8l4 -8l4 -8l4 -8l4 -8l4 -8l2 -4h34l8 -4v-12l-8 -4h-96l-8 4v12l8 4h38l-2 4l-4 8l-4 8l-4 8l-4 8
l-4 8l-4 8l-4 8h-224l-4 -8l-4 -8l-4 -8l-4 -8l-4 -8l-4 -8l-4 -8l-2 -4h38l8 -4v-12l-8 -4h-96zM112 344v4l4 4l4 4l4 4l4 4l4 4l4 4l4 4l4 4l4 4l4 4l4 4l4 4l4 4l4 4l4 4l4 4l4 4l4 4l4 4l4 4l4 4l4 4l4 4h8l4 -4v-1l4 -3l4 -4v-1l4 -3l4 -4v-1l4 -3l4 -4v-1l4 -3l4 -4
v-1l4 -3l4 -4v-1l4 -3l4 -4v-1l4 -3l4 -4v-1l4 -3l4 -4v-1l4 -3l4 -4v-1l4 -3l4 -4v-1l4 -3l4 -4v-4h-24l-8 8l-8 8l-8 8l-8 8l-8 8l-8 8l-8 8l-8 8l-8 8l-8 -8l-8 -8l-8 -8l-8 -8l-8 -8l-8 -8l-8 -8l-8 -8l-8 -8h-24z" />
    <glyph glyph-name="Atilde" unicode="&#xc3;" horiz-adv-x="472" 
d="M310 100l-2 4l-4 8l-4 8l-4 8l-4 8l-4 8l-4 8l-4 8l-4 8l-4 8l-4 8l-4 8l-4 8l-4 8l-4 8l-4 8l-4 8l-4 8l-4 8l-4 8l-4 8l-4 8l-4 8l-4 8l-4 8l-4 8l-4 -8l-4 -8l-4 -8l-4 -8l-4 -8l-4 -8l-4 -8l-4 -8l-4 -8l-4 -8l-4 -8l-4 -8l-4 -8l-4 -8l-4 -8l-4 -8l-4 -8l-4 -8
l-4 -8l-4 -8l-4 -8l-4 -8l-4 -8l-4 -8l-4 -8l-2 -4h204zM8 0l-8 4v12l8 4h34l2 4l4 8l4 8l4 8l4 8l4 8l4 8l4 8l4 8l4 8l4 8l4 8l4 8l4 8l4 8l4 8l4 8l4 8l4 8l4 8l4 8l4 8l4 8l4 8l4 8l4 8l4 8l4 8l4 8l4 8l4 8l4 8l4 8l4 8l4 8l4 8l4 8l4 8l4 8l4 4l8 4l8 -4v-1l4 -3l4 -8
l4 -8l4 -8l4 -8l4 -8l4 -8l4 -8l4 -8l4 -8l4 -8l4 -8l4 -8l4 -8l4 -8l4 -8l4 -8l4 -8l4 -8l4 -8l4 -8l4 -8l4 -8l4 -8l4 -8l4 -8l4 -8l4 -8l4 -8l4 -8l4 -8l4 -8l4 -8l4 -8l4 -8l4 -8l4 -8l4 -8l4 -8l2 -4h34l8 -4v-12l-8 -4h-96l-8 4v12l8 4h38l-2 4l-4 8l-4 8l-4 8l-4 8
l-4 8l-4 8l-4 8h-224l-4 -8l-4 -8l-4 -8l-4 -8l-4 -8l-4 -8l-4 -8l-2 -4h38l8 -4v-12l-8 -4h-96zM240 344l-8 4l-8 4l-8 4v0l-4 4l-4 4v0l-4 4l-4 4v0l-4 4l-4 4l-8 4l-8 4h-24l-8 -4l-8 -4l-4 -4l-4 -8l-4 -8l-4 -8h-16l-4 8l4 8l4 8l4 8l8 8l8 8l8 4l8 4h40l8 -4l8 -4
l8 -8l8 -8l8 -8l8 -8l8 -4h24l8 4l8 4l4 4l4 8l4 8l4 8h16l4 -8l-4 -8l-4 -8l-4 -8l-8 -8l-8 -8l-8 -4l-8 -4h-32z" />
    <glyph glyph-name="Adieresis" unicode="&#xc4;" horiz-adv-x="472" 
d="M310 100l-2 4l-4 8l-4 8l-4 8l-4 8l-4 8l-4 8l-4 8l-4 8l-4 8l-4 8l-4 8l-4 8l-4 8l-4 8l-4 8l-4 8l-4 8l-4 8l-4 8l-4 8l-4 8l-4 8l-4 8l-4 8l-4 8l-4 -8l-4 -8l-4 -8l-4 -8l-4 -8l-4 -8l-4 -8l-4 -8l-4 -8l-4 -8l-4 -8l-4 -8l-4 -8l-4 -8l-4 -8l-4 -8l-4 -8l-4 -8
l-4 -8l-4 -8l-4 -8l-4 -8l-4 -8l-4 -8l-4 -8l-2 -4h204zM8 0l-8 4v12l8 4h34l2 4l4 8l4 8l4 8l4 8l4 8l4 8l4 8l4 8l4 8l4 8l4 8l4 8l4 8l4 8l4 8l4 8l4 8l4 8l4 8l4 8l4 8l4 8l4 8l4 8l4 8l4 8l4 8l4 8l4 8l4 8l4 8l4 8l4 8l4 8l4 8l4 8l4 8l4 8l4 4l8 4l8 -4v-1l4 -3l4 -8
l4 -8l4 -8l4 -8l4 -8l4 -8l4 -8l4 -8l4 -8l4 -8l4 -8l4 -8l4 -8l4 -8l4 -8l4 -8l4 -8l4 -8l4 -8l4 -8l4 -8l4 -8l4 -8l4 -8l4 -8l4 -8l4 -8l4 -8l4 -8l4 -8l4 -8l4 -8l4 -8l4 -8l4 -8l4 -8l4 -8l4 -8l2 -4h34l8 -4v-12l-8 -4h-96l-8 4v12l8 4h38l-2 4l-4 8l-4 8l-4 8l-4 8
l-4 8l-4 8l-4 8h-224l-4 -8l-4 -8l-4 -8l-4 -8l-4 -8l-4 -8l-4 -8l-2 -4h38l8 -4v-12l-8 -4h-96zM144 344l-8 4l-8 4l-4 8l-4 8v8l4 8l4 8l8 4l8 4h8l8 -4l8 -4l4 -8l4 -8v-8l-4 -8l-4 -8l-8 -4l-8 -4h-8zM264 344l-8 4l-8 4l-4 8l-4 8v8l4 8l4 8l8 4l8 4h8l8 -4l8 -4l4 -8
l4 -8v-8l-4 -8l-4 -8l-8 -4l-8 -4h-8z" />
    <glyph glyph-name="Aring" unicode="&#xc5;" horiz-adv-x="472" 
d="M310 100l-2 4l-4 8l-4 8l-4 8l-4 8l-4 8l-4 8l-4 8l-4 8l-4 8l-4 8l-4 8l-4 8l-4 8l-4 8l-4 8l-4 8l-4 8l-4 8l-4 8l-4 8l-4 8l-4 8l-4 8l-4 8l-4 8l-4 -8l-4 -8l-4 -8l-4 -8l-4 -8l-4 -8l-4 -8l-4 -8l-4 -8l-4 -8l-4 -8l-4 -8l-4 -8l-4 -8l-4 -8l-4 -8l-4 -8l-4 -8
l-4 -8l-4 -8l-4 -8l-4 -8l-4 -8l-4 -8l-4 -8l-2 -4h204zM8 0l-8 4v12l8 4h34l2 4l4 8l4 8l4 8l4 8l4 8l4 8l4 8l4 8l4 8l4 8l4 8l4 8l4 8l4 8l4 8l4 8l4 8l4 8l4 8l4 8l4 8l4 8l4 8l4 8l4 8l4 8l4 8l4 8l4 8l4 8l4 8l4 8l4 8l4 8l4 8l4 8l4 8l4 8l4 4l8 4l8 -4v-1l4 -3l4 -8
l4 -8l4 -8l4 -8l4 -8l4 -8l4 -8l4 -8l4 -8l4 -8l4 -8l4 -8l4 -8l4 -8l4 -8l4 -8l4 -8l4 -8l4 -8l4 -8l4 -8l4 -8l4 -8l4 -8l4 -8l4 -8l4 -8l4 -8l4 -8l4 -8l4 -8l4 -8l4 -8l4 -8l4 -8l4 -8l4 -8l4 -8l2 -4h34l8 -4v-12l-8 -4h-96l-8 4v12l8 4h38l-2 4l-4 8l-4 8l-4 8l-4 8
l-4 8l-4 8l-4 8h-224l-4 -8l-4 -8l-4 -8l-4 -8l-4 -8l-4 -8l-4 -8l-2 -4h38l8 -4v-12l-8 -4h-96zM216 360l8 4l4 4l4 8v40l-4 8l-4 4l-8 4h-16l-8 -4l-4 -4l-4 -8v-40l4 -8l4 -4l8 -4h16zM192 344l-8 4l-8 4l-8 8l-4 8l-4 8v40l4 8l4 8l8 8l8 4l8 4h32l8 -4l8 -4l8 -8l4 -8
l4 -8v-40l-4 -8l-4 -8l-8 -8l-8 -4l-8 -4h-32z" />
    <glyph glyph-name="AE" unicode="&#xc6;" horiz-adv-x="488" 
d="M208 100v204l-4 -8l-4 -8l-4 -8l-4 -8l-4 -8l-4 -8l-4 -8l-4 -8l-4 -8l-4 -8l-4 -8l-4 -8l-4 -8l-4 -8l-4 -8l-4 -8l-4 -8l-4 -8l-4 -8l-4 -8l-4 -8l-4 -8l-4 -8l-4 -8l-4 -8l-2 -4h102zM8 0l-8 4v12l8 4h34l2 4l4 8l4 8l4 8l4 8l4 8l4 8l4 8l4 8l4 8l4 8l4 8l4 8l4 8
l4 8l4 8l4 8l4 8l4 8l4 8l4 8l4 8l4 8l4 8l4 8l4 8l4 8l4 8l4 8l4 8l4 8l4 8l4 8l4 8l4 8l4 8l4 8l2 4h-22l-8 4v12l8 4h256q3 0 5 -3q3 -2 3 -5v-112l-4 -8h-16l-4 8v100h-176v-128h76v36l4 8h16l4 -8v-96l-4 -8h-16l-4 8v40h-76v-148h176v100l4 8h16l4 -8v-112q0 -4 -3 -6
q-2 -2 -5 -2h-256l-8 4v12l8 4h40v60h-112l-4 -8l-4 -8l-4 -8l-4 -8l-4 -8l-4 -8l-4 -8l-2 -4h38l8 -4v-12l-8 -4h-96z" />
    <glyph glyph-name="Ccedilla" unicode="&#xc7;" horiz-adv-x="304" 
d="M108 -120l-8 4l-8 4l-8 8l-4 8l4 8h8l8 -4v0l4 -4l4 -4l8 -4h16l8 4l4 4l4 8v40l-4 8l-4 4l-8 4h-8q-4 0 -6 3q-2 2 -2 5v20h-24l-8 4l-8 4l-8 4l-8 4l-8 4l-8 8l-8 8l-8 8l-8 8l-4 8l-4 8l-4 8l-4 8l-4 8l-4 8l-4 8v128l4 8l4 8l4 8l4 8l4 8l4 8l4 8l8 8l8 8l8 8l8 8
l8 4l8 4l8 4l8 4l8 4h72l8 -4l8 -4l8 -4l8 -4l8 -4l8 -8l8 -8l8 -8h4v32l4 8h16l4 -8v-112l-4 -8h-16l-4 8v32l-4 8l-4 8l-4 8l-4 8l-4 4v0l-4 4l-4 4v0l-4 4l-4 4l-8 4l-8 4l-8 4l-8 4l-8 4h-56l-8 -4l-8 -4l-8 -4l-8 -4l-8 -4l-4 -4h-1l-3 -4l-4 -4h-1l-3 -4l-4 -4l-4 -8
l-4 -8l-4 -8l-4 -8l-4 -8l-4 -8v-128l4 -8l4 -8l4 -8l4 -8l4 -8l4 -8l4 -4v-1l4 -3l4 -4v-1l4 -3l4 -4l8 -4l8 -4l8 -4l8 -4l8 -4h56l8 4l8 4l8 4l8 4l8 4l4 4l4 4l4 4l4 4l4 4l4 8l4 8l4 8v8l8 4h8l8 -4v-8l-4 -8l-4 -8l-4 -8l-4 -8l-8 -8l-8 -8l-8 -8l-8 -8l-8 -4l-8 -4
l-8 -4l-8 -4l-8 -4h-24v-12l8 -4l8 -4l8 -8l4 -8l4 -8v-40l-4 -8l-4 -8l-8 -8l-8 -4l-8 -4h-32z" />
    <glyph glyph-name="Egrave" unicode="&#xc8;" horiz-adv-x="328" 
d="M8 0l-8 4v12l8 4h40v296h-40l-8 4v12l8 4h256q3 0 5 -3q3 -2 3 -5v-112l-4 -8h-16l-4 8v100h-176v-128h76v36l4 8h16l4 -8v-96l-4 -8h-16l-4 8v40h-76v-148h176v100l4 8h16l4 -8v-112q0 -4 -3 -6q-2 -2 -5 -2h-256zM176 344l-8 8l-8 8l-8 8l-8 8l-8 8l-8 8l-8 8l-8 8
l-8 8l-8 8l-4 8l4 8l7 3v1h1v-1l4 -3l4 -4v-1l4 -3l4 -4v-1l4 -3l4 -4v-1l4 -3l4 -4v-1l4 -3l4 -4v-1l4 -3l4 -4v-1l4 -3l4 -4v-1l4 -3l4 -4v-1l4 -3l4 -4v-1l4 -3l4 -4v-1l4 -3l4 -4v-4l-8 -8h-8z" />
    <glyph glyph-name="Eacute" unicode="&#xc9;" horiz-adv-x="328" 
d="M8 0l-8 4v12l8 4h40v296h-40l-8 4v12l8 4h256q3 0 5 -3q3 -2 3 -5v-112l-4 -8h-16l-4 8v100h-176v-128h76v36l4 8h16l4 -8v-96l-4 -8h-16l-4 8v40h-76v-148h176v100l4 8h16l4 -8v-112q0 -4 -3 -6q-2 -2 -5 -2h-256zM112 344l-8 8v4l4 4l4 4l4 4l4 4l4 4l4 4l4 4l4 4l4 4
l4 4l4 4l4 4l4 4l4 4l4 4l4 4l4 4l4 4l4 4l4 4l4 4l4 4l8 -4l4 -8l-4 -8l-8 -8l-8 -8l-8 -8l-8 -8l-8 -8l-8 -8l-8 -8l-8 -8l-8 -8l-8 -8h-8z" />
    <glyph glyph-name="Ecircumflex" unicode="&#xca;" horiz-adv-x="328" 
d="M8 0l-8 4v12l8 4h40v296h-40l-8 4v12l8 4h256q3 0 5 -3q3 -2 3 -5v-112l-4 -8h-16l-4 8v100h-176v-128h76v36l4 8h16l4 -8v-96l-4 -8h-16l-4 8v40h-76v-148h176v100l4 8h16l4 -8v-112q0 -4 -3 -6q-2 -2 -5 -2h-256zM56 344v4l4 4l4 4l4 4l4 4l4 4l4 4l4 4l4 4l4 4l4 4
l4 4l4 4l4 4l4 4l4 4l4 4l4 4l4 4l4 4l4 4l4 4l4 4l4 4h8l4 -4v-1l4 -3l4 -4v-1l4 -3l4 -4v-1l4 -3l4 -4v-1l4 -3l4 -4v-1l4 -3l4 -4v-1l4 -3l4 -4v-1l4 -3l4 -4v-1l4 -3l4 -4v-1l4 -3l4 -4v-1l4 -3l4 -4v-1l4 -3l4 -4v-4h-24l-8 8l-8 8l-8 8l-8 8l-8 8l-8 8l-8 8l-8 8l-8 8
l-8 -8l-8 -8l-8 -8l-8 -8l-8 -8l-8 -8l-8 -8l-8 -8l-8 -8h-24z" />
    <glyph glyph-name="Edieresis" unicode="&#xcb;" horiz-adv-x="328" 
d="M8 0l-8 4v12l8 4h40v296h-40l-8 4v12l8 4h256q3 0 5 -3q3 -2 3 -5v-112l-4 -8h-16l-4 8v100h-176v-128h76v36l4 8h16l4 -8v-96l-4 -8h-16l-4 8v40h-76v-148h176v100l4 8h16l4 -8v-112q0 -4 -3 -6q-2 -2 -5 -2h-256zM88 344l-8 4l-8 4l-4 8l-4 8v8l4 8l4 8l8 4l8 4h8l8 -4
l8 -4l4 -8l4 -8v-8l-4 -8l-4 -8l-8 -4l-8 -4h-8zM208 344l-8 4l-8 4l-4 8l-4 8v8l4 8l4 8l8 4l8 4h8l8 -4l8 -4l4 -8l4 -8v-8l-4 -8l-4 -8l-8 -4l-8 -4h-8z" />
    <glyph glyph-name="Igrave" unicode="&#xcc;" horiz-adv-x="272" 
d="M8 0l-8 4v12l8 4h88v296h-88l-8 4v12l8 4h200l8 -4v-12l-8 -4h-88v-296h88l8 -4v-12l-8 -4h-200zM152 344l-8 8l-8 8l-8 8l-8 8l-8 8l-8 8l-8 8l-8 8l-8 8l-8 8l-4 8l4 8l7 3v1h1v-1l4 -3l4 -4v-1l4 -3l4 -4v-1l4 -3l4 -4v-1l4 -3l4 -4v-1l4 -3l4 -4v-1l4 -3l4 -4v-1
l4 -3l4 -4v-1l4 -3l4 -4v-1l4 -3l4 -4v-1l4 -3l4 -4v-1l4 -3l4 -4v-4l-8 -8h-8z" />
    <glyph glyph-name="Iacute" unicode="&#xcd;" horiz-adv-x="272" 
d="M8 0l-8 4v12l8 4h88v296h-88l-8 4v12l8 4h200l8 -4v-12l-8 -4h-88v-296h88l8 -4v-12l-8 -4h-200zM56 344l-8 8v4l4 4l4 4l4 4l4 4l4 4l4 4l4 4l4 4l4 4l4 4l4 4l4 4l4 4l4 4l4 4l4 4l4 4l4 4l4 4l4 4l4 4l4 4l8 -4l4 -8l-4 -8l-8 -8l-8 -8l-8 -8l-8 -8l-8 -8l-8 -8l-8 -8
l-8 -8l-8 -8l-8 -8h-8z" />
    <glyph glyph-name="Icircumflex" unicode="&#xce;" horiz-adv-x="272" 
d="M8 0l-8 4v12l8 4h88v296h-88l-8 4v12l8 4h200l8 -4v-12l-8 -4h-88v-296h88l8 -4v-12l-8 -4h-200zM16 344v4l4 4l4 4l4 4l4 4l4 4l4 4l4 4l4 4l4 4l4 4l4 4l4 4l4 4l4 4l4 4l4 4l4 4l4 4l4 4l4 4l4 4l4 4l4 4h8l4 -4v-1l4 -3l4 -4v-1l4 -3l4 -4v-1l4 -3l4 -4v-1l4 -3l4 -4
v-1l4 -3l4 -4v-1l4 -3l4 -4v-1l4 -3l4 -4v-1l4 -3l4 -4v-1l4 -3l4 -4v-1l4 -3l4 -4v-1l4 -3l4 -4v-4h-24l-8 8l-8 8l-8 8l-8 8l-8 8l-8 8l-8 8l-8 8l-8 8l-8 -8l-8 -8l-8 -8l-8 -8l-8 -8l-8 -8l-8 -8l-8 -8l-8 -8h-24z" />
    <glyph glyph-name="Idieresis" unicode="&#xcf;" horiz-adv-x="272" 
d="M8 0l-8 4v12l8 4h88v296h-88l-8 4v12l8 4h200l8 -4v-12l-8 -4h-88v-296h88l8 -4v-12l-8 -4h-200zM48 344l-8 4l-8 4l-4 8l-4 8v8l4 8l4 8l8 4l8 4h8l8 -4l8 -4l4 -8l4 -8v-8l-4 -8l-4 -8l-8 -4l-8 -4h-8zM168 344l-8 4l-8 4l-4 8l-4 8v8l4 8l4 8l8 4l8 4h8l8 -4l8 -4
l4 -8l4 -8v-8l-4 -8l-4 -8l-8 -4l-8 -4h-8z" />
    <glyph glyph-name="Eth" unicode="&#xd0;" horiz-adv-x="324" 
d="M176 20l8 4l8 4l8 4l8 4l4 4l4 4l4 4l4 4l4 4l4 8l4 8l4 8l4 8l4 8l4 8v128l-4 8l-4 8l-4 8l-4 8l-4 8l-4 8l-4 4v0l-4 4l-4 4v0l-4 4l-4 4l-8 4l-8 4l-8 4l-8 4h-104v-140h48l8 -4v-12l-8 -4h-48v-136h104zM8 0l-8 4v12l8 4h40v136h-32l-8 4v12l8 4h32v140h-40l-8 4v12
l8 4h176l8 -4l8 -4l8 -4l8 -4l8 -8l8 -8l8 -8l8 -8l4 -8l4 -8l4 -8l4 -8l4 -8l4 -8l4 -8v-128l-4 -8l-4 -8l-4 -8l-4 -8l-4 -8l-4 -8l-4 -8l-8 -8l-8 -8l-8 -8l-8 -8l-8 -4l-8 -4l-8 -4l-8 -4h-176z" />
    <glyph glyph-name="Ntilde" unicode="&#xd1;" horiz-adv-x="352" 
d="M8 0l-8 4v12l8 4h40v296h-40l-8 4v12l8 4h72l4 -8l4 -8l4 -8l4 -8l4 -8l4 -8l4 -8l4 -8l4 -8l4 -8l4 -8l4 -8l4 -8l4 -8l4 -8l4 -8l4 -8l4 -8l4 -8l4 -8l4 -8l4 -8l4 -8l4 -8l4 -8l4 -8l4 -8l4 -8l4 -8l4 -8l4 -8l4 -8l4 -8l4 -8l4 -8l4 -8v268h-40l-8 4v12l8 4h104l8 -4
v-12l-8 -4h-40v-308l-4 -8h-20l-4 8l-4 8l-4 8l-4 8l-4 8l-4 8l-4 8l-4 8l-4 8l-4 8l-4 8l-4 8l-4 8l-4 8l-4 8l-4 8l-4 8l-4 8l-4 8l-4 8l-4 8l-4 8l-4 8l-4 8l-4 8l-4 8l-4 8l-4 8l-4 8l-4 8l-4 8l-4 8l-4 8l-4 8l-4 8l-4 8l-4 8l-4 8v-284h40l8 -4v-12l-8 -4h-104z
M176 344l-8 4l-8 4l-8 4v0l-4 4l-4 4v0l-4 4l-4 4v0l-4 4l-4 4l-8 4l-8 4h-24l-8 -4l-8 -4l-4 -4l-4 -8l-4 -8l-4 -8h-16l-4 8l4 8l4 8l4 8l8 8l8 8l8 4l8 4h40l8 -4l8 -4l8 -8l8 -8l8 -8l8 -8l8 -4h24l8 4l8 4l4 4l4 8l4 8l4 8h16l4 -8l-4 -8l-4 -8l-4 -8l-8 -8l-8 -8
l-8 -4l-8 -4h-32z" />
    <glyph glyph-name="Ograve" unicode="&#xd2;" 
d="M156 16l8 4l8 4l8 4l8 4l8 4l4 4l4 4l4 4l4 4l4 4l4 8l4 8l4 8l4 8l4 8l4 8v128l-4 8l-4 8l-4 8l-4 8l-4 8l-4 8l-4 4v0l-4 4l-4 4v0l-4 4l-4 4l-8 4l-8 4l-8 4l-8 4l-8 4h-56l-8 -4l-8 -4l-8 -4l-8 -4l-8 -4l-4 -4h-1l-3 -4l-4 -4h-1l-3 -4l-4 -4l-4 -8l-4 -8l-4 -8
l-4 -8l-4 -8l-4 -8v-128l4 -8l4 -8l4 -8l4 -8l4 -8l4 -8l4 -4v-1l4 -3l4 -4v-1l4 -3l4 -4l8 -4l8 -4l8 -4l8 -4l8 -4h56zM92 -4l-8 4l-8 4l-8 4l-8 4l-8 4l-8 8l-8 8l-8 8l-8 8l-4 8l-4 8l-4 8l-4 8l-4 8l-4 8l-4 8v128l4 8l4 8l4 8l4 8l4 8l4 8l4 8l8 8l8 8l8 8l8 8l8 4
l8 4l8 4l8 4l8 4h72l8 -4l8 -4l8 -4l8 -4l8 -4l8 -8l8 -8l8 -8l8 -8l4 -8l4 -8l4 -8l4 -8l4 -8l4 -8l4 -8v-128l-4 -8l-4 -8l-4 -8l-4 -8l-4 -8l-4 -8l-4 -8l-8 -8l-8 -8l-8 -8l-8 -8l-8 -4l-8 -4l-8 -4l-8 -4l-8 -4h-72zM164 344l-8 8l-8 8l-8 8l-8 8l-8 8l-8 8l-8 8l-8 8
l-8 8l-8 8l-4 8l4 8l7 3v1h1v-1l4 -3l4 -4v-1l4 -3l4 -4v-1l4 -3l4 -4v-1l4 -3l4 -4v-1l4 -3l4 -4v-1l4 -3l4 -4v-1l4 -3l4 -4v-1l4 -3l4 -4v-1l4 -3l4 -4v-1l4 -3l4 -4v-1l4 -3l4 -4v-4l-8 -8h-8z" />
    <glyph glyph-name="Oacute" unicode="&#xd3;" 
d="M156 16l8 4l8 4l8 4l8 4l8 4l4 4l4 4l4 4l4 4l4 4l4 8l4 8l4 8l4 8l4 8l4 8v128l-4 8l-4 8l-4 8l-4 8l-4 8l-4 8l-4 4v0l-4 4l-4 4v0l-4 4l-4 4l-8 4l-8 4l-8 4l-8 4l-8 4h-56l-8 -4l-8 -4l-8 -4l-8 -4l-8 -4l-4 -4h-1l-3 -4l-4 -4h-1l-3 -4l-4 -4l-4 -8l-4 -8l-4 -8
l-4 -8l-4 -8l-4 -8v-128l4 -8l4 -8l4 -8l4 -8l4 -8l4 -8l4 -4v-1l4 -3l4 -4v-1l4 -3l4 -4l8 -4l8 -4l8 -4l8 -4l8 -4h56zM92 -4l-8 4l-8 4l-8 4l-8 4l-8 4l-8 8l-8 8l-8 8l-8 8l-4 8l-4 8l-4 8l-4 8l-4 8l-4 8l-4 8v128l4 8l4 8l4 8l4 8l4 8l4 8l4 8l8 8l8 8l8 8l8 8l8 4
l8 4l8 4l8 4l8 4h72l8 -4l8 -4l8 -4l8 -4l8 -4l8 -8l8 -8l8 -8l8 -8l4 -8l4 -8l4 -8l4 -8l4 -8l4 -8l4 -8v-128l-4 -8l-4 -8l-4 -8l-4 -8l-4 -8l-4 -8l-4 -8l-8 -8l-8 -8l-8 -8l-8 -8l-8 -4l-8 -4l-8 -4l-8 -4l-8 -4h-72zM84 344l-8 8v4l4 4l4 4l4 4l4 4l4 4l4 4l4 4l4 4
l4 4l4 4l4 4l4 4l4 4l4 4l4 4l4 4l4 4l4 4l4 4l4 4l4 4l4 4l8 -4l4 -8l-4 -8l-8 -8l-8 -8l-8 -8l-8 -8l-8 -8l-8 -8l-8 -8l-8 -8l-8 -8l-8 -8h-8z" />
    <glyph glyph-name="Ocircumflex" unicode="&#xd4;" 
d="M156 16l8 4l8 4l8 4l8 4l8 4l4 4l4 4l4 4l4 4l4 4l4 8l4 8l4 8l4 8l4 8l4 8v128l-4 8l-4 8l-4 8l-4 8l-4 8l-4 8l-4 4v0l-4 4l-4 4v0l-4 4l-4 4l-8 4l-8 4l-8 4l-8 4l-8 4h-56l-8 -4l-8 -4l-8 -4l-8 -4l-8 -4l-4 -4h-1l-3 -4l-4 -4h-1l-3 -4l-4 -4l-4 -8l-4 -8l-4 -8
l-4 -8l-4 -8l-4 -8v-128l4 -8l4 -8l4 -8l4 -8l4 -8l4 -8l4 -4v-1l4 -3l4 -4v-1l4 -3l4 -4l8 -4l8 -4l8 -4l8 -4l8 -4h56zM92 -4l-8 4l-8 4l-8 4l-8 4l-8 4l-8 8l-8 8l-8 8l-8 8l-4 8l-4 8l-4 8l-4 8l-4 8l-4 8l-4 8v128l4 8l4 8l4 8l4 8l4 8l4 8l4 8l8 8l8 8l8 8l8 8l8 4
l8 4l8 4l8 4l8 4h72l8 -4l8 -4l8 -4l8 -4l8 -4l8 -8l8 -8l8 -8l8 -8l4 -8l4 -8l4 -8l4 -8l4 -8l4 -8l4 -8v-128l-4 -8l-4 -8l-4 -8l-4 -8l-4 -8l-4 -8l-4 -8l-8 -8l-8 -8l-8 -8l-8 -8l-8 -4l-8 -4l-8 -4l-8 -4l-8 -4h-72zM28 344v4l4 4l4 4l4 4l4 4l4 4l4 4l4 4l4 4l4 4l4 4
l4 4l4 4l4 4l4 4l4 4l4 4l4 4l4 4l4 4l4 4l4 4l4 4l4 4h8l4 -4v-1l4 -3l4 -4v-1l4 -3l4 -4v-1l4 -3l4 -4v-1l4 -3l4 -4v-1l4 -3l4 -4v-1l4 -3l4 -4v-1l4 -3l4 -4v-1l4 -3l4 -4v-1l4 -3l4 -4v-1l4 -3l4 -4v-1l4 -3l4 -4v-4h-24l-8 8l-8 8l-8 8l-8 8l-8 8l-8 8l-8 8l-8 8l-8 8
l-8 -8l-8 -8l-8 -8l-8 -8l-8 -8l-8 -8l-8 -8l-8 -8l-8 -8h-24z" />
    <glyph glyph-name="Otilde" unicode="&#xd5;" 
d="M156 16l8 4l8 4l8 4l8 4l8 4l4 4l4 4l4 4l4 4l4 4l4 8l4 8l4 8l4 8l4 8l4 8v128l-4 8l-4 8l-4 8l-4 8l-4 8l-4 8l-4 4v0l-4 4l-4 4v0l-4 4l-4 4l-8 4l-8 4l-8 4l-8 4l-8 4h-56l-8 -4l-8 -4l-8 -4l-8 -4l-8 -4l-4 -4h-1l-3 -4l-4 -4h-1l-3 -4l-4 -4l-4 -8l-4 -8l-4 -8
l-4 -8l-4 -8l-4 -8v-128l4 -8l4 -8l4 -8l4 -8l4 -8l4 -8l4 -4v-1l4 -3l4 -4v-1l4 -3l4 -4l8 -4l8 -4l8 -4l8 -4l8 -4h56zM92 -4l-8 4l-8 4l-8 4l-8 4l-8 4l-8 8l-8 8l-8 8l-8 8l-4 8l-4 8l-4 8l-4 8l-4 8l-4 8l-4 8v128l4 8l4 8l4 8l4 8l4 8l4 8l4 8l8 8l8 8l8 8l8 8l8 4
l8 4l8 4l8 4l8 4h72l8 -4l8 -4l8 -4l8 -4l8 -4l8 -8l8 -8l8 -8l8 -8l4 -8l4 -8l4 -8l4 -8l4 -8l4 -8l4 -8v-128l-4 -8l-4 -8l-4 -8l-4 -8l-4 -8l-4 -8l-4 -8l-8 -8l-8 -8l-8 -8l-8 -8l-8 -4l-8 -4l-8 -4l-8 -4l-8 -4h-72zM164 344l-8 4l-8 4l-8 4v0l-4 4l-4 4v0l-4 4l-4 4v0
l-4 4l-4 4l-8 4l-8 4h-24l-8 -4l-8 -4l-4 -4l-4 -8l-4 -8l-4 -8h-16l-4 8l4 8l4 8l4 8l8 8l8 8l8 4l8 4h40l8 -4l8 -4l8 -8l8 -8l8 -8l8 -8l8 -4h24l8 4l8 4l4 4l4 8l4 8l4 8h16l4 -8l-4 -8l-4 -8l-4 -8l-8 -8l-8 -8l-8 -4l-8 -4h-32z" />
    <glyph glyph-name="Odieresis" unicode="&#xd6;" 
d="M156 16l8 4l8 4l8 4l8 4l8 4l4 4l4 4l4 4l4 4l4 4l4 8l4 8l4 8l4 8l4 8l4 8v128l-4 8l-4 8l-4 8l-4 8l-4 8l-4 8l-4 4v0l-4 4l-4 4v0l-4 4l-4 4l-8 4l-8 4l-8 4l-8 4l-8 4h-56l-8 -4l-8 -4l-8 -4l-8 -4l-8 -4l-4 -4h-1l-3 -4l-4 -4h-1l-3 -4l-4 -4l-4 -8l-4 -8l-4 -8
l-4 -8l-4 -8l-4 -8v-128l4 -8l4 -8l4 -8l4 -8l4 -8l4 -8l4 -4v-1l4 -3l4 -4v-1l4 -3l4 -4l8 -4l8 -4l8 -4l8 -4l8 -4h56zM92 -4l-8 4l-8 4l-8 4l-8 4l-8 4l-8 8l-8 8l-8 8l-8 8l-4 8l-4 8l-4 8l-4 8l-4 8l-4 8l-4 8v128l4 8l4 8l4 8l4 8l4 8l4 8l4 8l8 8l8 8l8 8l8 8l8 4
l8 4l8 4l8 4l8 4h72l8 -4l8 -4l8 -4l8 -4l8 -4l8 -8l8 -8l8 -8l8 -8l4 -8l4 -8l4 -8l4 -8l4 -8l4 -8l4 -8v-128l-4 -8l-4 -8l-4 -8l-4 -8l-4 -8l-4 -8l-4 -8l-8 -8l-8 -8l-8 -8l-8 -8l-8 -4l-8 -4l-8 -4l-8 -4l-8 -4h-72zM60 344l-8 4l-8 4l-4 8l-4 8v8l4 8l4 8l8 4l8 4h8
l8 -4l8 -4l4 -8l4 -8v-8l-4 -8l-4 -8l-8 -4l-8 -4h-8zM188 344l-8 4l-8 4l-4 8l-4 8v8l4 8l4 8l8 4l8 4h8l8 -4l8 -4l4 -8l4 -8v-8l-4 -8l-4 -8l-8 -4l-8 -4h-8z" />
    <glyph glyph-name="multiply" unicode="&#xd7;" horiz-adv-x="232" 
d="M8 80l-8 8v8l8 8l8 8l8 8l8 8l8 8l8 8l8 8l8 8l8 8l-8 8l-8 8l-8 8l-8 8l-8 8l-8 8l-8 8l-8 8l-8 8v8l8 8h8l8 -8l8 -8l8 -8l8 -8l8 -8l8 -8l8 -8l8 -8l8 -8l8 8l8 8l8 8l8 8l8 8l8 8l8 8l8 8l8 8h8l8 -8v-8l-8 -8l-8 -8l-8 -8l-8 -8l-8 -8l-8 -8l-8 -8l-8 -8l-8 -8l8 -8
l8 -8l8 -8l8 -8l8 -8l8 -8l8 -8l8 -8l8 -8v-8l-8 -8h-8l-8 8l-8 8l-8 8l-8 8l-8 8l-8 8l-8 8l-8 8l-8 8l-8 -8l-8 -8l-8 -8l-8 -8l-8 -8l-8 -8l-8 -8l-8 -8l-8 -8h-8z" />
    <glyph glyph-name="Oslash" unicode="&#xd8;" 
d="M156 16l8 4l8 4l8 4l8 4l8 4l4 4l4 4l4 4l4 4l4 4l4 8l4 8l4 8l4 8l4 8l4 8v128l-4 8l-4 8l-4 8l-4 8l-4 8l-4 8l-4 4v0l-4 4l-4 4v0l-4 4l-4 -8l-4 -8l-4 -8l-4 -8l-4 -8l-4 -8l-4 -8l-4 -8l-4 -8l-4 -8l-4 -8l-4 -8l-4 -8l-4 -8l-4 -8l-4 -8l-4 -8l-4 -8l-4 -8l-4 -8
l-4 -8l-4 -8l-4 -8l-4 -8l-4 -8l-4 -8l-4 -8l-4 -8l-4 -8l-4 -8l-4 -8l-4 -8l-4 -8l8 -4l8 -4l8 -4l8 -4h56zM50 45l2 3l4 8l4 8l4 8l4 8l4 8l4 8l4 8l4 8l4 8l4 8l4 8l4 8l4 8l4 8l4 8l4 8l4 8l4 8l4 8l4 8l4 8l4 8l4 8l4 8l4 8l4 8l4 8l4 8l4 8l4 8l4 8l4 8l1 3l-1 1l-8 4
l-8 4l-8 4h-56l-8 -4l-8 -4l-8 -4l-8 -4l-8 -4l-4 -4h-1l-3 -4l-4 -4h-1l-3 -4l-4 -4l-4 -8l-4 -8l-4 -8l-4 -8l-4 -8l-4 -8v-128l4 -8l4 -8l4 -8l4 -8l4 -8l4 -8l4 -4v-1l4 -3l2 -3v0zM92 -4l-8 4l-8 4l-8 4l-8 4h-2l-2 -4h-1l-3 -4l-4 -4h-12l-4 8l4 8l4 8l1 2l-5 6l-8 8
l-8 8l-4 8l-4 8l-4 8l-4 8l-4 8l-4 8l-4 8v128l4 8l4 8l4 8l4 8l4 8l4 8l4 8l8 8l8 8l8 8l8 8l8 4l8 4l8 4l8 4l8 4h72l8 -4l8 -4l8 -4l3 -2l1 2l4 4l4 4h12l4 -8l-4 -8l-3 -6l3 -2l8 -8l8 -8l8 -8l4 -8l4 -8l4 -8l4 -8l4 -8l4 -8l4 -8v-128l-4 -8l-4 -8l-4 -8l-4 -8l-4 -8
l-4 -8l-4 -8l-8 -8l-8 -8l-8 -8l-8 -8l-8 -4l-8 -4l-8 -4l-8 -4l-8 -4h-72z" />
    <glyph glyph-name="Ugrave" unicode="&#xd9;" horiz-adv-x="376" 
d="M120 -4l-8 4l-8 4l-8 4l-8 8l-8 8l-8 8l-8 8l-4 8l-4 8l-4 8l-4 8v244h-40l-8 4v12l8 4h104l8 -4v-12l-8 -4h-40v-244l4 -8l4 -8l4 -8l4 -4v-1l4 -3l4 -4v-1l4 -3l4 -4l8 -4l8 -4l8 -4h64l8 4l8 4l8 4l4 4l4 4l4 4l4 4l4 4l4 8l4 8l4 8v244h-40l-8 4v12l8 4h104l8 -4v-12
l-8 -4h-40v-244l-4 -8l-4 -8l-4 -8l-4 -8l-8 -8l-8 -8l-8 -8l-8 -8l-8 -4l-8 -4l-8 -4h-80zM192 344l-8 8l-8 8l-8 8l-8 8l-8 8l-8 8l-8 8l-8 8l-8 8l-8 8l-4 8l4 8l7 3v1h1v-1l4 -3l4 -4v-1l4 -3l4 -4v-1l4 -3l4 -4v-1l4 -3l4 -4v-1l4 -3l4 -4v-1l4 -3l4 -4v-1l4 -3l4 -4
v-1l4 -3l4 -4v-1l4 -3l4 -4v-1l4 -3l4 -4v-1l4 -3l4 -4v-4l-8 -8h-8z" />
    <glyph glyph-name="Uacute" unicode="&#xda;" horiz-adv-x="376" 
d="M120 -4l-8 4l-8 4l-8 4l-8 8l-8 8l-8 8l-8 8l-4 8l-4 8l-4 8l-4 8v244h-40l-8 4v12l8 4h104l8 -4v-12l-8 -4h-40v-244l4 -8l4 -8l4 -8l4 -4v-1l4 -3l4 -4v-1l4 -3l4 -4l8 -4l8 -4l8 -4h64l8 4l8 4l8 4l4 4l4 4l4 4l4 4l4 4l4 8l4 8l4 8v244h-40l-8 4v12l8 4h104l8 -4v-12
l-8 -4h-40v-244l-4 -8l-4 -8l-4 -8l-4 -8l-8 -8l-8 -8l-8 -8l-8 -8l-8 -4l-8 -4l-8 -4h-80zM112 344l-8 8v4l4 4l4 4l4 4l4 4l4 4l4 4l4 4l4 4l4 4l4 4l4 4l4 4l4 4l4 4l4 4l4 4l4 4l4 4l4 4l4 4l4 4l4 4l8 -4l4 -8l-4 -8l-8 -8l-8 -8l-8 -8l-8 -8l-8 -8l-8 -8l-8 -8l-8 -8
l-8 -8l-8 -8h-8z" />
    <glyph glyph-name="Ucircumflex" unicode="&#xdb;" horiz-adv-x="376" 
d="M120 -4l-8 4l-8 4l-8 4l-8 8l-8 8l-8 8l-8 8l-4 8l-4 8l-4 8l-4 8v244h-40l-8 4v12l8 4h104l8 -4v-12l-8 -4h-40v-244l4 -8l4 -8l4 -8l4 -4v-1l4 -3l4 -4v-1l4 -3l4 -4l8 -4l8 -4l8 -4h64l8 4l8 4l8 4l4 4l4 4l4 4l4 4l4 4l4 8l4 8l4 8v244h-40l-8 4v12l8 4h104l8 -4v-12
l-8 -4h-40v-244l-4 -8l-4 -8l-4 -8l-4 -8l-8 -8l-8 -8l-8 -8l-8 -8l-8 -4l-8 -4l-8 -4h-80zM64 344v4l4 4l4 4l4 4l4 4l4 4l4 4l4 4l4 4l4 4l4 4l4 4l4 4l4 4l4 4l4 4l4 4l4 4l4 4l4 4l4 4l4 4l4 4l4 4h8l4 -4v-1l4 -3l4 -4v-1l4 -3l4 -4v-1l4 -3l4 -4v-1l4 -3l4 -4v-1l4 -3
l4 -4v-1l4 -3l4 -4v-1l4 -3l4 -4v-1l4 -3l4 -4v-1l4 -3l4 -4v-1l4 -3l4 -4v-1l4 -3l4 -4v-4h-24l-8 8l-8 8l-8 8l-8 8l-8 8l-8 8l-8 8l-8 8l-8 8l-8 -8l-8 -8l-8 -8l-8 -8l-8 -8l-8 -8l-8 -8l-8 -8l-8 -8h-24z" />
    <glyph glyph-name="Udieresis" unicode="&#xdc;" horiz-adv-x="376" 
d="M120 -4l-8 4l-8 4l-8 4l-8 8l-8 8l-8 8l-8 8l-4 8l-4 8l-4 8l-4 8v244h-40l-8 4v12l8 4h104l8 -4v-12l-8 -4h-40v-244l4 -8l4 -8l4 -8l4 -4v-1l4 -3l4 -4v-1l4 -3l4 -4l8 -4l8 -4l8 -4h64l8 4l8 4l8 4l4 4l4 4l4 4l4 4l4 4l4 8l4 8l4 8v244h-40l-8 4v12l8 4h104l8 -4v-12
l-8 -4h-40v-244l-4 -8l-4 -8l-4 -8l-4 -8l-8 -8l-8 -8l-8 -8l-8 -8l-8 -4l-8 -4l-8 -4h-80zM96 344l-8 4l-8 4l-4 8l-4 8v8l4 8l4 8l8 4l8 4h8l8 -4l8 -4l4 -8l4 -8v-8l-4 -8l-4 -8l-8 -4l-8 -4h-8zM216 344l-8 4l-8 4l-4 8l-4 8v8l4 8l4 8l8 4l8 4h8l8 -4l8 -4l4 -8l4 -8
v-8l-4 -8l-4 -8l-8 -4l-8 -4h-8z" />
    <glyph glyph-name="Yacute" unicode="&#xdd;" horiz-adv-x="304" 
d="M24 0l-8 4v12l8 4h88v156l-4 8l-4 8l-4 8l-4 8l-4 8l-4 8l-4 8l-4 8l-4 8l-4 8l-4 8l-4 8l-4 8l-4 8l-4 8l-4 8l-4 8l-2 4h-34l-8 4v12l8 4h96l8 -4v-12l-8 -4h-38l2 -4l4 -8l4 -8l4 -8l4 -8l4 -8l4 -8l4 -8l4 -8l4 -8l4 -8l4 -8l4 -8l4 -8l4 -8l4 8l4 8l4 8l4 8l4 8l4 8
l4 8l4 8l4 8l4 8l4 8l4 8l4 8l4 8l2 4h-38l-8 4v12l8 4h96l8 -4v-12l-8 -4h-34l-2 -4l-4 -8l-4 -8l-4 -8l-4 -8l-4 -8l-4 -8l-4 -8l-4 -8l-4 -8l-4 -8l-4 -8l-4 -8l-4 -8l-4 -8l-4 -8l-4 -8l-4 -8v-156h88l8 -4v-12l-8 -4h-200zM80 344l-8 8v4l4 4l4 4l4 4l4 4l4 4l4 4l4 4
l4 4l4 4l4 4l4 4l4 4l4 4l4 4l4 4l4 4l4 4l4 4l4 4l4 4l4 4l4 4l8 -4l4 -8l-4 -8l-8 -8l-8 -8l-8 -8l-8 -8l-8 -8l-8 -8l-8 -8l-8 -8l-8 -8l-8 -8h-8z" />
    <glyph glyph-name="Thorn" unicode="&#xde;" horiz-adv-x="284" 
d="M152 72l8 4l8 4l8 8l8 8l8 8l8 8l4 8l4 8l4 8v64l-4 8l-4 8l-4 8l-8 8l-8 8l-8 8l-8 8l-8 4l-8 4h-56l-8 -4l-8 -4l-8 -4l-8 -4l-8 -4l-8 -4v-144l8 -4l8 -4l8 -4l8 -4l8 -4l8 -4h56zM-16 0l-8 4v12l8 4h40v296h-40l-8 4v12l8 4h56q3 0 5 -3q3 -2 3 -5v-64l8 4l8 4l8 4
l8 4l8 4h72l8 -4l8 -4l8 -4l8 -8l8 -8l8 -8l8 -8l4 -8l4 -8l4 -8l4 -8l4 -8v-64l-4 -8l-4 -8l-4 -8l-4 -8l-4 -8l-8 -8l-8 -8l-8 -8l-8 -8l-8 -4l-8 -4l-8 -4h-72l-8 4l-8 4l-8 4l-8 4l-8 4v-64q0 -4 -3 -6q-2 -2 -5 -2h-56z" />
    <glyph glyph-name="germandbls" unicode="&#xdf;" horiz-adv-x="288" 
d="M128 -4l-8 4l-8 4l-8 4l-8 4v0l-4 4v8l4 4h8l8 -4l8 -4l8 -4h24l8 4l8 4l8 8l8 8l8 8l4 8l4 8l4 8l4 8v48l-4 8l-4 8l-4 8l-4 8l-8 8l-8 8l-8 8l-4 8l-4 8l-4 8v8l4 8l4 8l4 8l4 8l4 8v16l-4 8l-4 8l-8 8l-8 4l-8 4h-32l-8 -4l-8 -4l-8 -8l-8 -8l-4 -8l-4 -8v-256
q0 -4 -3 -6q-2 -2 -5 -2h-56l-8 4v12l8 4h40v244l4 8l4 8l4 8l4 4l4 4l4 4l4 4l4 4l8 4l8 4l8 4l8 4h32l8 -4l8 -4l8 -4l8 -4v-1l4 -3l4 -4v-1l4 -3l4 -4v-1l4 -3l4 -8v-24l-4 -8l-4 -8l-4 -8l-4 -8l-4 -8v-8l4 -8l8 -8l8 -8l8 -8l4 -8l4 -8l4 -8l4 -8l4 -8l4 -8v-48l-4 -8
l-4 -8l-4 -8l-4 -8l-4 -8h-1l-3 -4l-4 -4h-1l-3 -4l-4 -4h-1l-3 -4l-4 -4h-1l-3 -4l-8 -4l-8 -4l-8 -4l-8 -4h-24z" />
    <glyph glyph-name="agrave" unicode="&#xe0;" horiz-adv-x="296" 
d="M112 16l8 4l8 4l8 8l8 8l4 8l4 8l4 8l4 8v36l-8 4l-8 4l-8 4h-56l-8 -4l-8 -4l-8 -4l-8 -4l-8 -8l-8 -8l-4 -8l-4 -8v-16l4 -8l4 -8l8 -8l8 -8l8 -4l8 -4h48zM64 -4l-8 4l-8 4l-8 4l-8 4l-8 4l-8 8l-8 8l-4 8l-4 8v32l4 8l4 8l8 8l8 8l8 8l8 4l8 4l8 4l8 4l8 4h72l8 4
l4 8l4 8v24l-4 8l-4 8l-8 8l-8 4l-8 4l-8 4h-48l-8 -4l-8 -4v-4l4 -8l4 -8v-8l-4 -8l-4 -8l-8 -4l-8 -4h-8l-8 4l-8 4l-4 8l-4 8v8l4 8l4 8l8 8l8 8l8 4l8 4l8 4l8 4h64l8 -4l8 -4l8 -4l8 -4l8 -8l8 -8l4 -8l4 -8v-152l4 -8l4 -8l8 -8h8l8 8v8l4 8h16l4 -8v-8l-4 -8l-4 -8
l-8 -4l-8 -4h-32l-8 4l-8 4l-4 8l-4 8l-8 -8l-8 -8l-8 -4l-8 -4l-8 -4h-56zM136 248l-8 8l-8 8l-8 8l-8 8l-8 8l-8 8l-8 8l-8 8l-8 8l-8 8l-4 8l4 8l7 3v1h1v-1l4 -3l4 -4v-1l4 -3l4 -4v-1l4 -3l4 -4v-1l4 -3l4 -4v-1l4 -3l4 -4v-1l4 -3l4 -4v-1l4 -3l4 -4v-1l4 -3l4 -4v-1
l4 -3l4 -4v-1l4 -3l4 -4v-1l4 -3l4 -4v-4l-8 -8h-8z" />
    <glyph glyph-name="aacute" unicode="&#xe1;" horiz-adv-x="296" 
d="M112 16l8 4l8 4l8 8l8 8l4 8l4 8l4 8l4 8v36l-8 4l-8 4l-8 4h-56l-8 -4l-8 -4l-8 -4l-8 -4l-8 -8l-8 -8l-4 -8l-4 -8v-16l4 -8l4 -8l8 -8l8 -8l8 -4l8 -4h48zM64 -4l-8 4l-8 4l-8 4l-8 4l-8 4l-8 8l-8 8l-4 8l-4 8v32l4 8l4 8l8 8l8 8l8 8l8 4l8 4l8 4l8 4l8 4h72l8 4
l4 8l4 8v24l-4 8l-4 8l-8 8l-8 4l-8 4l-8 4h-48l-8 -4l-8 -4v-4l4 -8l4 -8v-8l-4 -8l-4 -8l-8 -4l-8 -4h-8l-8 4l-8 4l-4 8l-4 8v8l4 8l4 8l8 8l8 8l8 4l8 4l8 4l8 4h64l8 -4l8 -4l8 -4l8 -4l8 -8l8 -8l4 -8l4 -8v-152l4 -8l4 -8l8 -8h8l8 8v8l4 8h16l4 -8v-8l-4 -8l-4 -8
l-8 -4l-8 -4h-32l-8 4l-8 4l-4 8l-4 8l-8 -8l-8 -8l-8 -4l-8 -4l-8 -4h-56zM56 248l-8 8v4l4 4l4 4l4 4l4 4l4 4l4 4l4 4l4 4l4 4l4 4l4 4l4 4l4 4l4 4l4 4l4 4l4 4l4 4l4 4l4 4l4 4l4 4l8 -4l4 -8l-4 -8l-8 -8l-8 -8l-8 -8l-8 -8l-8 -8l-8 -8l-8 -8l-8 -8l-8 -8l-8 -8h-8z
" />
    <glyph glyph-name="acircumflex" unicode="&#xe2;" horiz-adv-x="296" 
d="M112 16l8 4l8 4l8 8l8 8l4 8l4 8l4 8l4 8v36l-8 4l-8 4l-8 4h-56l-8 -4l-8 -4l-8 -4l-8 -4l-8 -8l-8 -8l-4 -8l-4 -8v-16l4 -8l4 -8l8 -8l8 -8l8 -4l8 -4h48zM64 -4l-8 4l-8 4l-8 4l-8 4l-8 4l-8 8l-8 8l-4 8l-4 8v32l4 8l4 8l8 8l8 8l8 8l8 4l8 4l8 4l8 4l8 4h72l8 4
l4 8l4 8v24l-4 8l-4 8l-8 8l-8 4l-8 4l-8 4h-48l-8 -4l-8 -4v-4l4 -8l4 -8v-8l-4 -8l-4 -8l-8 -4l-8 -4h-8l-8 4l-8 4l-4 8l-4 8v8l4 8l4 8l8 8l8 8l8 4l8 4l8 4l8 4h64l8 -4l8 -4l8 -4l8 -4l8 -8l8 -8l4 -8l4 -8v-152l4 -8l4 -8l8 -8h8l8 8v8l4 8h16l4 -8v-8l-4 -8l-4 -8
l-8 -4l-8 -4h-32l-8 4l-8 4l-4 8l-4 8l-8 -8l-8 -8l-8 -4l-8 -4l-8 -4h-56zM8 248v4l4 4l4 4l4 4l4 4l4 4l4 4l4 4l4 4l4 4l4 4l4 4l4 4l4 4l4 4l4 4l4 4l4 4l4 4l4 4l4 4l4 4l4 4l4 4h8l4 -4v-1l4 -3l4 -4v-1l4 -3l4 -4v-1l4 -3l4 -4v-1l4 -3l4 -4v-1l4 -3l4 -4v-1l4 -3
l4 -4v-1l4 -3l4 -4v-1l4 -3l4 -4v-1l4 -3l4 -4v-1l4 -3l4 -4v-1l4 -3l4 -4v-4h-24l-8 8l-8 8l-8 8l-8 8l-8 8l-8 8l-8 8l-8 8l-8 8l-8 -8l-8 -8l-8 -8l-8 -8l-8 -8l-8 -8l-8 -8l-8 -8l-8 -8h-24z" />
    <glyph glyph-name="atilde" unicode="&#xe3;" horiz-adv-x="296" 
d="M112 16l8 4l8 4l8 8l8 8l4 8l4 8l4 8l4 8v36l-8 4l-8 4l-8 4h-56l-8 -4l-8 -4l-8 -4l-8 -4l-8 -8l-8 -8l-4 -8l-4 -8v-16l4 -8l4 -8l8 -8l8 -8l8 -4l8 -4h48zM64 -4l-8 4l-8 4l-8 4l-8 4l-8 4l-8 8l-8 8l-4 8l-4 8v32l4 8l4 8l8 8l8 8l8 8l8 4l8 4l8 4l8 4l8 4h72l8 4
l4 8l4 8v24l-4 8l-4 8l-8 8l-8 4l-8 4l-8 4h-48l-8 -4l-8 -4v-4l4 -8l4 -8v-8l-4 -8l-4 -8l-8 -4l-8 -4h-8l-8 4l-8 4l-4 8l-4 8v8l4 8l4 8l8 8l8 8l8 4l8 4l8 4l8 4h64l8 -4l8 -4l8 -4l8 -4l8 -8l8 -8l4 -8l4 -8v-152l4 -8l4 -8l8 -8h8l8 8v8l4 8h16l4 -8v-8l-4 -8l-4 -8
l-8 -4l-8 -4h-32l-8 4l-8 4l-4 8l-4 8l-8 -8l-8 -8l-8 -4l-8 -4l-8 -4h-56zM152 248l-8 4l-8 4l-8 4v0l-4 4l-4 4v0l-4 4l-4 4v0l-4 4l-4 4l-8 4l-8 4h-24l-8 -4l-8 -4l-4 -4l-4 -8l-4 -8l-4 -8h-16l-4 8l4 8l4 8l4 8l8 8l8 8l8 4l8 4h40l8 -4l8 -4l8 -8l8 -8l8 -8l8 -8
l8 -4h24l8 4l8 4l4 4l4 8l4 8l4 8h16l4 -8l-4 -8l-4 -8l-4 -8l-8 -8l-8 -8l-8 -4l-8 -4h-32z" />
    <glyph glyph-name="adieresis" unicode="&#xe4;" horiz-adv-x="296" 
d="M112 16l8 4l8 4l8 8l8 8l4 8l4 8l4 8l4 8v36l-8 4l-8 4l-8 4h-56l-8 -4l-8 -4l-8 -4l-8 -4l-8 -8l-8 -8l-4 -8l-4 -8v-16l4 -8l4 -8l8 -8l8 -8l8 -4l8 -4h48zM64 -4l-8 4l-8 4l-8 4l-8 4l-8 4l-8 8l-8 8l-4 8l-4 8v32l4 8l4 8l8 8l8 8l8 8l8 4l8 4l8 4l8 4l8 4h72l8 4
l4 8l4 8v24l-4 8l-4 8l-8 8l-8 4l-8 4l-8 4h-48l-8 -4l-8 -4v-4l4 -8l4 -8v-8l-4 -8l-4 -8l-8 -4l-8 -4h-8l-8 4l-8 4l-4 8l-4 8v8l4 8l4 8l8 8l8 8l8 4l8 4l8 4l8 4h64l8 -4l8 -4l8 -4l8 -4l8 -8l8 -8l4 -8l4 -8v-152l4 -8l4 -8l8 -8h8l8 8v8l4 8h16l4 -8v-8l-4 -8l-4 -8
l-8 -4l-8 -4h-32l-8 4l-8 4l-4 8l-4 8l-8 -8l-8 -8l-8 -4l-8 -4l-8 -4h-56zM40 248l-8 4l-8 4l-4 8l-4 8v8l4 8l4 8l8 4l8 4h8l8 -4l8 -4l4 -8l4 -8v-8l-4 -8l-4 -8l-8 -4l-8 -4h-8zM152 248l-8 4l-8 4l-4 8l-4 8v8l4 8l4 8l8 4l8 4h8l8 -4l8 -4l4 -8l4 -8v-8l-4 -8l-4 -8
l-8 -4l-8 -4h-8z" />
    <glyph glyph-name="aring" unicode="&#xe5;" horiz-adv-x="296" 
d="M112 16l8 4l8 4l8 8l8 8l4 8l4 8l4 8l4 8v36l-8 4l-8 4l-8 4h-56l-8 -4l-8 -4l-8 -4l-8 -4l-8 -8l-8 -8l-4 -8l-4 -8v-16l4 -8l4 -8l8 -8l8 -8l8 -4l8 -4h48zM64 -4l-8 4l-8 4l-8 4l-8 4l-8 4l-8 8l-8 8l-4 8l-4 8v32l4 8l4 8l8 8l8 8l8 8l8 4l8 4l8 4l8 4l8 4h72l8 4
l4 8l4 8v24l-4 8l-4 8l-8 8l-8 4l-8 4l-8 4h-48l-8 -4l-8 -4v-4l4 -8l4 -8v-8l-4 -8l-4 -8l-8 -4l-8 -4h-8l-8 4l-8 4l-4 8l-4 8v8l4 8l4 8l8 8l8 8l8 4l8 4l8 4l8 4h64l8 -4l8 -4l8 -4l8 -4l8 -8l8 -8l4 -8l4 -8v-152l4 -8l4 -8l8 -8h8l8 8v8l4 8h16l4 -8v-8l-4 -8l-4 -8
l-8 -4l-8 -4h-32l-8 4l-8 4l-4 8l-4 8l-8 -8l-8 -8l-8 -4l-8 -4l-8 -4h-56zM104 264l8 4l4 4l4 8v40l-4 8l-4 4l-8 4h-16l-8 -4l-4 -4l-4 -8v-40l4 -8l4 -4l8 -4h16zM80 248l-8 4l-8 4l-8 8l-4 8l-4 8v40l4 8l4 8l8 8l8 4l8 4h32l8 -4l8 -4l8 -8l4 -8l4 -8v-40l-4 -8l-4 -8
l-8 -8l-8 -4l-8 -4h-32z" />
    <glyph glyph-name="ae" unicode="&#xe6;" horiz-adv-x="436" 
d="M112 16l8 4l8 4l8 8l8 8l4 8l4 8l4 8l4 8l4 8v24l-4 4l-8 4l-8 4l-8 4h-56l-8 -4l-8 -4l-8 -4l-8 -4l-8 -8l-8 -8l-4 -8l-4 -8v-16l4 -8l4 -8l8 -8l8 -8l8 -4l8 -4h48zM364 136v8l-4 8l-4 8l-4 8l-8 8l-8 8l-8 8l-8 8l-8 4l-8 4l-8 4l-8 4h-24l-8 -4l-8 -4l-8 -4l-8 -4
l-8 -8l-8 -8l-8 -8l-8 -8l-4 -8l-4 -8l-4 -8v-8h176zM64 -4l-8 4l-8 4l-8 4l-8 4l-8 4l-8 8l-8 8l-4 8l-4 8v32l4 8l4 8l8 8l8 8l8 8l8 4l8 4l8 4l8 4l8 4h72l8 4l4 8l4 8v24l-4 8l-4 8l-8 8l-8 4l-8 4l-8 4h-48l-8 -4l-8 -4v-4l4 -8l4 -8v-8l-4 -8l-4 -8l-8 -4l-8 -4h-8
l-8 4l-8 4l-4 8l-4 8v8l4 8l4 8l8 8l8 8l8 4l8 4l8 4l8 4h64l8 -4l8 -4l8 -4l8 -4l8 -8l8 -8l4 -8l4 -8v-8l8 8l8 8l8 8l8 8l8 4l8 4l8 4l8 4l8 4h40l8 -4l8 -4l8 -4l8 -4l8 -4l8 -8l8 -8l8 -8l8 -8l4 -8l4 -8l4 -8l4 -8l4 -8v-24h-1l-3 -4h-196v-28l4 -8l4 -8l4 -8l8 -8
l8 -8l8 -8l8 -8l8 -4l8 -4l8 -4l8 -4h56l8 4l8 4l8 4l8 4l8 8h8l8 -8v-8l-8 -8l-8 -4l-8 -4l-8 -4l-8 -4l-8 -4h-72l-8 4l-8 4l-8 4l-8 4l-8 4l-8 8l-8 8l-8 8l-8 8v-16l4 -8l4 -8l4 -8l-4 -8h-8l-8 4l-8 4l-4 8l-4 8l-8 -8l-8 -8l-8 -4l-8 -4l-8 -4h-56z" />
    <glyph glyph-name="ccedilla" unicode="&#xe7;" horiz-adv-x="260" 
d="M100 -120l-8 4l-8 4l-8 8l-4 8l4 8h8l8 -4v0l4 -4l4 -4l8 -4h16l8 4l4 4l4 8v40l-4 8l-4 4l-8 4h-8q-4 0 -6 3q-2 2 -2 5v20h-24l-8 4l-8 4l-8 4l-8 4l-8 4l-8 8l-8 8l-8 8l-8 8l-4 8l-4 8l-4 8l-4 8l-4 8v56l4 8l4 8l4 8l4 8l4 8l8 8l8 8l8 8l8 8l8 4l8 4l8 4l8 4l8 4
h56l8 -4l8 -4l8 -4l8 -4l8 -4l8 -8l8 -8l4 -8l4 -8v-8l-4 -8l-4 -8l-8 -4l-8 -4h-8l-8 4l-8 4l-4 8l-4 8v8l4 8l4 8v4l-8 4l-8 4l-8 4h-40l-8 -4l-8 -4l-8 -4l-8 -4l-8 -8l-8 -8l-8 -8l-8 -8l-4 -8l-4 -8l-4 -8v-56l4 -8l4 -8l4 -8l8 -8l8 -8l8 -8l8 -8l8 -4l8 -4l8 -4l8 -4
h56l8 4l8 4l8 4l8 4l8 8h8l8 -8v-8l-8 -8l-8 -4l-8 -4l-8 -4l-8 -4l-8 -4h-24v-12l8 -4l8 -4l8 -8l4 -8l4 -8v-40l-4 -8l-4 -8l-8 -8l-8 -4l-8 -4h-32z" />
    <glyph glyph-name="egrave" unicode="&#xe8;" horiz-adv-x="264" 
d="M192 136v8l-4 8l-4 8l-4 8l-8 8l-8 8l-8 8l-8 8l-8 4l-8 4l-8 4l-8 4h-24l-8 -4l-8 -4l-8 -4l-8 -4l-8 -8l-8 -8l-8 -8l-8 -8l-4 -8l-4 -8l-4 -8v-8h176zM84 -4l-8 4l-8 4l-8 4l-8 4l-8 4l-8 8l-8 8l-8 8l-8 8l-4 8l-4 8l-4 8l-4 8l-4 8v56l4 8l4 8l4 8l4 8l4 8l8 8l8 8
l8 8l8 8l8 4l8 4l8 4l8 4l8 4h40l8 -4l8 -4l8 -4l8 -4l8 -4l8 -8l8 -8l8 -8l8 -8l4 -8l4 -8l4 -8l4 -8l4 -8v-24h-1l-3 -4h-196v-28l4 -8l4 -8l4 -8l8 -8l8 -8l8 -8l8 -8l8 -4l8 -4l8 -4l8 -4h56l8 4l8 4l8 4l8 4l8 8h8l8 -8v-8l-8 -8l-8 -4l-8 -4l-8 -4l-8 -4l-8 -4h-72z
M148 248l-8 8l-8 8l-8 8l-8 8l-8 8l-8 8l-8 8l-8 8l-8 8l-8 8l-4 8l4 8l7 3v1h1v-1l4 -3l4 -4v-1l4 -3l4 -4v-1l4 -3l4 -4v-1l4 -3l4 -4v-1l4 -3l4 -4v-1l4 -3l4 -4v-1l4 -3l4 -4v-1l4 -3l4 -4v-1l4 -3l4 -4v-1l4 -3l4 -4v-1l4 -3l4 -4v-4l-8 -8h-8z" />
    <glyph glyph-name="eacute" unicode="&#xe9;" horiz-adv-x="264" 
d="M192 136v8l-4 8l-4 8l-4 8l-8 8l-8 8l-8 8l-8 8l-8 4l-8 4l-8 4l-8 4h-24l-8 -4l-8 -4l-8 -4l-8 -4l-8 -8l-8 -8l-8 -8l-8 -8l-4 -8l-4 -8l-4 -8v-8h176zM84 -4l-8 4l-8 4l-8 4l-8 4l-8 4l-8 8l-8 8l-8 8l-8 8l-4 8l-4 8l-4 8l-4 8l-4 8v56l4 8l4 8l4 8l4 8l4 8l8 8l8 8
l8 8l8 8l8 4l8 4l8 4l8 4l8 4h40l8 -4l8 -4l8 -4l8 -4l8 -4l8 -8l8 -8l8 -8l8 -8l4 -8l4 -8l4 -8l4 -8l4 -8v-24h-1l-3 -4h-196v-28l4 -8l4 -8l4 -8l8 -8l8 -8l8 -8l8 -8l8 -4l8 -4l8 -4l8 -4h56l8 4l8 4l8 4l8 4l8 8h8l8 -8v-8l-8 -8l-8 -4l-8 -4l-8 -4l-8 -4l-8 -4h-72z
M60 248l-8 8v4l4 4l4 4l4 4l4 4l4 4l4 4l4 4l4 4l4 4l4 4l4 4l4 4l4 4l4 4l4 4l4 4l4 4l4 4l4 4l4 4l4 4l4 4l8 -4l4 -8l-4 -8l-8 -8l-8 -8l-8 -8l-8 -8l-8 -8l-8 -8l-8 -8l-8 -8l-8 -8l-8 -8h-8z" />
    <glyph glyph-name="ecircumflex" unicode="&#xea;" horiz-adv-x="264" 
d="M192 136v8l-4 8l-4 8l-4 8l-8 8l-8 8l-8 8l-8 8l-8 4l-8 4l-8 4l-8 4h-24l-8 -4l-8 -4l-8 -4l-8 -4l-8 -8l-8 -8l-8 -8l-8 -8l-4 -8l-4 -8l-4 -8v-8h176zM84 -4l-8 4l-8 4l-8 4l-8 4l-8 4l-8 8l-8 8l-8 8l-8 8l-4 8l-4 8l-4 8l-4 8l-4 8v56l4 8l4 8l4 8l4 8l4 8l8 8l8 8
l8 8l8 8l8 4l8 4l8 4l8 4l8 4h40l8 -4l8 -4l8 -4l8 -4l8 -4l8 -8l8 -8l8 -8l8 -8l4 -8l4 -8l4 -8l4 -8l4 -8v-24h-1l-3 -4h-196v-28l4 -8l4 -8l4 -8l8 -8l8 -8l8 -8l8 -8l8 -4l8 -4l8 -4l8 -4h56l8 4l8 4l8 4l8 4l8 8h8l8 -8v-8l-8 -8l-8 -4l-8 -4l-8 -4l-8 -4l-8 -4h-72z
M12 248v4l4 4l4 4l4 4l4 4l4 4l4 4l4 4l4 4l4 4l4 4l4 4l4 4l4 4l4 4l4 4l4 4l4 4l4 4l4 4l4 4l4 4l4 4l4 4h8l4 -4v-1l4 -3l4 -4v-1l4 -3l4 -4v-1l4 -3l4 -4v-1l4 -3l4 -4v-1l4 -3l4 -4v-1l4 -3l4 -4v-1l4 -3l4 -4v-1l4 -3l4 -4v-1l4 -3l4 -4v-1l4 -3l4 -4v-1l4 -3l4 -4v-4
h-24l-8 8l-8 8l-8 8l-8 8l-8 8l-8 8l-8 8l-8 8l-8 8l-8 -8l-8 -8l-8 -8l-8 -8l-8 -8l-8 -8l-8 -8l-8 -8l-8 -8h-24z" />
    <glyph glyph-name="edieresis" unicode="&#xeb;" horiz-adv-x="264" 
d="M192 136v8l-4 8l-4 8l-4 8l-8 8l-8 8l-8 8l-8 8l-8 4l-8 4l-8 4l-8 4h-24l-8 -4l-8 -4l-8 -4l-8 -4l-8 -8l-8 -8l-8 -8l-8 -8l-4 -8l-4 -8l-4 -8v-8h176zM84 -4l-8 4l-8 4l-8 4l-8 4l-8 4l-8 8l-8 8l-8 8l-8 8l-4 8l-4 8l-4 8l-4 8l-4 8v56l4 8l4 8l4 8l4 8l4 8l8 8l8 8
l8 8l8 8l8 4l8 4l8 4l8 4l8 4h40l8 -4l8 -4l8 -4l8 -4l8 -4l8 -8l8 -8l8 -8l8 -8l4 -8l4 -8l4 -8l4 -8l4 -8v-24h-1l-3 -4h-196v-28l4 -8l4 -8l4 -8l8 -8l8 -8l8 -8l8 -8l8 -4l8 -4l8 -4l8 -4h56l8 4l8 4l8 4l8 4l8 8h8l8 -8v-8l-8 -8l-8 -4l-8 -4l-8 -4l-8 -4l-8 -4h-72z
M44 248l-8 4l-8 4l-4 8l-4 8v8l4 8l4 8l8 4l8 4h8l8 -4l8 -4l4 -8l4 -8v-8l-4 -8l-4 -8l-8 -4l-8 -4h-8zM156 248l-8 4l-8 4l-4 8l-4 8v8l4 8l4 8l8 4l8 4h8l8 -4l8 -4l4 -8l4 -8v-8l-4 -8l-4 -8l-8 -4l-8 -4h-8z" />
    <glyph glyph-name="igrave" unicode="&#xec;" horiz-adv-x="208" 
d="M8 0l-8 4v12l8 4h56v192h-56l-8 4v12l8 4h72q3 0 5 -3q3 -2 3 -5v-204h56l8 -4v-12l-8 -4h-136zM104 248l-8 8l-8 8l-8 8l-8 8l-8 8l-8 8l-8 8l-8 8l-8 8l-8 8l-4 8l4 8l7 3v1h1v-1l4 -3l4 -4v-1l4 -3l4 -4v-1l4 -3l4 -4v-1l4 -3l4 -4v-1l4 -3l4 -4v-1l4 -3l4 -4v-1l4 -3
l4 -4v-1l4 -3l4 -4v-1l4 -3l4 -4v-1l4 -3l4 -4v-1l4 -3l4 -4v-4l-8 -8h-8z" />
    <glyph glyph-name="iacute" unicode="&#xed;" horiz-adv-x="208" 
d="M8 0l-8 4v12l8 4h56v192h-56l-8 4v12l8 4h72q3 0 5 -3q3 -2 3 -5v-204h56l8 -4v-12l-8 -4h-136zM24 248l-8 8v4l4 4l4 4l4 4l4 4l4 4l4 4l4 4l4 4l4 4l4 4l4 4l4 4l4 4l4 4l4 4l4 4l4 4l4 4l4 4l4 4l4 4l4 4l8 -4l4 -8l-4 -8l-8 -8l-8 -8l-8 -8l-8 -8l-8 -8l-8 -8l-8 -8
l-8 -8l-8 -8l-8 -8h-8z" />
    <glyph glyph-name="icircumflex" unicode="&#xee;" horiz-adv-x="248" 
d="M32 0l-8 4v12l8 4h56v192h-56l-8 4v12l8 4h72q3 0 5 -3q3 -2 3 -5v-204h56l8 -4v-12l-8 -4h-136zM0 248v4l4 4l4 4l4 4l4 4l4 4l4 4l4 4l4 4l4 4l4 4l4 4l4 4l4 4l4 4l4 4l4 4l4 4l4 4l4 4l4 4l4 4l4 4l4 4h8l4 -4v-1l4 -3l4 -4v-1l4 -3l4 -4v-1l4 -3l4 -4v-1l4 -3l4 -4
v-1l4 -3l4 -4v-1l4 -3l4 -4v-1l4 -3l4 -4v-1l4 -3l4 -4v-1l4 -3l4 -4v-1l4 -3l4 -4v-1l4 -3l4 -4v-4h-24l-8 8l-8 8l-8 8l-8 8l-8 8l-8 8l-8 8l-8 8l-8 8l-8 -8l-8 -8l-8 -8l-8 -8l-8 -8l-8 -8l-8 -8l-8 -8l-8 -8h-24z" />
    <glyph glyph-name="idieresis" unicode="&#xef;" horiz-adv-x="208" 
d="M8 0l-8 4v12l8 4h56v192h-56l-8 4v12l8 4h72q3 0 5 -3q3 -2 3 -5v-204h56l8 -4v-12l-8 -4h-136zM24 248l-8 4l-8 4l-4 8l-4 8v8l4 8l4 8l8 4l8 4h8l8 -4l8 -4l4 -8l4 -8v-8l-4 -8l-4 -8l-8 -4l-8 -4h-8zM120 248l-8 4l-8 4l-4 8l-4 8v8l4 8l4 8l8 4l8 4h8l8 -4l8 -4l4 -8
l4 -8v-8l-4 -8l-4 -8l-8 -4l-8 -4h-8z" />
    <glyph glyph-name="eth" unicode="&#xf0;" horiz-adv-x="280" 
d="M132 16l8 4l8 4l8 4l8 4l8 8l8 8l8 8l8 8l4 8l4 8l4 8v56l-4 8l-4 8l-4 8l-8 8l-8 8l-8 8l-8 8l-8 4l-8 4l-8 4l-8 4h-40l-8 -4l-8 -4l-8 -4l-8 -4l-8 -8l-8 -8l-8 -8l-8 -8l-4 -8l-4 -8l-4 -8v-56l4 -8l4 -8l4 -8l8 -8l8 -8l8 -8l8 -8l8 -4l8 -4l8 -4l8 -4h40zM84 -4
l-8 4l-8 4l-8 4l-8 4l-8 4l-8 8l-8 8l-8 8l-8 8l-4 8l-4 8l-4 8l-4 8l-4 8v56l4 8l4 8l4 8l4 8l4 8l8 8l8 8l8 8l8 8l8 4l8 4l8 4l8 4l8 4h56l8 -4l8 -4l8 -4l5 -3l-1 3l-4 8l-4 8l-4 8l-4 8l-4 8l-8 8l-8 8v0l-4 4l-4 -4v0l-8 -8l-8 -8l-8 -8l-8 -4l-8 4l-4 8l4 8l8 8l8 8
l8 8v0l4 4l-4 3v1l-8 8l-8 8v8l8 8h8l8 -8l8 -8v-1l4 -3l3 4h1l8 8l8 8l8 4l8 -4l4 -8l-4 -8l-8 -8l-8 -8h-1l-3 -4l4 -4v0l8 -8l8 -8l4 -8l4 -8l4 -8l4 -8l4 -8l4 -8l4 -8l4 -8l4 -8l4 -8l4 -8l4 -8l4 -8l4 -8l4 -8l4 -8l4 -8v-56l-4 -8l-4 -8l-4 -8l-4 -8l-4 -8l-8 -8
l-8 -8l-8 -8l-8 -8l-8 -4l-8 -4l-8 -4l-8 -4l-8 -4h-56z" />
    <glyph glyph-name="ntilde" unicode="&#xf1;" 
d="M8 0l-8 4v12l8 4h24v192h-24l-8 4v12l8 4h40q3 0 5 -3q3 -2 3 -5v-36l4 4l4 4l4 4l4 4l4 4l4 4l8 4l8 4l8 4l8 4l8 4l8 4h40l8 -4l8 -4l8 -4l8 -8l8 -8l4 -8l4 -8l4 -8l4 -8v-156h24l8 -4v-12l-8 -4h-72l-8 4v12l8 4h24v156l-4 8l-4 8l-8 8l-8 8l-8 4l-8 4h-32l-8 -4
l-8 -4l-8 -4l-4 -4h-1l-3 -4l-4 -4h-1l-3 -4l-4 -4h-1l-3 -4l-4 -4h-1l-3 -4l-4 -4l-4 -8l-4 -8l-4 -8v-124h24l8 -4v-12l-8 -4h-72zM152 248l-8 4l-8 4l-8 4v0l-4 4l-4 4v0l-4 4l-4 4v0l-4 4l-4 4l-8 4l-8 4h-24l-8 -4l-8 -4l-4 -4l-4 -8l-4 -8l-4 -8h-16l-4 8l4 8l4 8l4 8
l8 8l8 8l8 4l8 4h40l8 -4l8 -4l8 -8l8 -8l8 -8l8 -8l8 -4h24l8 4l8 4l4 4l4 8l4 8l4 8h16l4 -8l-4 -8l-4 -8l-4 -8l-8 -8l-8 -8l-8 -4l-8 -4h-32z" />
    <glyph glyph-name="ograve" unicode="&#xf2;" horiz-adv-x="280" 
d="M132 16l8 4l8 4l8 4l8 4l8 8l8 8l8 8l8 8l4 8l4 8l4 8v56l-4 8l-4 8l-4 8l-8 8l-8 8l-8 8l-8 8l-8 4l-8 4l-8 4l-8 4h-40l-8 -4l-8 -4l-8 -4l-8 -4l-8 -8l-8 -8l-8 -8l-8 -8l-4 -8l-4 -8l-4 -8v-56l4 -8l4 -8l4 -8l8 -8l8 -8l8 -8l8 -8l8 -4l8 -4l8 -4l8 -4h40zM84 -4
l-8 4l-8 4l-8 4l-8 4l-8 4l-8 8l-8 8l-8 8l-8 8l-4 8l-4 8l-4 8l-4 8l-4 8v56l4 8l4 8l4 8l4 8l4 8l8 8l8 8l8 8l8 8l8 4l8 4l8 4l8 4l8 4h56l8 -4l8 -4l8 -4l8 -4l8 -4l8 -8l8 -8l8 -8l8 -8l4 -8l4 -8l4 -8l4 -8l4 -8v-56l-4 -8l-4 -8l-4 -8l-4 -8l-4 -8l-8 -8l-8 -8l-8 -8
l-8 -8l-8 -4l-8 -4l-8 -4l-8 -4l-8 -4h-56zM156 248l-8 8l-8 8l-8 8l-8 8l-8 8l-8 8l-8 8l-8 8l-8 8l-8 8l-4 8l4 8l7 3v1h1v-1l4 -3l4 -4v-1l4 -3l4 -4v-1l4 -3l4 -4v-1l4 -3l4 -4v-1l4 -3l4 -4v-1l4 -3l4 -4v-1l4 -3l4 -4v-1l4 -3l4 -4v-1l4 -3l4 -4v-1l4 -3l4 -4v-1l4 -3
l4 -4v-4l-8 -8h-8z" />
    <glyph glyph-name="oacute" unicode="&#xf3;" horiz-adv-x="280" 
d="M132 16l8 4l8 4l8 4l8 4l8 8l8 8l8 8l8 8l4 8l4 8l4 8v56l-4 8l-4 8l-4 8l-8 8l-8 8l-8 8l-8 8l-8 4l-8 4l-8 4l-8 4h-40l-8 -4l-8 -4l-8 -4l-8 -4l-8 -8l-8 -8l-8 -8l-8 -8l-4 -8l-4 -8l-4 -8v-56l4 -8l4 -8l4 -8l8 -8l8 -8l8 -8l8 -8l8 -4l8 -4l8 -4l8 -4h40zM84 -4
l-8 4l-8 4l-8 4l-8 4l-8 4l-8 8l-8 8l-8 8l-8 8l-4 8l-4 8l-4 8l-4 8l-4 8v56l4 8l4 8l4 8l4 8l4 8l8 8l8 8l8 8l8 8l8 4l8 4l8 4l8 4l8 4h56l8 -4l8 -4l8 -4l8 -4l8 -4l8 -8l8 -8l8 -8l8 -8l4 -8l4 -8l4 -8l4 -8l4 -8v-56l-4 -8l-4 -8l-4 -8l-4 -8l-4 -8l-8 -8l-8 -8l-8 -8
l-8 -8l-8 -4l-8 -4l-8 -4l-8 -4l-8 -4h-56zM68 248l-8 8v4l4 4l4 4l4 4l4 4l4 4l4 4l4 4l4 4l4 4l4 4l4 4l4 4l4 4l4 4l4 4l4 4l4 4l4 4l4 4l4 4l4 4l4 4l8 -4l4 -8l-4 -8l-8 -8l-8 -8l-8 -8l-8 -8l-8 -8l-8 -8l-8 -8l-8 -8l-8 -8l-8 -8h-8z" />
    <glyph glyph-name="ocircumflex" unicode="&#xf4;" horiz-adv-x="280" 
d="M132 16l8 4l8 4l8 4l8 4l8 8l8 8l8 8l8 8l4 8l4 8l4 8v56l-4 8l-4 8l-4 8l-8 8l-8 8l-8 8l-8 8l-8 4l-8 4l-8 4l-8 4h-40l-8 -4l-8 -4l-8 -4l-8 -4l-8 -8l-8 -8l-8 -8l-8 -8l-4 -8l-4 -8l-4 -8v-56l4 -8l4 -8l4 -8l8 -8l8 -8l8 -8l8 -8l8 -4l8 -4l8 -4l8 -4h40zM84 -4
l-8 4l-8 4l-8 4l-8 4l-8 4l-8 8l-8 8l-8 8l-8 8l-4 8l-4 8l-4 8l-4 8l-4 8v56l4 8l4 8l4 8l4 8l4 8l8 8l8 8l8 8l8 8l8 4l8 4l8 4l8 4l8 4h56l8 -4l8 -4l8 -4l8 -4l8 -4l8 -8l8 -8l8 -8l8 -8l4 -8l4 -8l4 -8l4 -8l4 -8v-56l-4 -8l-4 -8l-4 -8l-4 -8l-4 -8l-8 -8l-8 -8l-8 -8
l-8 -8l-8 -4l-8 -4l-8 -4l-8 -4l-8 -4h-56zM20 248v4l4 4l4 4l4 4l4 4l4 4l4 4l4 4l4 4l4 4l4 4l4 4l4 4l4 4l4 4l4 4l4 4l4 4l4 4l4 4l4 4l4 4l4 4l4 4h8l4 -4v-1l4 -3l4 -4v-1l4 -3l4 -4v-1l4 -3l4 -4v-1l4 -3l4 -4v-1l4 -3l4 -4v-1l4 -3l4 -4v-1l4 -3l4 -4v-1l4 -3l4 -4
v-1l4 -3l4 -4v-1l4 -3l4 -4v-1l4 -3l4 -4v-4h-24l-8 8l-8 8l-8 8l-8 8l-8 8l-8 8l-8 8l-8 8l-8 8l-8 -8l-8 -8l-8 -8l-8 -8l-8 -8l-8 -8l-8 -8l-8 -8l-8 -8h-24z" />
    <glyph glyph-name="otilde" unicode="&#xf5;" horiz-adv-x="280" 
d="M132 16l8 4l8 4l8 4l8 4l8 8l8 8l8 8l8 8l4 8l4 8l4 8v56l-4 8l-4 8l-4 8l-8 8l-8 8l-8 8l-8 8l-8 4l-8 4l-8 4l-8 4h-40l-8 -4l-8 -4l-8 -4l-8 -4l-8 -8l-8 -8l-8 -8l-8 -8l-4 -8l-4 -8l-4 -8v-56l4 -8l4 -8l4 -8l8 -8l8 -8l8 -8l8 -8l8 -4l8 -4l8 -4l8 -4h40zM84 -4
l-8 4l-8 4l-8 4l-8 4l-8 4l-8 8l-8 8l-8 8l-8 8l-4 8l-4 8l-4 8l-4 8l-4 8v56l4 8l4 8l4 8l4 8l4 8l8 8l8 8l8 8l8 8l8 4l8 4l8 4l8 4l8 4h56l8 -4l8 -4l8 -4l8 -4l8 -4l8 -8l8 -8l8 -8l8 -8l4 -8l4 -8l4 -8l4 -8l4 -8v-56l-4 -8l-4 -8l-4 -8l-4 -8l-4 -8l-8 -8l-8 -8l-8 -8
l-8 -8l-8 -4l-8 -4l-8 -4l-8 -4l-8 -4h-56zM148 248l-8 4l-8 4l-8 4v0l-4 4l-4 4v0l-4 4l-4 4v0l-4 4l-4 4l-8 4l-8 4h-24l-8 -4l-8 -4l-4 -4l-4 -8l-4 -8l-4 -8h-16l-4 8l4 8l4 8l4 8l8 8l8 8l8 4l8 4h40l8 -4l8 -4l8 -8l8 -8l8 -8l8 -8l8 -4h24l8 4l8 4l4 4l4 8l4 8l4 8
h16l4 -8l-4 -8l-4 -8l-4 -8l-8 -8l-8 -8l-8 -4l-8 -4h-32z" />
    <glyph glyph-name="odieresis" unicode="&#xf6;" horiz-adv-x="280" 
d="M132 16l8 4l8 4l8 4l8 4l8 8l8 8l8 8l8 8l4 8l4 8l4 8v56l-4 8l-4 8l-4 8l-8 8l-8 8l-8 8l-8 8l-8 4l-8 4l-8 4l-8 4h-40l-8 -4l-8 -4l-8 -4l-8 -4l-8 -8l-8 -8l-8 -8l-8 -8l-4 -8l-4 -8l-4 -8v-56l4 -8l4 -8l4 -8l8 -8l8 -8l8 -8l8 -8l8 -4l8 -4l8 -4l8 -4h40zM84 -4
l-8 4l-8 4l-8 4l-8 4l-8 4l-8 8l-8 8l-8 8l-8 8l-4 8l-4 8l-4 8l-4 8l-4 8v56l4 8l4 8l4 8l4 8l4 8l8 8l8 8l8 8l8 8l8 4l8 4l8 4l8 4l8 4h56l8 -4l8 -4l8 -4l8 -4l8 -4l8 -8l8 -8l8 -8l8 -8l4 -8l4 -8l4 -8l4 -8l4 -8v-56l-4 -8l-4 -8l-4 -8l-4 -8l-4 -8l-8 -8l-8 -8l-8 -8
l-8 -8l-8 -4l-8 -4l-8 -4l-8 -4l-8 -4h-56zM52 248l-8 4l-8 4l-4 8l-4 8v8l4 8l4 8l8 4l8 4h8l8 -4l8 -4l4 -8l4 -8v-8l-4 -8l-4 -8l-8 -4l-8 -4h-8zM164 248l-8 4l-8 4l-4 8l-4 8v8l4 8l4 8l8 4l8 4h8l8 -4l8 -4l4 -8l4 -8v-8l-4 -8l-4 -8l-8 -4l-8 -4h-8z" />
    <glyph glyph-name="divide" unicode="&#xf7;" horiz-adv-x="224" 
d="M80 80l-8 4l-8 4l-4 8l-4 8v8l4 8l4 8l8 4l8 4h8l8 -4l8 -4l4 -8l4 -8v-8l-4 -8l-4 -8l-8 -4l-8 -4h-8zM8 156l-8 4v12l8 4h152l8 -4v-12l-8 -4h-152zM80 200l-8 4l-8 4l-4 8l-4 8v8l4 8l4 8l8 4l8 4h8l8 -4l8 -4l4 -8l4 -8v-8l-4 -8l-4 -8l-8 -4l-8 -4h-8z" />
    <glyph glyph-name="oslash" unicode="&#xf8;" horiz-adv-x="280" 
d="M132 16l8 4l8 4l8 4l8 4l8 8l8 8l8 8l8 8l4 8l4 8l4 8v56l-4 8l-4 8l-4 8l-8 8l-8 8l-8 8l-8 8l-4 -8l-4 -8l-4 -8l-4 -8l-4 -8l-4 -8l-4 -8l-4 -8l-4 -8l-4 -8l-4 -8l-4 -8l-4 -8l-4 -8l-4 -8l-4 -8l-4 -8l-4 -8l-4 -8l-4 -8l-4 -8l-4 -8l8 -4l8 -4h40zM57 34l3 6l4 8
l4 8l4 8l4 8l4 8l4 8l4 8l4 8l4 8l4 8l4 8l4 8l4 8l4 8l4 8l4 8l4 8l4 8l4 8l4 8l4 8v1l-4 3l-8 4h-40l-8 -4l-8 -4l-8 -4l-8 -4l-8 -8l-8 -8l-8 -8l-8 -8l-4 -8l-4 -8l-4 -8v-56l4 -8l4 -8l4 -8l8 -8l8 -8l8 -8l5 -6v0zM44 -8l-4 8l4 8l3 6l-3 2l-8 8l-8 8l-8 8l-8 8l-4 8
l-4 8l-4 8l-4 8l-4 8v56l4 8l4 8l4 8l4 8l4 8l8 8l8 8l8 8l8 8l8 4l8 4l8 4l8 4l8 4h56l8 -4l6 -4l2 4l4 8l4 4l4 4h12l4 -8l-4 -8l-4 -8l-3 -5l7 -3l8 -8l8 -8l8 -8l8 -8l4 -8l4 -8l4 -8l4 -8l4 -8v-56l-4 -8l-4 -8l-4 -8l-4 -8l-4 -8l-8 -8l-8 -8l-8 -8l-8 -8l-8 -4l-8 -4
l-8 -4l-8 -4l-8 -4h-56l-8 4l-8 4h-2l-2 -4h-1l-3 -4l-4 -4h-12z" />
    <glyph glyph-name="ugrave" unicode="&#xf9;" 
d="M88 -4l-8 4l-8 4l-8 4l-8 8l-8 8l-4 8l-4 8l-4 8l-4 8v156h-24l-8 4v12l8 4h72l8 -4v-12l-8 -4h-24v-156l4 -8l4 -8l8 -8l8 -8l8 -4l8 -4h32l8 4l8 4l8 4l4 4l4 4l4 4l4 4l4 4l4 4l4 4l4 4l4 4l4 8l4 8l4 8v124h-24l-8 4v12l8 4h72l8 -4v-12l-8 -4h-24v-192h24l8 -4v-12
l-8 -4h-40q-4 0 -6 2t-2 6v36l-4 -4h-1l-3 -4l-4 -4h-1l-3 -4l-4 -4h-1l-3 -4l-8 -4l-8 -4l-8 -4l-8 -4l-8 -4l-8 -4h-40zM168 248l-8 8l-8 8l-8 8l-8 8l-8 8l-8 8l-8 8l-8 8l-8 8l-8 8l-4 8l4 8l7 3v1h1v-1l4 -3l4 -4v-1l4 -3l4 -4v-1l4 -3l4 -4v-1l4 -3l4 -4v-1l4 -3l4 -4
v-1l4 -3l4 -4v-1l4 -3l4 -4v-1l4 -3l4 -4v-1l4 -3l4 -4v-1l4 -3l4 -4v-1l4 -3l4 -4v-4l-8 -8h-8z" />
    <glyph glyph-name="uacute" unicode="&#xfa;" 
d="M88 -4l-8 4l-8 4l-8 4l-8 8l-8 8l-4 8l-4 8l-4 8l-4 8v156h-24l-8 4v12l8 4h72l8 -4v-12l-8 -4h-24v-156l4 -8l4 -8l8 -8l8 -8l8 -4l8 -4h32l8 4l8 4l8 4l4 4l4 4l4 4l4 4l4 4l4 4l4 4l4 4l4 4l4 8l4 8l4 8v124h-24l-8 4v12l8 4h72l8 -4v-12l-8 -4h-24v-192h24l8 -4v-12
l-8 -4h-40q-4 0 -6 2t-2 6v36l-4 -4h-1l-3 -4l-4 -4h-1l-3 -4l-4 -4h-1l-3 -4l-8 -4l-8 -4l-8 -4l-8 -4l-8 -4l-8 -4h-40zM88 248l-8 8v4l4 4l4 4l4 4l4 4l4 4l4 4l4 4l4 4l4 4l4 4l4 4l4 4l4 4l4 4l4 4l4 4l4 4l4 4l4 4l4 4l4 4l4 4l8 -4l4 -8l-4 -8l-8 -8l-8 -8l-8 -8
l-8 -8l-8 -8l-8 -8l-8 -8l-8 -8l-8 -8l-8 -8h-8z" />
    <glyph glyph-name="ucircumflex" unicode="&#xfb;" 
d="M88 -4l-8 4l-8 4l-8 4l-8 8l-8 8l-4 8l-4 8l-4 8l-4 8v156h-24l-8 4v12l8 4h72l8 -4v-12l-8 -4h-24v-156l4 -8l4 -8l8 -8l8 -8l8 -4l8 -4h32l8 4l8 4l8 4l4 4l4 4l4 4l4 4l4 4l4 4l4 4l4 4l4 4l4 8l4 8l4 8v124h-24l-8 4v12l8 4h72l8 -4v-12l-8 -4h-24v-192h24l8 -4v-12
l-8 -4h-40q-4 0 -6 2t-2 6v36l-4 -4h-1l-3 -4l-4 -4h-1l-3 -4l-4 -4h-1l-3 -4l-8 -4l-8 -4l-8 -4l-8 -4l-8 -4l-8 -4h-40zM32 248v4l4 4l4 4l4 4l4 4l4 4l4 4l4 4l4 4l4 4l4 4l4 4l4 4l4 4l4 4l4 4l4 4l4 4l4 4l4 4l4 4l4 4l4 4l4 4h8l4 -4v-1l4 -3l4 -4v-1l4 -3l4 -4v-1
l4 -3l4 -4v-1l4 -3l4 -4v-1l4 -3l4 -4v-1l4 -3l4 -4v-1l4 -3l4 -4v-1l4 -3l4 -4v-1l4 -3l4 -4v-1l4 -3l4 -4v-1l4 -3l4 -4v-4h-24l-8 8l-8 8l-8 8l-8 8l-8 8l-8 8l-8 8l-8 8l-8 8l-8 -8l-8 -8l-8 -8l-8 -8l-8 -8l-8 -8l-8 -8l-8 -8l-8 -8h-24z" />
    <glyph glyph-name="udieresis" unicode="&#xfc;" 
d="M88 -4l-8 4l-8 4l-8 4l-8 8l-8 8l-4 8l-4 8l-4 8l-4 8v156h-24l-8 4v12l8 4h72l8 -4v-12l-8 -4h-24v-156l4 -8l4 -8l8 -8l8 -8l8 -4l8 -4h32l8 4l8 4l8 4l4 4l4 4l4 4l4 4l4 4l4 4l4 4l4 4l4 4l4 8l4 8l4 8v124h-24l-8 4v12l8 4h72l8 -4v-12l-8 -4h-24v-192h24l8 -4v-12
l-8 -4h-40q-4 0 -6 2t-2 6v36l-4 -4h-1l-3 -4l-4 -4h-1l-3 -4l-4 -4h-1l-3 -4l-8 -4l-8 -4l-8 -4l-8 -4l-8 -4l-8 -4h-40zM64 248l-8 4l-8 4l-4 8l-4 8v8l4 8l4 8l8 4l8 4h8l8 -4l8 -4l4 -8l4 -8v-8l-4 -8l-4 -8l-8 -4l-8 -4h-8zM176 248l-8 4l-8 4l-4 8l-4 8v8l4 8l4 8l8 4
l8 4h8l8 -4l8 -4l4 -8l4 -8v-8l-4 -8l-4 -8l-8 -4l-8 -4h-8z" />
    <glyph glyph-name="yacute" unicode="&#xfd;" horiz-adv-x="360" 
d="M40 -128l-8 4l-8 4l-8 4l-8 4l-8 8l-4 8l-4 8v8l4 8l4 8l8 4l8 4h8l8 -4l8 -4l4 -8l4 -8v-8l-4 -8l-4 -8l8 -4h16l8 4l8 4l4 4l4 4l4 4l4 8l4 8l4 8l4 8l4 8l4 8l4 8l4 8l4 8l4 8l4 8l4 8l-4 8l-4 8l-4 8l-4 8l-4 8l-4 8l-4 8l-4 8l-4 8l-4 8l-4 8l-4 8l-4 8l-4 8l-4 8
l-4 8l-4 8l-4 8l-4 8l-4 8l-4 8l-4 8l-4 8l-4 8l-4 8l-2 4h-30l-8 4v12l8 4h80l8 -4v-12l-8 -4h-26l2 -4l4 -8l4 -8l4 -8l4 -8l4 -8l4 -8l4 -8l4 -8l4 -8l4 -8l4 -8l4 -8l4 -8l4 -8l4 -8l4 -8l4 -8l4 -8l4 -8l4 -8l4 -8l4 -8l4 8l4 8l4 8l4 8l4 8l4 8l4 8l4 8l4 8l4 8l4 8
l4 8l4 8l4 8l4 8l4 8l4 8l4 8l4 8l4 8l4 8l4 8l2 4h-26l-8 4v12l8 4h80l8 -4v-12l-8 -4h-30l-2 -4l-4 -8l-4 -8l-4 -8l-4 -8l-4 -8l-4 -8l-4 -8l-4 -8l-4 -8l-4 -8l-4 -8l-4 -8l-4 -8l-4 -8l-4 -8l-4 -8l-4 -8l-4 -8l-4 -8l-4 -8l-4 -8l-4 -8l-4 -8l-4 -8l-4 -8l-4 -8l-4 -8
l-4 -8l-4 -8l-4 -8l-4 -8l-4 -8l-4 -8l-4 -8l-4 -8l-4 -8l-4 -8l-4 -8l-8 -8l-8 -8l-8 -4l-8 -4l-8 -4l-8 -4h-24zM112 248l-8 8v4l4 4l4 4l4 4l4 4l4 4l4 4l4 4l4 4l4 4l4 4l4 4l4 4l4 4l4 4l4 4l4 4l4 4l4 4l4 4l4 4l4 4l4 4l8 -4l4 -8l-4 -8l-8 -8l-8 -8l-8 -8l-8 -8
l-8 -8l-8 -8l-8 -8l-8 -8l-8 -8l-8 -8h-8z" />
    <glyph glyph-name="thorn" unicode="&#xfe;" horiz-adv-x="276" 
d="M144 16l8 4l8 4l8 8l8 8l8 8l8 8l4 8l4 8l4 8v72l-4 8l-4 8l-4 8l-8 8l-8 8l-8 8l-8 8l-8 4l-8 4h-40l-8 -4l-8 -4l-8 -8l-8 -8l-8 -8l-8 -8l-4 -8l-4 -8l-4 -8l-4 -8v-56l4 -8l4 -8l4 -8l4 -8l8 -8l8 -8l8 -8l8 -8l8 -4l8 -4h40zM-24 -104l-8 4v12l8 4h40v400h-40l-8 4
v12l8 4h56q3 0 5 -3q3 -2 3 -5v-136l8 8l8 8l8 8l8 8l8 4l8 4l8 4h56l8 -4l8 -4l8 -4l8 -8l8 -8l8 -8l8 -8l4 -8l4 -8l4 -8l4 -8l4 -8v-72l-4 -8l-4 -8l-4 -8l-4 -8l-4 -8l-8 -8l-8 -8l-8 -8l-8 -8l-8 -4l-8 -4l-8 -4h-56l-8 4l-8 4l-8 4l-8 8l-8 8l-8 8l-8 8v-124h40l8 -4
v-12l-8 -4h-104z" />
    <glyph glyph-name="ydieresis" unicode="&#xff;" horiz-adv-x="360" 
d="M40 -128l-8 4l-8 4l-8 4l-8 4l-8 8l-4 8l-4 8v8l4 8l4 8l8 4l8 4h8l8 -4l8 -4l4 -8l4 -8v-8l-4 -8l-4 -8l8 -4h16l8 4l8 4l4 4l4 4l4 4l4 8l4 8l4 8l4 8l4 8l4 8l4 8l4 8l4 8l4 8l4 8l4 8l-4 8l-4 8l-4 8l-4 8l-4 8l-4 8l-4 8l-4 8l-4 8l-4 8l-4 8l-4 8l-4 8l-4 8l-4 8
l-4 8l-4 8l-4 8l-4 8l-4 8l-4 8l-4 8l-4 8l-4 8l-4 8l-2 4h-30l-8 4v12l8 4h80l8 -4v-12l-8 -4h-26l2 -4l4 -8l4 -8l4 -8l4 -8l4 -8l4 -8l4 -8l4 -8l4 -8l4 -8l4 -8l4 -8l4 -8l4 -8l4 -8l4 -8l4 -8l4 -8l4 -8l4 -8l4 -8l4 -8l4 8l4 8l4 8l4 8l4 8l4 8l4 8l4 8l4 8l4 8l4 8
l4 8l4 8l4 8l4 8l4 8l4 8l4 8l4 8l4 8l4 8l4 8l2 4h-26l-8 4v12l8 4h80l8 -4v-12l-8 -4h-30l-2 -4l-4 -8l-4 -8l-4 -8l-4 -8l-4 -8l-4 -8l-4 -8l-4 -8l-4 -8l-4 -8l-4 -8l-4 -8l-4 -8l-4 -8l-4 -8l-4 -8l-4 -8l-4 -8l-4 -8l-4 -8l-4 -8l-4 -8l-4 -8l-4 -8l-4 -8l-4 -8l-4 -8
l-4 -8l-4 -8l-4 -8l-4 -8l-4 -8l-4 -8l-4 -8l-4 -8l-4 -8l-4 -8l-4 -8l-8 -8l-8 -8l-8 -4l-8 -4l-8 -4l-8 -4h-24zM88 248l-8 4l-8 4l-4 8l-4 8v8l4 8l4 8l8 4l8 4h8l8 -4l8 -4l4 -8l4 -8v-8l-4 -8l-4 -8l-8 -4l-8 -4h-8zM200 248l-8 4l-8 4l-4 8l-4 8v8l4 8l4 8l8 4l8 4h8
l8 -4l8 -4l4 -8l4 -8v-8l-4 -8l-4 -8l-8 -4l-8 -4h-8z" />
    <glyph glyph-name="Ydieresis" unicode="&#x178;" horiz-adv-x="304" 
d="M24 0l-8 4v12l8 4h88v156l-4 8l-4 8l-4 8l-4 8l-4 8l-4 8l-4 8l-4 8l-4 8l-4 8l-4 8l-4 8l-4 8l-4 8l-4 8l-4 8l-4 8l-2 4h-34l-8 4v12l8 4h96l8 -4v-12l-8 -4h-38l2 -4l4 -8l4 -8l4 -8l4 -8l4 -8l4 -8l4 -8l4 -8l4 -8l4 -8l4 -8l4 -8l4 -8l4 -8l4 8l4 8l4 8l4 8l4 8l4 8
l4 8l4 8l4 8l4 8l4 8l4 8l4 8l4 8l2 4h-38l-8 4v12l8 4h96l8 -4v-12l-8 -4h-34l-2 -4l-4 -8l-4 -8l-4 -8l-4 -8l-4 -8l-4 -8l-4 -8l-4 -8l-4 -8l-4 -8l-4 -8l-4 -8l-4 -8l-4 -8l-4 -8l-4 -8l-4 -8v-156h88l8 -4v-12l-8 -4h-200zM64 344l-8 4l-8 4l-4 8l-4 8v8l4 8l4 8l8 4
l8 4h8l8 -4l8 -4l4 -8l4 -8v-8l-4 -8l-4 -8l-8 -4l-8 -4h-8zM184 344l-8 4l-8 4l-4 8l-4 8v8l4 8l4 8l8 4l8 4h8l8 -4l8 -4l4 -8l4 -8v-8l-4 -8l-4 -8l-8 -4l-8 -4h-8z" />
    <glyph glyph-name="emdash" unicode="&#x2014;" horiz-adv-x="392" 
d="M8 156l-8 4v12l8 4h320l8 -4v-12l-8 -4h-320z" />
    <glyph glyph-name="quoteleft" unicode="&#x2018;" horiz-adv-x="116" 
d="M28 264l-8 4l-8 4l-4 8l-4 8l-4 8v16l4 8l4 8l4 8l8 8l8 8l8 8l8 4l8 4l8 4v-8l-8 -4l-8 -8l-4 -8l-4 -8v-16l8 -4l8 -4l4 -8l4 -8v-8l-4 -8l-4 -8l-8 -4l-8 -4h-8z" />
    <glyph glyph-name="quoteright" unicode="&#x2019;" horiz-adv-x="108" 
d="M0 260v8l8 4l8 8l4 8l4 8v16l-8 4l-8 4l-4 8l-4 8v8l4 8l4 8l8 4l8 4h8l8 -4l8 -4l4 -8l4 -8l4 -8v-16l-4 -8l-4 -8l-4 -8l-8 -8l-8 -8l-8 -8l-8 -4l-8 -4l-8 -4v0z" />
    <glyph glyph-name="quotesinglbase" unicode="&#x201a;" horiz-adv-x="116" 
d="M0 -52v8l8 4l8 8l4 8l4 8v16l-8 4l-8 4l-4 8l-4 8v8l4 8l4 8l8 4l8 4h8l8 -4l8 -4l4 -8l4 -8l4 -8v-16l-4 -8l-4 -8l-4 -8l-8 -8l-8 -8l-8 -8l-8 -4l-8 -4l-8 -4v0z" />
    <glyph glyph-name="quotereversed" unicode="&#x201b;" horiz-adv-x="116" 
d="M60 260l-8 4l-8 4l-8 4l-8 8l-8 8l-8 8l-4 8l-4 8l-4 8v16l4 8l4 8l4 8l8 4l8 4h8l8 -4l8 -4l4 -8l4 -8v-8l-4 -8l-4 -8l-8 -4l-8 -4v-16l4 -8l4 -8l8 -8l8 -4v-8v0z" />
    <glyph glyph-name="quotedblleft" unicode="&#x201c;" horiz-adv-x="188" 
d="M28 264l-8 4l-8 4l-4 8l-4 8l-4 8v16l4 8l4 8l4 8l8 8l8 8l8 8l8 4l8 4l8 4v-8l-8 -4l-8 -8l-4 -8l-4 -8v-16l8 -4l8 -4l4 -8l4 -8v-8l-4 -8l-4 -8l-8 -4l-8 -4h-8zM100 264l-8 4l-8 4l-4 8l-4 8l-4 8v16l4 8l4 8l4 8l8 8l8 8l8 8l8 4l8 4l8 4v-8l-8 -4l-8 -8l-4 -8
l-4 -8v-16l8 -4l8 -4l4 -8l4 -8v-8l-4 -8l-4 -8l-8 -4l-8 -4h-8z" />
    <glyph glyph-name="quotedblright" unicode="&#x201d;" horiz-adv-x="188" 
d="M0 260v8l8 4l8 8l4 8l4 8v16l-8 4l-8 4l-4 8l-4 8v8l4 8l4 8l8 4l8 4h8l8 -4l8 -4l4 -8l4 -8l4 -8v-16l-4 -8l-4 -8l-4 -8l-8 -8l-8 -8l-8 -8l-8 -4l-8 -4l-8 -4v0zM72 260v8l8 4l8 8l4 8l4 8v16l-8 4l-8 4l-4 8l-4 8v8l4 8l4 8l8 4l8 4h8l8 -4l8 -4l4 -8l4 -8l4 -8v-16
l-4 -8l-4 -8l-4 -8l-8 -8l-8 -8l-8 -8l-8 -4l-8 -4l-8 -4v0z" />
    <glyph glyph-name="quotedblbase" unicode="&#x201e;" horiz-adv-x="180" 
d="M0 -52v8l8 4l8 8l4 8l4 8v16l-8 4l-8 4l-4 8l-4 8v8l4 8l4 8l8 4l8 4h8l8 -4l8 -4l4 -8l4 -8l4 -8v-16l-4 -8l-4 -8l-4 -8l-8 -8l-8 -8l-8 -8l-8 -4l-8 -4l-8 -4v0zM72 -52v8l8 4l8 8l4 8l4 8v16l-8 4l-8 4l-4 8l-4 8v8l4 8l4 8l8 4l8 4h8l8 -4l8 -4l4 -8l4 -8l4 -8v-16
l-4 -8l-4 -8l-4 -8l-8 -8l-8 -8l-8 -8l-8 -4l-8 -4l-8 -4v0z" />
    <glyph glyph-name="dagger" unicode="&#x2020;" horiz-adv-x="160" 
d="M44 0l-4 8v204h-32l-8 4v12l8 4h32v56l4 8h16l4 -8v-56h32l8 -4v-12l-8 -4h-32v-204l-4 -8h-16z" />
    <glyph glyph-name="ellipsis" unicode="&#x2026;" horiz-adv-x="336" 
d="M24 0l-8 4l-8 4l-4 8l-4 8v8l4 8l4 8l8 4l8 4h8l8 -4l8 -4l4 -8l4 -8v-8l-4 -8l-4 -8l-8 -4l-8 -4h-8zM136 0l-8 4l-8 4l-4 8l-4 8v8l4 8l4 8l8 4l8 4h8l8 -4l8 -4l4 -8l4 -8v-8l-4 -8l-4 -8l-8 -4l-8 -4h-8zM248 0l-8 4l-8 4l-4 8l-4 8v8l4 8l4 8l8 4l8 4h8l8 -4l8 -4
l4 -8l4 -8v-8l-4 -8l-4 -8l-8 -4l-8 -4h-8z" />
    <glyph glyph-name="guilsinglleft" unicode="&#x2039;" horiz-adv-x="148" 
d="M84 84l-8 4l-8 8l-8 8l-8 8l-8 8l-8 8l-8 8l-8 8l-8 8l-8 8l-4 8l4 8l8 8l8 8l8 8l8 8l8 8l8 8l8 8l8 8l8 8l8 4l8 -4v-16l-8 -8l-8 -8l-8 -8l-8 -8l-8 -8l-8 -8l-8 -8l-8 -8l8 -8l8 -8l8 -8l8 -8l8 -8l8 -8l8 -8l8 -8v-16l-8 -4v0z" />
    <glyph glyph-name="guilsinglright" unicode="&#x203a;" horiz-adv-x="140" 
d="M8 84l-8 4v16l8 8l8 8l8 8l8 8l8 8l8 8l8 8l8 8l-8 8l-8 8l-8 8l-8 8l-8 8l-8 8l-8 8l-8 8v16l8 4l8 -4l8 -8l8 -8l8 -8l8 -8l8 -8l8 -8l8 -8l8 -8l8 -8l4 -8l-4 -8l-8 -8l-8 -8l-8 -8l-8 -8l-8 -8l-8 -8l-8 -8l-8 -8l-8 -8l-8 -4v0z" />
    <glyph glyph-name="Euro" unicode="&#x20ac;" horiz-adv-x="240" 
d="M96 -4l-8 4l-8 4l-8 4l-8 4l-8 4l-8 8l-8 8l-8 8l-8 8l-4 8l-4 8l-4 8l-4 8l-4 8l-4 8l-4 8v28h-28l-8 4v12l8 4h28v36h-28l-8 4v12l8 4h28v24l4 8l4 8l4 8l4 8l4 8l4 8l4 8l8 8l8 8l8 8l8 8l8 4l8 4l8 4l8 4l8 4h40l8 -4l8 -4l8 -4l8 -4l8 -4l8 -8v-8l-8 -8l-8 4l-8 4
l-8 4l-8 4l-8 4l-8 4h-24l-8 -4l-8 -4l-8 -4l-8 -4l-8 -4l-4 -4h-1l-3 -4l-4 -4h-1l-3 -4l-4 -4l-4 -8l-4 -8l-4 -8l-4 -8l-4 -8l-4 -8v-24h28l8 -4v-12l-8 -4h-28v-36h28l8 -4v-12l-8 -4h-28v-28l4 -8l4 -8l4 -8l4 -8l4 -8l4 -8l4 -4v-1l4 -3l4 -4v-1l4 -3l4 -4l8 -4l8 -4
l8 -4l8 -4l8 -4h24l8 4l8 4l8 4l8 4l8 4l8 4l8 -8v-8l-8 -8l-8 -4l-8 -4l-8 -4l-8 -4l-8 -4h-40z" />
    <glyph glyph-name="trademark" unicode="&#x2122;" horiz-adv-x="336" 
d="M24 196l-8 4v4l8 4h24v112h-32v-32l-4 -8h-8l-4 8v40l8 4h96l8 -4v-40l-4 -8h-8l-4 8v32h-32v-112h24l8 -4v-4l-8 -4h-64zM128 196l-8 4v4l8 4h16v112h-16l-8 4v4l8 4h32l8 -4l4 -8l4 -8l4 -8l4 -8l4 -8l4 -8l4 -8l4 -8l4 8l4 8l4 8l4 8l4 8l4 8l4 8l4 8l8 4h32l8 -4v-4
l-8 -4h-16v-112h16l8 -4v-4l-8 -4h-40l-8 4v4l8 4h8v104l-4 -8l-4 -8l-4 -8l-4 -8l-4 -8l-4 -8l-4 -8l-4 -8l-4 -8h-8l-4 8l-4 8l-4 8l-4 8l-4 8l-4 8l-4 8l-4 8l-4 8v-104h8l8 -4v-4l-8 -4h-40z" />
    <glyph glyph-name="uniFB01" unicode="&#xfb01;" horiz-adv-x="320" 
d="M136 0l-8 4v12l8 4h48v192h-48l-8 4v12l8 4h64q3 0 5 -3q3 -2 3 -5v-204h48l8 -4v-12l-8 -4h-120zM8 0l-8 4v12l8 4h40v192h-40l-8 4v12l8 4h40v40l4 8l4 8l4 8l4 8l8 8l8 8l8 4l8 4l8 4l8 4h48l8 -4l8 -4l8 -4l8 -4l8 -8l8 -8l4 -8l4 -8v-8l-4 -8l-4 -8l-8 -4l-8 -4h-8
l-8 4l-8 4l-4 8l-4 8v8l4 8l4 8v4l-8 4l-8 4h-32l-8 -4l-8 -4l-8 -4l-8 -8l-4 -8l-4 -8l-4 -8l-4 -8v-32h40l8 -4v-12l-8 -4h-40v-192h40l8 -4v-12l-8 -4h-104z" />
    <glyph glyph-name="uniFB02" unicode="&#xfb02;" horiz-adv-x="392" 
d="M8 0l-8 4v12l8 4h40v192h-40l-8 4v12l8 4h40v40l4 8l4 8l4 8l4 8l8 8l8 8l8 4l8 4l8 4l8 4h48l8 -4l8 -4l8 -4l8 -4l8 -8l8 -8l4 -8l4 -8v-8l-4 -8l-4 -8l-8 -4l-8 -4h-8l-8 4l-8 4l-4 8l-4 8v8l4 8l4 8v4l-8 4l-8 4h-32l-8 -4l-8 -4l-8 -4l-8 -8l-4 -8l-4 -8l-4 -8
l-4 -8v-32h40l8 -4v-12l-8 -4h-40v-192h40l8 -4v-12l-8 -4h-104zM208 0l-8 4v12l8 4h48v296h-48l-8 4v12l8 4h64q3 0 5 -3q3 -2 3 -5v-308h48l8 -4v-12l-8 -4h-120z" />
  </font>
</defs>
</svg>
